<svg xmlns="http://www.w3.org/2000/svg" xmlns:xlink="http://www.w3.org/1999/xlink" width="142.506" height="144.504" viewBox="0 0 102.506 104.504">
                        <defs>
                          <clipPath id="clip-path">
                            <rect width="63.192" height="19.483" fill="none"/>
                          </clipPath>
                        </defs>
                        <g id="Group_36" data-name="Group 36" transform="translate(-1182.453 -1622.265)">
                          <g id="Group_37" data-name="Group 37">
                            <g id="Group_31" data-name="Group 31" transform="translate(1182.453 1622.264)">
                              <path id="Subtraction_52" data-name="Subtraction 52" d="M-2058.362-1547.428h-48.363v-5.21h48.363v5.209Zm-66.324-10.8v-45.523a1.515,1.515,0,0,1,1.514-1.514h85.883a1.515,1.515,0,0,1,1.514,1.514v35.225h-5.209v-30.016a1.515,1.515,0,0,0-1.514-1.514h-75.465a1.515,1.515,0,0,0-1.514,1.514v40.314h-5.209Z" transform="translate(2129.453 1605.265)" fill="#fff"/>
                              <path id="Subtraction_53" data-name="Subtraction 53" d="M-2058.363-1600.848h-48.362v-2.932a1.482,1.482,0,0,0-.905-1.366h49.267v4.3Z" transform="translate(2129.453 1652.302)" fill="#fff"/>
                              <path id="Subtraction_22" data-name="Subtraction 22" d="M-2059.739-1599.306h-69.714v-5.958h69.714v5.957Zm-62.257-3.963a1.076,1.076,0,0,0-1.147.983,1.076,1.076,0,0,0,1.147.983h24.218a1.077,1.077,0,0,0,1.148-.983,1.077,1.077,0,0,0-1.148-.983Z" transform="translate(2143.818 1612.474)" fill="#fff"/>
                              <path id="Path_70" data-name="Path 70" d="M196.547,288.883h19.745V295.7H196.547Zm0,0" transform="translate(-157.198 -231.047)" fill="#5861c7"/>
                              <path id="Path_71" data-name="Path 71" d="M193.579,326.767H163.755a1.907,1.907,0,1,1,0-3.814h29.824a1.907,1.907,0,1,1,0,3.814Zm0,0" transform="translate(-129.445 -258.296)" fill="#6770e6"/>
                              <path id="Path_72" data-name="Path 72" d="M193.579,329.18H163.755a1.907,1.907,0,0,1-1.7-1.039,1.905,1.905,0,0,0,1.7,2.775h29.824a1.905,1.905,0,0,0,1.7-2.775A1.907,1.907,0,0,1,193.579,329.18Zm0,0" transform="translate(-129.445 -262.445)" fill="#5861c7"/>
                              <path id="Path_73" data-name="Path 73" d="M196.613,288.895h19.719v6.812H196.613Zm0,0" transform="translate(-157.25 -231.057)" fill="#fff"/>
                              <path id="Path_74" data-name="Path 74" d="M193.649,326.727H163.865a1.9,1.9,0,1,1,0-3.809h29.784a1.9,1.9,0,1,1,0,3.809Zm0,0" transform="translate(-129.535 -258.268)" fill="#eff5fa"/>
                              <path id="Subtraction_32" data-name="Subtraction 32" d="M-2097.535-1549.219h-30.218a1.7,1.7,0,0,1-1.7-1.7v-52.642a1.7,1.7,0,0,1,1.7-1.7h30.218a1.7,1.7,0,0,1,1.7,1.7v52.642A1.7,1.7,0,0,1-2097.535-1549.219Zm-28.014-52.2a1.7,1.7,0,0,0-1.7,1.7v44.964a1.7,1.7,0,0,0,1.7,1.7h25.81a1.7,1.7,0,0,0,1.7-1.7v-44.964a1.7,1.7,0,0,0-1.7-1.7Z" transform="translate(2198.338 1638.162)" fill="#fff"/>
                              <path id="Subtraction_50" data-name="Subtraction 50" d="M-2100.242-1600.3h-29.211v-3.747c0-.668.763-1.212,1.7-1.212h25.81c.938,0,1.7.544,1.7,1.212v3.747Zm-26.714-3.3c-.634,0-1.149.367-1.149.818s.516.819,1.149.819h24.216c.634,0,1.149-.367,1.149-.819s-.516-.818-1.149-.818Z" transform="translate(2200.543 1643.002)" fill="#fff"/>
                              <path id="Subtraction_57" data-name="Subtraction 57" d="M-2108.209-1566.526h-19.76a1.486,1.486,0,0,1-1.484-1.484v-35.771a1.485,1.485,0,0,1,1.484-1.483h19.76a1.485,1.485,0,0,1,1.483,1.483v35.771A1.485,1.485,0,0,1-2108.209-1566.526Zm-11.432-2.078a.577.577,0,0,0-.576.577.577.577,0,0,0,.576.576h3.1a.578.578,0,0,0,.576-.576.577.577,0,0,0-.576-.577Zm-7.111-33.554a.92.92,0,0,0-.919.919v30.688a.92.92,0,0,0,.919.919h17.324a.92.92,0,0,0,.919-.919v-30.688a.92.92,0,0,0-.919-.919Zm4.5-2.068a.577.577,0,0,0-.576.577.577.577,0,0,0,.576.576h8.315a.577.577,0,0,0,.577-.576.578.578,0,0,0-.577-.577Z" transform="translate(2129.453 1652.302)" fill="#fff"/>
                              <path id="Path_86" data-name="Path 86" d="M17.184,283.578H24.54V289.4H17.184Zm0,0" transform="translate(-13.744 -226.804)" fill="#fff"/>
                              <path id="Path_87" data-name="Path 87" d="M68.514,291.418H61.926a.558.558,0,1,1,0-1.117h6.589a.558.558,0,0,1,0,1.117Zm0,0" transform="translate(-49.081 -232.181)" fill="#fff"/>
                              <path id="Path_88" data-name="Path 88" d="M66.725,301.469h-4.8a.558.558,0,1,1,0-1.117h4.8a.558.558,0,1,1,0,1.117Zm0,0" transform="translate(-49.081 -240.22)" fill="#fff"/>
                              <g id="Repeat_Grid_1" data-name="Repeat Grid 1" transform="translate(18.547 17.137)" clip-path="url(#clip-path)">
                                <g id="Group_32" data-name="Group 32" transform="translate(-19.892 -17.307)">
                                  <path id="Path_340" data-name="Path 340" d="M17.184,283.578H35.376V296.19H17.184Zm0,0" transform="translate(2.708 -266.271)" fill="#fff"/>
                                  <path id="Path_341" data-name="Path 341" d="M76.023,292.477H62.512a1.089,1.089,0,1,1,0-2.176H76.023a1.089,1.089,0,1,1,0,2.176Zm0,0" transform="translate(-40.475 -258.578)" fill="#fff"/>
                                  <path id="Path_342" data-name="Path 342" d="M72.96,302.473H62.575a1.069,1.069,0,1,1,0-2.121H72.96a1.069,1.069,0,1,1,0,2.121Zm0,0" transform="translate(-39.475 -265.682)" fill="#fff"/>
                                </g>
                                <g id="Group_32-2" data-name="Group 32" transform="translate(2.108 -17.307)">
                                  <path id="Path_340-2" data-name="Path 340" d="M17.184,283.578H35.376V296.19H17.184Zm0,0" transform="translate(2.708 -266.271)" fill="#fff"/>
                                  <path id="Path_341-2" data-name="Path 341" d="M76.023,292.477H62.512a1.089,1.089,0,1,1,0-2.176H76.023a1.089,1.089,0,1,1,0,2.176Zm0,0" transform="translate(-40.475 -258.578)" fill="#fff"/>
                                  <path id="Path_342-2" data-name="Path 342" d="M72.96,302.473H62.575a1.069,1.069,0,1,1,0-2.121H72.96a1.069,1.069,0,1,1,0,2.121Zm0,0" transform="translate(-39.475 -265.682)" fill="#fff"/>
                                </g>
                                <g id="Group_32-3" data-name="Group 32" transform="translate(24.108 -17.307)">
                                  <path id="Path_340-3" data-name="Path 340" d="M17.184,283.578H35.376V296.19H17.184Zm0,0" transform="translate(2.708 -266.271)" fill="#fff"/>
                                  <path id="Path_341-3" data-name="Path 341" d="M76.023,292.477H62.512a1.089,1.089,0,1,1,0-2.176H76.023a1.089,1.089,0,1,1,0,2.176Zm0,0" transform="translate(-40.475 -258.578)" fill="#fff"/>
                                  <path id="Path_342-3" data-name="Path 342" d="M72.96,302.473H62.575a1.069,1.069,0,1,1,0-2.121H72.96a1.069,1.069,0,1,1,0,2.121Zm0,0" transform="translate(-39.475 -265.682)" fill="#fff"/>
                                </g>
                              </g>
                              <path id="Path_89" data-name="Path 89" d="M17.184,322H24.54v5.821H17.184Zm0,0" transform="translate(-13.744 -257.531)" fill="#fff"/>
                              <path id="Path_90" data-name="Path 90" d="M68.514,329.836H61.926a.558.558,0,1,1,0-1.117h6.589a.558.558,0,1,1,0,1.117Zm0,0" transform="translate(-49.081 -262.908)" fill="#fff"/>
                              <path id="Path_91" data-name="Path 91" d="M66.725,339.887h-4.8a.558.558,0,1,1,0-1.117h4.8a.558.558,0,0,1,0,1.117Zm0,0" transform="translate(-49.081 -270.947)" fill="#fff"/>
                              <path id="Path_92" data-name="Path 92" d="M17.184,361.84H24.54v5.821H17.184Zm0,0" transform="translate(-13.744 -289.398)" fill="#fff"/>
                              <path id="Path_93" data-name="Path 93" d="M68.514,369.68H61.926a.558.558,0,1,1,0-1.117h6.589a.558.558,0,1,1,0,1.117Zm0,0" transform="translate(-49.081 -294.775)" fill="#fff"/>
                              <path id="Path_94" data-name="Path 94" d="M66.725,379.73h-4.8a.558.558,0,1,1,0-1.117h4.8a.558.558,0,0,1,0,1.117Zm0,0" transform="translate(-49.081 -302.813)" fill="#fff"/>
                              <path id="Subtraction_55" data-name="Subtraction 55" d="M-2110.291-1600.306h-19.162v-4.038a.92.92,0,0,1,.918-.92h17.325a.92.92,0,0,1,.919.92v4.037Zm-16.357-3.649a1.15,1.15,0,0,0-1.148,1.148,1.149,1.149,0,0,0,1.148,1.147h13.552a1.149,1.149,0,0,0,1.148-1.147,1.15,1.15,0,0,0-1.148-1.148Z" transform="translate(2131.236 1655.408)" fill="#fff"/>
                              <path id="Subtraction_51" data-name="Subtraction 51" d="M-2054.56-1590.787h-74.894v-14.476h13.681v3.852a1.169,1.169,0,0,0,1.168,1.168,1.17,1.17,0,0,0,1.168-1.168v-3.851h6.628v3.852a1.17,1.17,0,0,0,1.168,1.168,1.17,1.17,0,0,0,1.168-1.168v-3.851h6.628v3.852a1.17,1.17,0,0,0,1.168,1.168,1.17,1.17,0,0,0,1.168-1.168v-3.851h6.628v3.852a1.17,1.17,0,0,0,1.168,1.168,1.17,1.17,0,0,0,1.168-1.168v-3.85h6.627v3.851a1.17,1.17,0,0,0,1.168,1.168,1.17,1.17,0,0,0,1.169-1.168v-3.85h6.628v3.851a1.17,1.17,0,0,0,1.168,1.168,1.17,1.17,0,0,0,1.168-1.168v-3.85h6.627v3.851a1.17,1.17,0,0,0,1.169,1.168,1.17,1.17,0,0,0,1.168-1.168v-3.85h5.082v14.475Zm-69.154-9.676a2.361,2.361,0,0,0-2.269,2.438,2.36,2.36,0,0,0,2.269,2.437,2.361,2.361,0,0,0,2.271-2.437A2.362,2.362,0,0,0-2123.714-1600.463Z" transform="translate(2157.065 1695.292)" fill="#fff"/>
                            </g>
                            <path id="Path_340-4" data-name="Path 340" d="M17.184,283.578H35.376V297.29H17.184Zm0,0" transform="translate(1241.816 1391.422)" fill="#fff"/>
                            <path id="Path_341-4" data-name="Path 341" d="M76.023,292.477H62.512a1.089,1.089,0,1,1,0-2.176H76.023a1.089,1.089,0,1,1,0,2.176Zm0,0" transform="translate(1198.624 1399.7)" fill="#fff"/>
                            <path id="Path_342-4" data-name="Path 342" d="M72.96,302.473H62.575a1.069,1.069,0,1,1,0-2.121H72.96a1.069,1.069,0,1,1,0,2.121Zm0,0" transform="translate(1200.628 1392.656)" fill="#fff"/>
                          </g>
                        </g>
                      </svg>