<?xml version="1.0" encoding="UTF-8"?> <svg xmlns="http://www.w3.org/2000/svg" xmlns:xlink="http://www.w3.org/1999/xlink" viewBox="0 0 557.25 448.91"><defs><style>.cls-1{fill:#dbdfff;}.cls-1,.cls-10,.cls-11,.cls-12,.cls-13,.cls-14,.cls-15,.cls-16,.cls-17,.cls-18,.cls-19,.cls-2,.cls-20,.cls-21,.cls-22,.cls-23,.cls-24,.cls-25,.cls-26,.cls-27,.cls-28,.cls-29,.cls-3,.cls-30,.cls-31,.cls-32,.cls-33,.cls-34,.cls-35,.cls-36,.cls-37,.cls-38,.cls-39,.cls-4,.cls-40,.cls-41,.cls-42,.cls-43,.cls-44,.cls-45,.cls-46,.cls-47,.cls-48,.cls-49,.cls-5,.cls-50,.cls-6,.cls-7,.cls-8,.cls-9{fill-rule:evenodd;}.cls-2{fill:#e8eaff;}.cls-3{fill:#003151;}.cls-4{fill:#00558c;}.cls-5{fill:#020202;}.cls-6{fill:#0d8e90;}.cls-7{fill:#1fbcbf;}.cls-8{fill:#f0f0ff;}.cls-9{fill:#ff65a7;}.cls-10{fill:#8ec2ff;}.cls-11{fill:#ffdb59;}.cls-12{fill:#9999ef;}.cls-13{fill:#ed428b;}.cls-14{fill:#abb1eb;}.cls-15{fill:#6a6adc;}.cls-16{fill:#cfd3f8;}.cls-17{fill:#4c4cc2;}.cls-18{fill:#3ff;}.cls-19{fill:#ffbd59;}.cls-20{fill:#f6c;}.cls-21{fill:#ffaa83;}.cls-22{fill:#ed9870;}.cls-23{fill:#fdfdfd;}.cls-24{fill:#bbcbf9;}.cls-25{fill:#8aa4f5;}.cls-26{fill:#778dde;}.cls-27{fill:#b17960;}.cls-28{fill:#fff;}.cls-29{fill:#cb2069;}.cls-30{fill:#d1d4f3;}.cls-31{fill:#f6f6ff;}.cls-32{fill:#0d69a5;}.cls-33{fill:#713d22;}.cls-34{fill:#452312;}.cls-35{fill:#05102e;}.cls-36{fill:url(#linear-gradient);}.cls-37{fill:#4eeef1;}.cls-38{fill:#fb9;}.cls-39{fill:#da2858;}.cls-40{fill:#666;}.cls-42{fill:#7a3a1e;}.cls-43{fill:url(#linear-gradient-2);}.cls-44{fill:#1818a3;}.cls-45{fill:#06c;}.cls-46{fill:#966de1;}.cls-47{fill:#a73ba5;}.cls-48{fill:#f3c;}.cls-49{fill:url(#linear-gradient-3);}.cls-50{fill:#fd9c3c;}</style><linearGradient id="linear-gradient" x1="-813.78" y1="-563.24" x2="-707.13" y2="-563.24" gradientTransform="translate(-341.3 -240.87) rotate(180)" gradientUnits="userSpaceOnUse"><stop offset="0.44" stop-color="#cdd3ff"></stop><stop offset="0.52" stop-color="#969cd6"></stop></linearGradient><linearGradient id="linear-gradient-2" x1="-790.94" y1="-539.25" x2="-499.62" y2="-539.25" gradientTransform="matrix(-1, 0, -0.01, -1, -342.64, -241.08)" xlink:href="#linear-gradient"></linearGradient><linearGradient id="linear-gradient-3" x1="-552.57" y1="-590.49" x2="-445.89" y2="-590.49" xlink:href="#linear-gradient"></linearGradient></defs><title>meeting</title><g id="Layer_2" data-name="Layer 2"><g id="Layer_6" data-name="Layer 6"><path class="cls-1" d="M272.48,2.59a21.62,21.62,0,0,0-7.83.12L40.9,42.21Q22.35,45.47,22.35,67.06V213.91q0,9.22,3.38,13.93-6-4.23-6-16.63V64.36q0-21.6,18.35-24.85L259.65.41Q267.95-1,272.48,2.59ZM390.55,227.11c-1.3,1.64-2.52,3.2-3.65,4.7-.07,0-.1.07-.1.1-.27.34-.55.7-.85,1.1q-2.9,3.86-4.7,5.9c-.83.94-1.83,2.2-3,3.8l-.32.45-1.16,1.63-2.07,3.07q-4,5.31-8.7,6.5l-3.62,1.33q-5.24-.34-10.63-.6a14.34,14.34,0,0,0,.15-2.13,7.61,7.61,0,0,0-.15-1.52,6.3,6.3,0,0,0-.3-1.05v0l2.1-1.17,23.65-21.73c.29-.46.57-.92.85-1.4.07-.1.14-.2.2-.3v0q7.8-13.41,10.75-35a22.07,22.07,0,0,1,3.9-1.9,1.52,1.52,0,0,0,.55-.2q-.79,2.55-3.2,11.35a63.63,63.63,0,0,0-2.4,14.1Q387.74,219.47,390.55,227.11Zm-197.9-192V29.81l19.25-3.4v5.25Zm-10-4.1v5.25l-19.25,3.4V34.36Zm42.25-2.1V23.61l19.25-3.4v5.25ZM263.65,276l-33.5,5.87-.7.05-21.4-3.7a6.53,6.53,0,0,0,.25-1.5l19.15,3.35,2.3.1,29.27-5,6.83-1.15.2-.05.15-.1v-.15l-.15-.1-6.15-1.1h0l-39.45-6.85-6.85-1.15.1-.65,1.3-3.57,14.85-41.23.3-.6.9-1.1.55-.3.6-.2h.55l20.38,3.53,21.57,3.75,8.6,1.47.9.5.15.2.25.45.1.3.05.6-.1.65-2.22,6.18L275,254.86l-6.85,18.9-.65.85-.55.4-.55.25-.3.1h-.25l-1,.4Zm-56.95-4.15.4-.08h.65l16.95,2.95h.05l.05.05-.1.05-11.95,2.1h-.15l-.1,0v0l-.1,0v0h-.2v0l-.1,0v0l0,0h-.15l-3.6-.62a7.55,7.55,0,0,0-.1-1.23C207.75,274,207.25,273,206.7,271.84Zm2.2-5.53-.05.15-.4-.1h-.35l-2.3.5-.05.15-.45-.1H205l-.7.15-.1-.17,8.7-1.53h1l47.4,8.2.2.2-.15.05-18.8,3.3h-1.2l-35-6.07c-.07-.11-.12-.22-.18-.33l2.85.5.6-.15.05.35,15.15,2.65h.3l.1-.05.4-.05v.25h.1l3.15.55.8-.1v.25l2.25.4h.45l.55-.1v.2l2.5.45h.3l.4-.05v.2l2.4.4h.4l.35-.05v.15l2.45.45h.3l1.2-.25v-.45h0l-1.55-.35v-.15l3.6.6h.2l2.4-.4v-.25l.45.1h.4l2.3-.4v-.2l.5.05h.3l2.25-.35.15-.1v-.15l.45,0h.15l2.5-.45v-.15l.4.05h.05l.05,0h.2l.05,0h.05l1.1-.15v-.5l-.1-.1-2.35-.4h-.3l-.55.1,0-.2-2.4-.5h-.3l-.55.15-.05-.25-2.45-.45h-.3l-.55.1,0-.2-2.35-.45h-.05l-.05-.05h-.25v.05h0l-.5.1-.05-.2-2.4-.5h-.4l-.5.1-.05-.2-2.4-.5h-.3l-.55.1-.05-.2-2.45-.45-.85.05-.05-.15-2.7-.5-.55.1,0-.2h-.05l-2.35-.5h-.4l-.5.1-.05-.15-2.35-.5h-.45l-.45.1,0-.2-2.45-.45h-.3l-.6.1v-.25l-2.45-.45h-.3l-.55.1-.05-.2-2.35-.45h0l-.05-.05h-.2l-.1.05-.55.05V266l-.1-.1-2.3-.4h-.4l-1,.25-.1.15-.9-.05-2.05.35Zm-31.7,5,12.88,2.22c.68.66,1.33,1.31,1.94,1.93L177.65,273l-.28-.12C177.31,272.28,177.25,271.76,177.2,271.29Zm60.8,3.82-.35.15h-.4l-.4.05v-.15l-.1-.1-1.7-.25v-.25l.45-.1v.2l2.4.45Zm-20.9-13.75,49.65,8.6,14.9-41.25L232,220.11Zm49.1,13.75h.05v-.05Zm177.2-7.75-1.5-2.75a9.51,9.51,0,0,0-3.55-2.4,13.13,13.13,0,0,0,4.63-1.77,13,13,0,0,0,3.12-2.73q-1-2.41-1.92-4.82c-.83-2.12-1.63-4.22-2.43-6.33a64.72,64.72,0,0,1-2.8-9.25q-1.2-5.49-6.25-6.65a8.53,8.53,0,0,1-1.95-.6,8.25,8.25,0,0,1-2.25-1.6,11.55,11.55,0,0,1-2.45-4.35,13.48,13.48,0,0,1-.35-6.25v-.05l.2-.85c.07-.26.13-.55.2-.85q3.79-3.6,11.95,0a13.72,13.72,0,0,1,6.5,6.1,29.8,29.8,0,0,1,2.4,6.85q.14.52,2.8,9.4c.29,1,.61,2.06.95,3.2q3.49,12.21,3.5,14.6,0,2.91-2.85,6.55a13.84,13.84,0,0,1-7.75,5.05A2.19,2.19,0,0,0,443.4,267.36ZM151.85,37.06v5.25l-19.25,3.4V40.46Zm-59.1,111.8,17.3-2.15v3.65l-17.3,2.15Zm17.3,12.9L100.4,163v-3.6l9.65-1.25Zm-14.3-3.9v-3.65l14.3-1.8v3.65Zm-42.6-14.4v4.95L35,151.61v-5Zm-14,206.4V335.91l13.7-2.4v13.95Zm4,17.35,10.6-1.85v10.75L43.1,378ZM31.1,366V355.21l10.6-1.85v10.75ZM374,286.16v1.75a.36.36,0,0,0,0,.25c.17.5,1.33.95,3.5,1.35a50.73,50.73,0,0,0,7.7.6,40.18,40.18,0,0,0,7.25-.45c1.93-.36,2.82-.8,2.65-1.3v-1.8q4.41.79,4.8,1.9a.51.51,0,0,1,0,.3c-.27.64-1.55,1.14-3.85,1.5a55,55,0,0,1-10.5.75,71.8,71.8,0,0,1-11.2-.85c-3.13-.6-4.82-1.26-5.05-2s1-1.38,3.85-1.85Z"></path><path class="cls-2" d="M505.65,429.66l14.4-2.6v-1.45l4,.7,14.45-2.5v-2.15l18.8,3.25-138.55,24-41.45-7.15L399.1,438v5.27l14.65,2.35,14.4-2.55v-1.15l4,.7,14.45-2.55v-1.4l3.95.55,14.4-2.55v-1.2l4,.7,14.4-2.55v-1.45l3.95.7,14.45-2.6V429ZM417.5,407.21v8l-3.85-.7-14.55,2.65V423q-4.83,1.1-10.75,2.12-32.1,5.5-77.55,5.55-37.16,0-65.4-3.7a1.51,1.51,0,0,1,.15.65q0,3.25-13.35,5.55a194.44,194.44,0,0,1-32.2,2.35,191.78,191.78,0,0,1-32.2-2.3q-13.35-2.29-13.35-5.6t13.3-5.6q3.84-.66,8.12-1.12.7,4,1.08,8.52,1.91.45,2-1.5a11.07,11.07,0,0,1,0-3.45c.83,0,2.77.32,5.8.85a17.44,17.44,0,0,0,5.8.2,4.09,4.09,0,0,0,4.15-1.7,4,4,0,0,0,.65-4.07q2.14,0,4.38,0a23.05,23.05,0,0,1,1.87,7.9,15.87,15.87,0,0,1,.35,4.2c.13,1.7.82,2.44,2,2.2-.07-3.56,0-6.25.05-8.05a14.47,14.47,0,0,1,1.37-6.2l1.58.05a19.36,19.36,0,0,1,1.7,4.4,28.66,28.66,0,0,0,2.25,6.05,31.26,31.26,0,0,0,8.8,1.75,27.3,27.3,0,0,0,8.85-1,3.09,3.09,0,0,0,2.7-2.55c.43-1.56,0-2.61-1.3-3.15-2.53-.86-4.37-1.51-5.5-1.95a35.12,35.12,0,0,1-5.3-2.4,61.56,61.56,0,0,1-1.15-8.55c0-.46-.07-.9-.1-1.3q-.45-5-.9-7.35c-.16-.57-.31-1.15-.45-1.75q6.84-1.9,16.7-3.6,7.6-1.31,16-2.32l-.48-.08q-14.81-2.55-14.8-6.15t14.8-6.15c1.83-.31,3.73-.6,5.7-.85v1.95a1.85,1.85,0,0,0,0,1.05,10.1,10.1,0,0,0-.15,1.65v1.15a14.89,14.89,0,0,1-.15,2,7.32,7.32,0,0,0,.55,4.9,4.38,4.38,0,0,0,4.2,2.3,19.35,19.35,0,0,0,10.6,2.65q1.75,0,11.15-.95a1,1,0,0,0,1.1-.8V397a9.09,9.09,0,0,0,.15-2.85.55.55,0,0,0-.15-.4,3.56,3.56,0,0,0-1.2-2,50.83,50.83,0,0,0,7.8,1.1,12.14,12.14,0,0,0,7.6-1.7,105.25,105.25,0,0,0,15.4,2.5,42,42,0,0,0,15.5-1.55,7.67,7.67,0,0,0,.15-2.4,4.11,4.11,0,0,0-.75-3.15,9.88,9.88,0,0,0-1.05-1,9.28,9.28,0,0,0-2.22-1.27q12.16,2.42,12.17,5.72,0,1.75-3.52,3.28l1.62.05c-.37.27-.72.54-1.05.82a8.69,8.69,0,0,0-3.05,4.85,8.89,8.89,0,0,0-.25,1.55c0,.54.37.87,1,1q10.1,3.45,18.9,1.4,4.95-2.25,5.4-2.35a5.59,5.59,0,0,1,5.45,1,21,21,0,0,0,8.35-.45q4-1.31,3.7-5.05,1.91.23,3.78.48a34,34,0,0,0-2.53,3.57,16.92,16.92,0,0,1-2.7,2.9l-3.15,2.7a4.55,4.55,0,0,1-.4.45q-3.19,3.15-3.05,6.5a7.52,7.52,0,0,0,.15,2.15,1.78,1.78,0,0,0,1.5,1.35,29.67,29.67,0,0,0,11.7,1.3,18.94,18.94,0,0,0,10.7-4.25,3.4,3.4,0,0,0,3.5-2.4c.67-1.56.73-2.8.2-3.7q.74-4.89,1.17-7.87Q411.35,402.76,417.5,407.21ZM177,388.11a53.84,53.84,0,0,1,.23,6.48L38,418.66l-38-6.6,22.15-3.82v4.22l21,3.7,21.05-3.7V400.94l107.4-18.58,4.83.83c.07.55.13,1,.17,1.32C176.77,385.78,176.9,387,177,388.11Zm26.55,1.9-15.3,2.65c-.08-.86-.14-1.63-.2-2.3-.15-1.81-.26-3.54-.32-5.2l15.39,2.68C203.28,388.57,203.42,389.29,203.55,390Zm68.63-8.62c2.41-.1,4.9-.16,7.47-.2l-.1.87c-.17,1-.28,1.92-.35,2.85v.95l-.3,4.15a31.15,31.15,0,0,1-4.55-4.8,34.27,34.27,0,0,0-2-3.55C272.29,381.57,272.23,381.48,272.18,381.39Z"></path><path class="cls-3" d="M149,347.66l-14.9-2.45a4,4,0,0,0-.6,0,5,5,0,0,0-.7-.15,16.9,16.9,0,0,1-10.52-7.5l-.33-.65a27.57,27.57,0,0,1-2.9-13.75,59.42,59.42,0,0,1,2.35-14.05,17.62,17.62,0,0,0,4.55,3.45,30.76,30.76,0,0,0,5.35,2.25,31.31,31.31,0,0,0,2.3,18.1c.38.85.78,1.67,1.22,2.45A26.7,26.7,0,0,0,145.6,346,22.64,22.64,0,0,0,149,347.66ZM277.2,94.26a39,39,0,0,1-5.3-3q-5.44-3.45-7.15-5.6c-.23-.62-.47-1.25-.7-1.9-.07-.18-.13-.36-.2-.55a11.06,11.06,0,0,0,1.15-1.1,17.85,17.85,0,0,0,1.9-1.4,3.79,3.79,0,0,0,0,2.45,3.7,3.7,0,0,0,.17.4,12.54,12.54,0,0,0,7.75,5.2c1.55.39,3,.7,4.5.95s2.61.41,3.85.53a35.33,35.33,0,0,0,8.45-.08,20.91,20.91,0,0,0,3.75-1,7,7,0,0,1,0,2.05,5.41,5.41,0,0,1-1.3,2.7c0,.07-.07.14-.2.2l-.15.1q-3,2.61-8.05,2.1c-.71-.12-1.55-.29-2.5-.5l-1.95-.45a7.77,7.77,0,0,0-1.9-.55,0,0,0,0,1-.05,0,4.13,4.13,0,0,0-2.05-.6ZM408.38,323.59q-.17,3.63-.45,7.25a184.1,184.1,0,0,1-14.28,57.22,38.63,38.63,0,0,1-4.65.35c-.77,0-1.55,0-2.35,0l-.5-.1q2.14-7.39,5.65-27.5a261.12,261.12,0,0,0,3.95-31.72c0-.72.07-1.43.1-2.13a36.91,36.91,0,0,1,.53-5,31,31,0,0,1,7.1-15.2q5.43-.78,10.62-1.68,13.06-2.25,22.15-4.77a58.53,58.53,0,0,1-3.6,4.92,60.34,60.34,0,0,1-22.55,16.95,7,7,0,0,1-1.7.6C408.39,323.07,408.38,323.33,408.38,323.59Zm-139-218.28c-.06.22-.11.44-.15.65a13.76,13.76,0,0,0-.35,3.45l0-.1a.23.23,0,0,0,0,.2l-1.55.15v-.8a23.79,23.79,0,0,1-.73-3.32c-.13-.82-.27-1.76-.42-2.83-.5-2.5-1.8-3.56-3.9-3.2a1.68,1.68,0,0,0-1,1,8.61,8.61,0,0,0-.5,1.7,5.4,5.4,0,0,0,0,2,15.76,15.76,0,0,0,.9,4.75,21.29,21.29,0,0,1-3.15-12.5v-.7c.1-1,.22-2,.35-3a23.55,23.55,0,0,1,1.9-5.45,2.73,2.73,0,0,0,.45,1.1q4,8.91,11,11.9l.15.05a8.6,8.6,0,0,0-.75.85,12.16,12.16,0,0,0-1.35,1.75,1.25,1.25,0,0,0-.3.65A4.81,4.81,0,0,0,269.35,105.31Zm33.78,148.88q-10.42.08-20.31.4l.23-10.33a7.31,7.31,0,0,0,1.6-.85,28.42,28.42,0,0,0,8.73-7.42l1.82.22a11.81,11.81,0,0,0,3.07-.42q1.22,3.33,2.33,6.82A71.2,71.2,0,0,1,303.13,254.19Zm-139,57.47h18.5q8.29.9,11.65,4.75a139,139,0,0,0-17.4-.8c-4.23.14-6.67.24-7.3.3C166.33,316.18,164.52,314.76,164.15,311.66Zm230.75-2.45a25.69,25.69,0,0,0-5.9,2.15q-3.9,2.06-5.9,3-3,1.49-7.55,3.95c-2.18,1.2-4.63,2.56-7.35,4.1a9.77,9.77,0,0,0,.55,1.6l.13.33q4.11,10.28.77,23.82a103.75,103.75,0,0,0-1.6,13.15q-.26,4.41-.55,13.25a5.71,5.71,0,0,1-2.9,4.5,7.73,7.73,0,0,1-4.05.95,34.83,34.83,0,0,0,.4-4.95q0-6.8-1.95-26.3T357.05,321a31.61,31.61,0,0,1,1.45-9.77q20.06-1.17,37.57-3.4l-.57,1ZM296,312.34a136.29,136.29,0,0,0-2.1,14.57,173.58,173.58,0,0,0-.8,22.85q.49,10.11,1.45,20a17.59,17.59,0,0,1-4.8-1.15,41.52,41.52,0,0,1-6.55-3.1l-1.5-.8a75.93,75.93,0,0,0,0-24.9,95.24,95.24,0,0,0-2-9.45,41,41,0,0,1,1.65-13.15c.56-1.87,1.06-3.6,1.5-5.17Q289.23,312.24,296,312.34Zm-27.87-.9a130.34,130.34,0,0,0-3.28,17,175,175,0,0,0-1.3,23.65q.11,11.1.2,22.5h-.5a13.44,13.44,0,0,1-4.4-.7,7.66,7.66,0,0,1-3.4-2.85l-1.8-1-1.5-23a1,1,0,0,1-.15-.55q-1.65-7.95-2.65-12.3a22.27,22.27,0,0,1,.85-8.65,47.22,47.22,0,0,1,2.6-8.15q1.65-4.33,2.45-6.7Q261.5,311.11,268.08,311.44Z"></path><path class="cls-4" d="M310.25,254.16c-2.39,0-4.77,0-7.12,0a71.2,71.2,0,0,0-2.53-11.58q-1.11-3.5-2.33-6.82c.43-.12.85-.27,1.28-.43s1.07-.48,1.6-.75a31.48,31.48,0,0,0,4.5-2.85,120.12,120.12,0,0,1,3.8,16.55Q309.94,251.24,310.25,254.16ZM155.58,221.61a5.92,5.92,0,0,1,3.87-2.55,6.07,6.07,0,0,1,4.75.9,6.2,6.2,0,0,1,2.75,4,5.93,5.93,0,0,1-.9,4.75,1.62,1.62,0,0,0-.1.18,12.38,12.38,0,0,0-6-6.48A9.44,9.44,0,0,0,155.58,221.61Zm3.72,82.6q3,2.31,4.85,7.45c.37,3.1,2.18,4.52,5.45,4.25.63-.06,3.07-.16,7.3-.3a139,139,0,0,1,17.4.8,32.22,32.22,0,0,1,2.8,12.3c0,.4.05.8.05,1.2v.28a17.9,17.9,0,0,1-1.28,6.4,18.46,18.46,0,0,1-1.17,2.47l-2.15.65q-3.11.71-9.3,2.3t-9.35,2.35q-5.25,1.45-8,2.15a61.54,61.54,0,0,1-8.25,1.65,30.67,30.67,0,0,1-4.95.1,22.68,22.68,0,0,1-3.8-.6A22.64,22.64,0,0,1,145.6,346a26.7,26.7,0,0,1-10.83-10.7c-.44-.78-.84-1.6-1.22-2.45a31.31,31.31,0,0,1-2.3-18.1,32,32,0,0,0,14.95-2.55q2.1-.94,4.4-2.15A72.89,72.89,0,0,0,159.3,304.21Zm123.52-49.62c-2.64.08-5.24.17-7.82.27l7.38-20.37c2.18.38,4.39.71,6.62,1l4.38.53a28.42,28.42,0,0,1-8.73,7.42,7.31,7.31,0,0,1-1.6.85Zm16.33,113.67a6.5,6.5,0,0,1-3.25,1.65,12.28,12.28,0,0,1-1.4-.15q-.94-9.9-1.45-20a173.58,173.58,0,0,1,.8-22.85,136.29,136.29,0,0,1,2.1-14.57q4.29.07,8.68.1c-.24,1.54-.46,3.08-.68,4.62a97.63,97.63,0,0,0-.95,11.3,72.68,72.68,0,0,1-1.2,9.9l-1.5,29.3Zm-35.45,6.3q-.1-11.4-.2-22.5a175,175,0,0,1,1.3-23.65,130.34,130.34,0,0,1,3.28-17q4,.21,8.17.37c-.6,1.84-1.21,3.68-1.85,5.5a71.41,71.41,0,0,0-4,22.75,48.61,48.61,0,0,1-.35,5.75q0,.75-.15,1.5l.3,25.15-1.15.7-1.2.6C266.45,374,265.07,374.26,263.7,374.56Z"></path><path class="cls-5" d="M278.9,390l.3-4.15a17.47,17.47,0,0,0,6,2.2l3.05.25q5.29.06,8.3.3c.53,0,1,0,1.3.05a.66.66,0,0,0,.4.15,61.54,61.54,0,0,0,14.05,2.55,45.57,45.57,0,0,0,14.7-1.75,7.67,7.67,0,0,1-.15,2.4,42,42,0,0,1-15.5,1.55,105.25,105.25,0,0,1-15.4-2.5,12.14,12.14,0,0,1-7.6,1.7,50.83,50.83,0,0,1-7.8-1.1Zm-24.75.65a8.1,8.1,0,0,0,2.2,1.85,13.33,13.33,0,0,0,2.4,1.35q3.19,4.65,10.6,4.65a40.12,40.12,0,0,0,6.5-.65q4-.6,5.9-.9v1.8a1,1,0,0,1-1.1.8q-9.4,1-11.15.95a19.35,19.35,0,0,1-10.6-2.65,4.38,4.38,0,0,1-4.2-2.3A7.32,7.32,0,0,1,254.15,390.66Z"></path><path class="cls-6" d="M446.55,438.66v-41.8l-10.7-1.95V382l14.6,2.55h.05v54.65ZM524,397.86v28.45l-4-.7V397.16l3.9.7Zm-229.5-28.1a12.28,12.28,0,0,0,1.4.15,6.5,6.5,0,0,0,3.25-1.65,11.88,11.88,0,0,0,1,.95c.57.57,1.2,1.17,1.9,1.8a8.46,8.46,0,0,0,.6.65,8.43,8.43,0,0,1-1.35.4,29,29,0,0,1-9,1.35,20.14,20.14,0,0,1-10.3-2.6.45.45,0,0,0,.1-.25v-.25a3,3,0,0,1,.4-.6,2.66,2.66,0,0,1,.2-.95c.27-1.43.43-2.51.5-3.25a41.52,41.52,0,0,0,6.55,3.1A17.59,17.59,0,0,0,294.5,369.76Zm-9.3,18.3a2.78,2.78,0,0,0-.85-.25,50.26,50.26,0,0,1-5.15-2.9c.07-.93.18-1.88.35-2.85l.1-.87.25-1.88a.7.7,0,0,1,.1-.4l.05-.2a.2.2,0,0,1,.1-.2v-.15a44.86,44.86,0,0,1,8.75,2.2c.68.23,1.35.45,2,.65q17,5.55,22.9,5.55,8.15,0,12.45-.3a4.11,4.11,0,0,1,.75,3.15,45.57,45.57,0,0,1-14.7,1.75,61.54,61.54,0,0,1-14.05-2.55.66.66,0,0,1-.4-.15c-.33,0-.77-.05-1.3-.05q-3-.24-8.3-.3Zm-30.9-.55a20.24,20.24,0,0,1,5.95,3.45,19,19,0,0,0,4.3,3,22.62,22.62,0,0,0,5.65,1.6,32.19,32.19,0,0,0,11.55-1.85.55.55,0,0,1,.15.4,9.09,9.09,0,0,1-.15,2.85q-1.85.3-5.9.9a40.12,40.12,0,0,1-6.5.65q-7.39,0-10.6-4.65a13.33,13.33,0,0,1-2.4-1.35,8.1,8.1,0,0,1-2.2-1.85,14.89,14.89,0,0,0,.15-2Zm9.4-12.95c1.37-.3,2.75-.56,4.15-.8l1.2-.6v2.6a7.47,7.47,0,0,0,.5,1.1q.3.6-4.45,1.65A17.18,17.18,0,0,1,254.65,377c0-.53.08-1.11.15-1.75a32.58,32.58,0,0,1,.6-4.2,7.66,7.66,0,0,0,3.4,2.85,13.44,13.44,0,0,0,4.4.7Z"></path><path class="cls-7" d="M524,397.86l14.45-2.55v28.5L524,426.31ZM438.35,262.21l-1.1.2a16.66,16.66,0,0,0-4.15,1.3,53.52,53.52,0,0,0-1.65-10.15,115.06,115.06,0,0,0-3.8-11.35q-2.75-7.4-3.8-11.4a52.06,52.06,0,0,1-1.75-13.25q0-4.25,3.9-9.4a37.09,37.09,0,0,1,8.5-8,22.66,22.66,0,0,1,6-3.1,1.38,1.38,0,0,1,.4.35c.17.17.33.35.5.55a.17.17,0,0,1,.1.15,1.41,1.41,0,0,1,.3.3.36.36,0,0,1,.15.15s0,.09.1.15a.94.94,0,0,0,.1.1c.54.67,1,1.34,1.48,2a15.22,15.22,0,0,0-6,1.2,7.08,7.08,0,0,0-.85.4,20.8,20.8,0,0,0-5.1,3.75,17,17,0,0,0-4.4,6.4c-.5,1.37-.88,2.57-1.15,3.6-.07.3-.13.59-.2.85l-.2.85v.05a13.48,13.48,0,0,0,.35,6.25,11.55,11.55,0,0,0,2.45,4.35,8.25,8.25,0,0,0,2.25,1.6,8.53,8.53,0,0,0,1.95.6q5.06,1.16,6.25,6.65a64.72,64.72,0,0,0,2.8,9.25c.8,2.11,1.6,4.21,2.43,6.33q-.71,3.36-1.2,7.55A13.13,13.13,0,0,1,438.35,262.21Zm26.55,119.9v54.55l-14.4,2.55V384.56Zm-138.65,4.35q-4.31.3-12.45.3-6,0-22.9-5.55c-.65-.2-1.32-.42-2-.65a44.86,44.86,0,0,0-8.75-2.2,12.43,12.43,0,0,1,.65-2.75c.33-1.26.62-2.45.85-3.55.1-.43.2-.85.3-1.25a20.14,20.14,0,0,0,10.3,2.6,29,29,0,0,0,9-1.35,8.43,8.43,0,0,0,1.35-.4,7.76,7.76,0,0,1,1.85,2.9q8.06,7.26,16.35,8.95a15.11,15.11,0,0,1,2.18.68,9.28,9.28,0,0,1,2.22,1.27A9.88,9.88,0,0,1,326.25,386.46Zm-71.8-3.6v-2.05a34.91,34.91,0,0,1,.2-3.85,17.18,17.18,0,0,0,10.45,1.55q4.75-1,4.45-1.65a9.68,9.68,0,0,1,.65,1.4c.25.48.91,1.52,2,3.13.05.09.11.18.17.27a34.27,34.27,0,0,1,2,3.55,31.15,31.15,0,0,0,4.55,4.8l1.65,1.65a3.56,3.56,0,0,1,1.2,2,32.19,32.19,0,0,1-11.55,1.85,22.62,22.62,0,0,1-5.65-1.6,19,19,0,0,1-4.3-3,20.24,20.24,0,0,0-5.95-3.45,10.1,10.1,0,0,1,.15-1.65,1.85,1.85,0,0,1,0-1.05Zm30.75,5.2a17.47,17.47,0,0,1-6-2.2v-.95a50.26,50.26,0,0,0,5.15,2.9A2.78,2.78,0,0,1,285.2,388.06Z"></path><path class="cls-8" d="M122.23,337.51a16.9,16.9,0,0,0,10.52,7.5,5,5,0,0,1,.7.15,4,4,0,0,1,.6,0l14.9,2.45a22.68,22.68,0,0,0,3.8.6,30.67,30.67,0,0,0,4.95-.1,61.54,61.54,0,0,0,8.25-1.65q2.7-.69,8-2.15,3.15-.75,9.35-2.35t9.3-2.3l2.15-.65a18.46,18.46,0,0,0,1.17-2.47l9.4,1.62.53.1q6,1.11,5.45,2.65t-7.35,2.85l-33.3,5.85a90.69,90.69,0,0,1-15.9,1.3,78.61,78.61,0,0,1-15.1-.95l-29.5-5.2c-3.53-.63-5.37-1.4-5.5-2.3a1.72,1.72,0,0,1,.05-.35q.55-1.65,7.35-2.85Zm27.82-128a21.67,21.67,0,0,0,0,3.5L40.9,232.31q-10.65,1.88-15.17-4.47-3.37-4.69-3.38-13.93V67.06q0-21.6,18.55-24.85L264.65,2.71a21.62,21.62,0,0,1,7.83-.12q10.72,2.05,10.72,18.47v58.3q-1-.35-2.1-.6-8.85-2-14.2,1.95a17.85,17.85,0,0,1-1.9,1.4,11.06,11.06,0,0,1-1.15,1.1c-.28.31-.55.61-.8.93a12.69,12.69,0,0,0-2.75,1.52,17.85,17.85,0,0,1-1.9,1.4,11.06,11.06,0,0,1-1.15,1.1,22.57,22.57,0,0,0-3.05,4.15v.1a23.55,23.55,0,0,0-1.9,5.45c-.13,1-.25,2-.35,3v.7A21.29,21.29,0,0,0,255.1,114a4.68,4.68,0,0,0,1.35,1.9l.65.65.3.2v5.5a5.48,5.48,0,0,0-3.25,2.25,33.43,33.43,0,0,0-1.9,3.2l-.45.78q-4.68,1.2-12.4,3.37a16.68,16.68,0,0,0-6.53,4.93l-.07,0a18.19,18.19,0,0,0-8.3,7.35c-.3.43-.61.92-.92,1.45a70.55,70.55,0,0,1-4.43-10.35q-3.45-9.8-6.25-13.85a7.64,7.64,0,0,0-1.4-.57,3.91,3.91,0,0,0,0-1.08v-.05a36.24,36.24,0,0,0-.32-9L243.4,105a1,1,0,0,0,.65-.35,1.12,1.12,0,0,0,.3-.75V27.66a.82.82,0,0,0-.3-.65.86.86,0,0,0-.65-.15,1.2,1.2,0,0,0-.65.35,1.35,1.35,0,0,0-.3.8V69a73.41,73.41,0,0,1-18-12.15q-8.44-7.59-11.05-8.9V33.11a.82.82,0,0,0-.3-.65.86.86,0,0,0-.65-.15,1.22,1.22,0,0,0-.65.4,1.27,1.27,0,0,0-.25.75V47.31a16.51,16.51,0,0,0-4.45-.5,38.86,38.86,0,0,0-24.65,8.8v-17a.82.82,0,0,0-.3-.65.79.79,0,0,0-.65-.1,1.2,1.2,0,0,0-.7.35,1.27,1.27,0,0,0-.25.75V57.26a53.08,53.08,0,0,0-10.75,14.35Q162.15,86,151.35,90V44.06a.88.88,0,0,0-.25-.65,1,1,0,0,0-.7-.15,1,1,0,0,0-.6.35,1.16,1.16,0,0,0-.3.75V90.61q-7.6,2.16-16.75-.55-6-1.69-12.35,3V49.51a.82.82,0,0,0-.3-.65.94.94,0,0,0-.65-.15,1.22,1.22,0,0,0-.65.4,1.16,1.16,0,0,0-.3.75v76.25a.79.79,0,0,0,.3.65.69.69,0,0,0,.65.1l65.8-11.6a8.67,8.67,0,0,0-.4,1.25q3.15,4,4.1,5.45c.17.2.32.37.45.5a23.87,23.87,0,0,0,2.85,3.35,4.66,4.66,0,0,0,.45.4,7.57,7.57,0,0,0,1.75,1.7,3.79,3.79,0,0,0,.9.45,12.56,12.56,0,0,0,3.3.95,21.75,21.75,0,0,0-1.7,4.45l2.1,10q1.09,3.21,3.7,14.5a65.72,65.72,0,0,0,4.3,13.4,5.18,5.18,0,0,0,.35.75q5.85,6.9,15.25,2.75a37.24,37.24,0,0,0,9.93-6.65,39,39,0,0,0,4.29-3q3.1,7.5,5.93,13.35a145.33,145.33,0,0,0,7.5,13.65,17.27,17.27,0,0,1,.72,1.85c.1.27.18.54.25.8l-62.12,11A3,3,0,0,0,189,204a23.9,23.9,0,0,0-1.45-2.5,20.66,20.66,0,0,0-4.15-4.15,22.21,22.21,0,0,0-7.75-3.35,26.92,26.92,0,0,0-8.3-.6,65.33,65.33,0,0,0-8.5,2.55,12.15,12.15,0,0,0-5.7,4.75,19.13,19.13,0,0,0-3,7.7C150.12,208.81,150.08,209.18,150.05,209.51ZM177.73,276l17.6,3.05a7.22,7.22,0,0,0,3.47,3.15,7.39,7.39,0,0,0,4.65.3,6.33,6.33,0,0,0,2.92-1.55l23.13,4,42.9-7.45L263.65,276l1.25-.23,1-.4h.25l.3-.1L267,275l.55-.4.65-.85,6.85-18.9c2.58-.1,5.18-.19,7.82-.27q9.89-.32,20.31-.4c2.35,0,4.73,0,7.12,0h.5q6.33,0,12.48.08,3.88,0,7.7.12l.92,0a23.28,23.28,0,0,0-3.6,3.47q-2.29,2.7-2.1,4.1c.17,1.17.88,1.67,2.15,1.5.67-.1,1.72-1,3.15-2.6a12.5,12.5,0,0,1,2.95-2.7,37.9,37.9,0,0,0,6.25-2.4,3.13,3.13,0,0,0,1.15-1.1l4.22.18c1.93.07,3.84.16,5.73.25q5.4.25,10.63.6,15.47,1,29.39,2.6,11.72,1.38,22.33,3.22c3.28.57,6.37,1.14,9.28,1.73a5.16,5.16,0,0,0-2.88,2.92,5.39,5.39,0,0,0-3.35.4,5.08,5.08,0,0,0-2.25,1.8c-.53.77-.57,1.39-.1,1.85s1.63.79,3.3.65q.6,2.7,3.9,4.25a62.3,62.3,0,0,0,6,2.3,2.77,2.77,0,0,1,.45-.6,3.31,3.31,0,0,1,1.75-1.15,3.8,3.8,0,0,1,2.85.4,2.82,2.82,0,0,0,3-.55,54.26,54.26,0,0,0,6.6.2,4.26,4.26,0,0,0,.5-1l.75-4.05a11.68,11.68,0,0,0-.15-1.92,10.33,10.33,0,0,0-.35-1.33,2.19,2.19,0,0,1,.2.55,13.84,13.84,0,0,0,7.75-5.05q2.85-3.64,2.85-6.55,0-2.4-3.5-14.6c-.34-1.14-.66-2.2-.95-3.2q-2.67-8.88-2.8-9.4a29.8,29.8,0,0,0-2.4-6.85,13.72,13.72,0,0,0-6.5-6.1q-8.15-3.65-11.95,0c.27-1,.65-2.23,1.15-3.6a17,17,0,0,1,4.4-6.4,20.8,20.8,0,0,1,5.1-3.75,7.08,7.08,0,0,1,.85-.4,15.22,15.22,0,0,1,6-1.2h.42a24.79,24.79,0,0,1,7.8,11.05q3,8,5.55,16.35.45,1.5,2.05,6.2t3.1,9q1.45,4.3,2.75,9.35a28,28,0,0,1,0,12q-1.35,7-9.45,9c-.57.16-1.15.3-1.72.43q2.78,2.46,2.77,5.12a6.16,6.16,0,0,1-1.67,4q-3.57,4.15-14.75,7.75a197.1,197.1,0,0,1-26.38,6.05l-1.53.25c-3.68.63-7.47,1.21-11.34,1.75l-.41.05q-17.62,2.44-37.92,3.75-2.92.19-5.9.35-21.66,1.23-46.25,1.2h-5c-2.7,0-5.37,0-8-.07q-6.6-.11-13-.28c-2-.06-4.08-.12-6.09-.2q-4.24-.15-8.38-.35-6.76-.33-13.25-.77a487,487,0,0,1-49.7-5.68q-27.9-4.83-37.6-10.92a10.48,10.48,0,0,0,4.55-2.28A8.77,8.77,0,0,0,177.73,276Zm173.72-25.65a9,9,0,0,0-2.05-3.6,12.69,12.69,0,0,0-1.9-1.65,4.79,4.79,0,0,0-.45.25q1.95-1.26,5.5-3.6a48.6,48.6,0,0,0,6.4-5.3q1.32-1.32,2.85-3.17L365,229q3.49-5.64,5.45-8.3c.5-.9,1-1.91,1.55-3.05a3.63,3.63,0,0,1,.2-.35l.3-.62c.33-.76.66-1.57,1-2.43q1.8-4.44,2.7-6.6,1-2.34,2.1-4.35a41.55,41.55,0,0,1,7.15-9.5.09.09,0,0,1,.1-.1,16.16,16.16,0,0,1,3.5-3q-3,21.59-10.75,35v0c-.06.1-.13.2-.2.3-.28.48-.56.94-.85,1.4l-23.65,21.73ZM408,204.46c0-.2-.07-.4-.1-.6l-.15-1.55a40.71,40.71,0,0,0,9.45-6.45q7.1-6,9-7.35a4.13,4.13,0,0,0,1.2-1,3.15,3.15,0,0,0,.5-1.35c.07-1-.5-1.66-1.7-2a.16.16,0,0,0-.1-.05,1.82,1.82,0,0,1,.2-.25c.47-.9,1.2-.6,2.2.9a10.66,10.66,0,0,1,1.8,4.25.36.36,0,0,0,.15.1q-.65,5.25-5.05,11.4A142.54,142.54,0,0,1,413.55,214l-1.15-.2q-1.45-2.9-2.95-6.05Zm.38,119.13c0-.26,0-.52,0-.78a7,7,0,0,0,1.7-.6,60.34,60.34,0,0,0,22.55-16.95c1.75.17,3.37.38,4.85.65l29.5,5.15q6,1.11,5.45,2.65t-7.35,2.85l-33.3,5.85a90.69,90.69,0,0,1-15.9,1.3Q411.84,323.78,408.38,323.59ZM182.65,31l-19.25,3.4v5.25l19.25-3.4Zm10,4.1,19.25-3.4V26.41l-19.25,3.4Zm32.25-6.2,19.25-3.4V20.21l-19.25,3.4Zm-19.67,95.45q-.16.3-.3.6l0-.2v0l0-.4Zm-47,26.9.85,1a16.17,16.17,0,0,1,3.35,10.3v.25A22.23,22.23,0,0,1,144,183.81a15.52,15.52,0,0,1-13.05-3.4l-2.85,3.33-.25-.23q-6.64-5.79-6.65-15.25a25.26,25.26,0,0,1,6.65-17,26.09,26.09,0,0,1,10.1-7.4l1.1,3.85a19.35,19.35,0,0,1,5.45-1.42v0q.85-.09,1.68-.12l1.69.05a17.81,17.81,0,0,1,2.38.37c.48.11.94.24,1.4.38l1.33.5,2.25,1.2a18.15,18.15,0,0,1,2.07,1.62C157.63,150.57,158,150.89,158.25,151.21Zm12.9,10v-.15a24.28,24.28,0,0,0-3.13-12.3l-.84-1.37c-.29-.45-.6-.89-.93-1.33a23.29,23.29,0,0,0-18.88-8.92,27.75,27.75,0,0,0-10.67,2.27l.63,2.2a29,29,0,0,0-11.18,8.2,27.76,27.76,0,0,0-7.3,18.75q0,10.41,7.3,16.8l.3.25-1.65,2q8.05,6.75,19.2,5.1A30.49,30.49,0,0,0,163.05,182a30.85,30.85,0,0,0,8.1-20.35Zm-13.25,7v-2.9l-3.4.55v3Zm0-6.25v-3.55l-12.65,2.35v3.5Zm15.8,79.2c-.46-.32-1.45-1.08-2.95-2.3a13.08,13.08,0,0,0-4.42-2.22c0-.36.09-.72.12-1.08.1-1.1.15-2.18.15-3.25a10.65,10.65,0,0,0-.15-1.42,11.48,11.48,0,0,1,3.2,1.47,12.79,12.79,0,0,1,2.85,2.45,2.21,2.21,0,0,0,.25.3,11.19,11.19,0,0,1,1.5,2.7h.05v.1a0,0,0,0,1,0,.05v0a0,0,0,0,1,.05.05l.3,1A14,14,0,0,1,173.7,241.16Zm39.85,23.35a6.06,6.06,0,0,0-2.3.15l-7.6,1.3q-.92-1.65-2-3.42,2.76-.53,5.7-1,3.71-.63,7.55-1.22l-1.3,3.57ZM206,270.34c0-.07-.07-.14-.11-.2l2.43-.43h.3l3.15.6-2.65.45h-.45Zm6.32.07h.45l15.1,2.65-2.65.5h-.4L209.6,271v0Zm-6.93-1.25h0l2.3.45-1.93.33C205.64,269.68,205.51,269.42,205.37,269.16Zm-.64-1.25,3.47.6.25.15-2.25.4h-.4l-.53-.1Zm1-.9,4.3.8-2.3.4h-.4l-2.73-.47c-.11-.23-.24-.45-.37-.68l.7-.15h.35ZM183,267c.83.72,1.63,1.43,2.4,2.12l-8.25,1.43c0-.4-.07-.76-.1-1.08,0-.15,0-.3-.05-.45Q179.67,268,183,267Zm26-.68.1-.1,2.05-.35.9.05,1.8.3.1.1-2.3.4h-.4Zm7-.3-1.15.2h-.35l-2.35-.4v-.05l1-.25h.4l2.3.4Zm3.3.55-1.15.2h-.3l-2.45-.4.1-.1.5-.1.55-.05.1-.05h.2l.05.05h0Zm.05.2.55-.1h.3l2.45.45-.1.05-1,.2h-.3l-2.5-.45v-.05Zm1.6.75h.35l2.3.45V268l-2.3.35h-.35L218.5,268V268Zm5.05.2-1.15.2h-.4l-2.35-.45.55-.1.6-.1h.3Zm0,.2.45-.1h.45l2.35.5-1.15.15-.1.05h-.2v-.05h-.1l-2.3-.35,0-.05Zm-3.75,3,2.05.35.2.1-2.25.4h-.35l-2.3-.4,2.3-.45Zm-1.6-1.35,2.3.45-2.7.4-2.3-.4,2.3-.45Zm10.25-.45,2.3.5h-.1l-2.3.4h-.4l-2.2-.4v-.05h0l2.25-.45Zm1.65-.3-1.15.2h-.3l-2.4-.4.6-.2.5-.1h.4Zm.1.2.55-.1,2.7.5-1.15.2h-.3l-2.4-.4.05-.1Zm-4.2.85-2.3.4h-.3l-2.4-.4,2.35-.45h.4l2,.35.15.05Zm-1.45.8H227l2.3.45-2.35.4h-.35l-2.3-.4,2.3-.45h.05l0,0H227Zm.75,1.25-2.35.45h-.3L222.7,272l2.35-.45h.3l2.15.35Zm.8.1v.05h.1l2.25.3.05.15-2.3.35h-.3l-2.35-.35,2.35-.45.1-.05ZM239.2,270l-.1.05-1.1.15h-.45l-2.25-.4.6-.2.85-.05Zm-2.25.3h.3l2.25.35.1,0v.05l-2.3.4h-.45l-2.25-.4.1-.1Zm5.55.3-1.1.2H241l-2.35-.45.6-.15.55-.1h.3Zm3.35.6-1.2.2h-.3l-2.3-.45H242l.6-.15.5-.1h.4Zm3.3.55L248,272h-.3l-2.45-.4v-.05l.1-.05.55,0,.5-.1h0v-.05h.25l.05.05h.05Zm-8,2.5h.15l.05.05,6.4,1.15-2.35.4h-.3l-6.35-1.1,2.3-.45h.05Zm2.35.2,2.35-.45h.3l4.75.9-2.3.4h-.4l-4.7-.8Zm8.95-2.15-.05.05-1.15.2H251l-2.4-.45v-.05h.1l.5-.1.55-.1h.3Zm3.3.6-1.1.2h-.4l-2.4-.4v0l.65-.1.55-.15h.3Zm3.35.6-1.1.15H258l-.05,0h-.2l-.05,0h-.05l-2.3-.35-.1-.05.6-.15.55-.1h.3l2.35.4Zm-16,2.75-1.15.25h-.3l-2.45-.45V276l.1-.05,1-.15h.45l.8.1ZM211,267.91l2.25.45-2.5.45,0-.05h-.05l-2.3-.4,2.25-.45Zm-5.15-1.05,2.3-.5h.35l.4.1,3.2.55.35.1h-.07l-2.28.4h-.3Zm4.85.8,0-.05,2.23-.4h.32l2.05.35.3.15-2.3.4h-.4Zm1.4-.85h.1l2.25-.4h.35l2.25.45-2.25.4h-.35l-2.35-.4Zm.35,2.45,2.5.45-2.3.45h-.45l-2.25-.4,2.35-.5Zm1.45-1,2.25-.45h.4l2,.35.3.1h-.1l-2.1.35h-.2l-.05.05h-.1l-.05-.05H216l-2.1-.35Zm-2.35.65,2.25-.45h.4l2.3.45h-.1l-2.1.4h-.45Zm.15.25-2.3.45H209l-2.3-.45,2.3-.45h.35Zm7.75-.85h.2l.05.05h.1l1.95.35.3.1h-.1l-2.25.35h-.05l0,0h-.1l0,0h-.05l-2.2-.35H217v-.1l2.3-.35h0Zm3.2.55h.25l.05.05,2,.35.3.1-2.3.4h-.35l-2.35-.4,2.35-.45Zm-.85-.3,2.25-.5h.45l2.25.5-2.35.35h-.3ZM217.8,267l2.5.45-2.35.4h-.3l-2.3-.4,2.3-.45Zm-.45,2.05,2.3.5h-.1l-2.25.4-2.6-.4L217,269Zm.7,1.3-2.25.4h-.4l-2.3-.4,2.45-.45h.1l2.2.35Zm.6.95-2.3-.4,2.3-.45h.3l2.15.35.2.1-2.35.4Zm4.7-1.1h.45l2.25.45H226l-2.1.35a.86.86,0,0,1-.6,0l-2.1-.35h-.1Zm6.55-1.05h-.05l-2.25.4h-.45l-2.1-.4H225l2.25-.5h.4Zm-4.2,4.6h0l2.95-.55,3.15.55h.05l0,.05-3,.5ZM229,270h.4l2,.35.2.08.1,0-.1.05-2.1.35H229l-2.35-.4Zm4.9-.3h.1v.05h.1l2.25.45-2.25.4h-.35l-2.35-.4v0h.1l2.25-.4h.1Zm-.7,1.9-.05-.05,2.25-.45h.4l2,.35.25.08.05,0-.1.05-2.2.35h-.45Zm-1-1.05h.4l2,.35.25.1-.1.05-2.1.35h-.6l-2.1-.35,0-.05Zm1.25,1.25,2.3.45,0,.05-2.3.35h-.3l-2.3-.4,2.25-.45Zm-3.55.3-2.35-.4,2.3-.45h.4l2.3.45-2.35.4Zm-.1,2.25,2.6-.45h.35l2.25.45-2.6.45h-.45l-2.25-.4Zm1.75-.85-2.3-.4,2.3-.5h.15l2.25.4.2.1-2.3.4Zm2.55-.65-.1-.05,2.25-.45h.45l2.25.5-2.3.35h-.35Zm1,1.95,1.7.25.1.1-1.15.2h-.3l-2.5-.4,1.15-.25h.45Zm1.8.5.4-.05h.4l.35-.15h.05l.7-.1h.05l0-.05h.25l.05.05,2.35.45-1.15.2h-.3l-1.15.25h-.4l-2.4-.4Zm2.1-3.65,1.73.35.57.1-.1.05-2.1.4h-.6l-2.1-.4,0-.05,2.25-.45Zm-4.1,1.55,2.25.35.25.1-2.35.4h-.3l-2.35-.4,2.35-.45Zm3.05,1.4-2.3-.4,2.3-.45h.45l2,.35.15.1-2.25.4Zm4.9-3.3-2.35.45h-.3l-2.35-.45,2.35-.45h.3l2.25.4Zm-.75.9.1.05,2,.35.25.1-2.3.4h-.3l-2.4-.45.05-.05,2.3-.35h0v-.05Zm1.3.1-2.3-.45,2.3-.45h.3l2.35.45-2.35.45Zm-3.9,1.45-2.35-.4,2.35-.45h.4l2.3.45-.1.05-2.25.35Zm1,.2-.1,0,2.25-.45h.45l2.25.45-.05,0-2.1.4h-.6Zm6.45-2,2.3.45-2.3.45h-.35l-2.3-.45,2.3-.45Zm-1,1.85,2.25-.45h.4l2.05.35.2.05,0,.1-2.25.35h-.3l-2.25-.35Zm-.85-1.05h.2l0,.05h.05l2.3.4-.1.05-2.25.4H245l-2.3-.45,2.3-.4Zm2.35.15,2.3-.35h.4l2.3.45h-.15l-2.2.4h-.35l-2.3-.45Zm4.35,1,2.3.45-2.35.4h-.3l-2.3-.4,2.25-.45Zm1.5-.8,3.9.75-2.45.35h-.15l-3.85-.65,2.25-.45Zm141.8,13.45v-1.2h2.7q4.2,0,4.2-4.15v-7.85a4.06,4.06,0,0,0-1.27-3.32l12.62-2.23-46.05-8.1-32.8,5.8,39.5,6.95v13.7l-.85.15q-4.31.7-3.85,1.85c.23.74,1.92,1.4,5.05,2a71.8,71.8,0,0,0,11.2.85,55,55,0,0,0,10.5-.75c2.3-.36,3.58-.86,3.85-1.5a.51.51,0,0,0,0-.3Q399.51,287.35,395.1,286.56Zm0-4.75v-9h2.7c.4,0,.6.19.6.55v7.85a.53.53,0,0,1-.6.6Zm4.9-68.45-.05.1a4.82,4.82,0,0,1-.8-.05,18.11,18.11,0,0,1-1.2-2.85,10.23,10.23,0,0,1-.25-2.4,30.35,30.35,0,0,1,2.35-10.3,61.53,61.53,0,0,1,4.5-9.25l.18-.22.57-.08.05.2c-.27.4-.47.72-.6,1a12.43,12.43,0,0,0-1.75,6.3,15.68,15.68,0,0,0,1.8,7.45l.65.85-1-.15-.5,1.2Q400.5,212.46,400,213.36ZM37,67.76a88.59,88.59,0,0,0,14.85-2.7,44.25,44.25,0,0,0,0-11.15q-7.45.9-14.85,2.45A50.53,50.53,0,0,0,37,67.76Zm34.65,7L59.1,77v3.2L71.6,78Zm-6.15-25.4a67.3,67.3,0,0,0-.25,15.45l9.3-1.7a131.32,131.32,0,0,0,0-15.4Zm37.85-4.2a18.22,18.22,0,0,0-.1-1.9q-2.6.55-7.4,1.2c-1.77.3-3.4.64-4.9,1-.9.24-1.72.47-2.45.7a4.79,4.79,0,0,0-.25,1.55,25.67,25.67,0,0,0-.3,4c0,1.2.07,3,.2,5.4l5.35-.7-.45,3,5.4-1.1-.6-2.65,5.25-1.05A69.8,69.8,0,0,0,103.3,45.21ZM83.85,75.86v-3.2l-10,1.75v3.2ZM94.1,80.41h0a6.48,6.48,0,0,0,8,6.65V79h0v8a10.12,10.12,0,0,0,8-9.45v0a6.59,6.59,0,0,0-2.35-5.25,6.51,6.51,0,0,0-5.65-1.4v0a9.33,9.33,0,0,0-5.6,3.35A9.54,9.54,0,0,0,94.1,80.41Zm57.75-43.35-19.25,3.4v5.25l19.25-3.4ZM102.1,100.91a9.24,9.24,0,0,0-5.6,3.35,9.5,9.5,0,0,0-2.3,6.15,6.59,6.59,0,0,0,2.3,5.3l0,0A6.55,6.55,0,0,0,102.1,117a9.28,9.28,0,0,0,5.6-3.35l0,0a9.19,9.19,0,0,0,2.3-6,6.67,6.67,0,0,0-2.35-5.35,6.45,6.45,0,0,0-5.6-1.35ZM83.85,83.36,74.45,85v3.2l9.4-1.65Zm-8.3,11.45V98l8.15-1.4v-3.2ZM83.7,81.06V77.81l-12.25,2.1v3.25Zm0,17.45-12.65,2.2V104l12.65-2.2Zm.15-10.05L71.6,90.61v3.2l12.25-2.15Zm-.15,20.75-9.8,1.7v3.2l9.8-1.7Zm0-5.1-21.65,3.75v3.2l21.65-3.75Zm-7.9,14.1,8-1.4v-2.75l-8,1.4Zm-2.45,2.35v3.25L83.85,122v-3.25Zm-.1,5.6v3.2l10.35-1.8v-3.2Zm19.5,22.7v3.65l17.3-2.15v-3.65Zm17.3-15.6-18.2,3.2v4.95l18.2-3.2Zm-26.2-3.85-2.3.4v3.25l2.3-.4Zm-4.35.75-9.8,1.7v3.25l9.8-1.7Zm-3.8,26.05a22.45,22.45,0,0,0-12.6-3,16,16,0,0,0-3.35.4,29,29,0,0,0-10.5,4,33,33,0,0,0-8.7,7.9,39,39,0,0,0-2.7,4,29.53,29.53,0,0,0-2.35,4.95,28.73,28.73,0,0,0-1.8,9.65A23.22,23.22,0,0,0,35.5,194a19.57,19.57,0,0,0,5.6,7.9A18.43,18.43,0,0,0,48.85,206a22.34,22.34,0,0,0,9.1.85,29.51,29.51,0,0,0,11.4-3.8,34.33,34.33,0,0,0,9.6-8.35,31,31,0,0,0,6.25-13.15c.23-1.26.42-2.5.55-3.7a25,25,0,0,0-1.15-9.9,21.08,21.08,0,0,0-3.35-6.7A21.62,21.62,0,0,0,75.7,156.21Zm20,1.65,14.3-1.8v-3.65l-14.3,1.8Zm14.3,3.9v-3.65l-9.65,1.25V163Zm30.75-.25V165l2.65-.45V161Zm11.9,4.65-2.2.4v2.95l2.2-.35Zm-18.15,3.15v3.05l14.2-2.5c0-1.1,0-2.08-.1-3Zm-6.5-5.4v3.4l11-1.95v-3.5ZM70.5,83.31V80.06l-9.8,1.7V85Zm-.1,2.4L56.65,88.06v3.2L70.4,88.91Zm-13-.1V82.36l-7.9,1.35V87Zm-3,8-10.2,1.75v3.2l10.2-1.75Zm2.85,2.7,9.8-1.7v-3.2l-9.8,1.7ZM69.7,99v-3.2l-33.1,5.75v3.2ZM40.3,85.31,36.6,86v3.25l3.7-.65Zm7.6,2V84l-6.65,1.15v3.25Zm-3.25-4.6v-3.2l-8,1.4v3.2Zm4-3.9V82l8.3-1.4v-3.2Zm-12,21.1,5.45-1v-3.2l-5.45,1Zm0-5.1L46.7,93v-3.2L36.6,91.56Zm0,11.9v3.25L56,106.56v-3.25Zm4.9,9.85-4.9.85v3.2l4.9-.85Zm-4.75,5.7V125l11.7-2v-2.75Zm5.7-2.7,16.35-2.8v-3.2l-16.35,2.8Zm9.4,4.75L36.6,126.91v3.25l15.25-2.65Zm-15.25-8.8,16.2-2.8v-3.2l-16.2,2.8Zm35.25-4.2-11.55,2v3.2l11.55-2Zm-14.25,12v3.25l12.25-2.1v-3.25Zm-4-4v2.75l17.25-3v-2.75ZM58,103v3.25l11.55-2V101Zm7.6,29.6-12.25,2.15V138l12.25-2.15Zm2.2-5.45-15.65,2.7V133l15.65-2.7Zm-15.65,7.8-15.4,2.65v3.25l15.4-2.65Zm1,8.55L35,146.66v5l18.2-3.2Zm-16.4-11v3.2l12.65-2.2v-3.2Zm23,28.55,1.45-.3a23.36,23.36,0,0,1,5.3.3,16.72,16.72,0,0,1,4.8,2,14.69,14.69,0,0,1,5.7,6.5,17.1,17.1,0,0,1,1.4,9.2,7.48,7.48,0,0,1-.05.85,23.17,23.17,0,0,1-3.9,9.8,22.41,22.41,0,0,1-8.55,7.6,18.48,18.48,0,0,1-9.75,2.45,14.3,14.3,0,0,1-8.75-2.8,15.82,15.82,0,0,1-4-4.2,17.71,17.71,0,0,1-2.1-5.5,17.93,17.93,0,0,1,.65-9.6,19.31,19.31,0,0,1,1.6-4,20,20,0,0,1,3.5-5,26.57,26.57,0,0,1,5.85-4.75A20.67,20.67,0,0,1,59.75,161Zm50.3,31.8L91.85,196v5l18.2-3.2Zm265.5,125.5q4.53-2.46,7.55-3.95,2-.94,5.9-3a25.69,25.69,0,0,1,5.9-2.15,29.19,29.19,0,0,0-3.75,8.25,24.47,24.47,0,0,0-.72,3.48Z"></path><path class="cls-9" d="M43.15,394.81l-21-3.7,21-3.65,21.05,3.65Zm107.7-171.6c.37.84.82,1.82,1.35,2.95q3,6.45,1.6,9.9c-.1.24-.21.47-.32.7a15.26,15.26,0,0,1-3.73,5,31.84,31.84,0,0,1-5.4,3.4,32.16,32.16,0,0,0-5.25,3.5,16,16,0,0,0-4.25,6,20.08,20.08,0,0,0-.55,2.45,9.67,9.67,0,0,1,.3,3,10.85,10.85,0,0,1-.4,3.95c-.1.37-.57,1.62-1.4,3.75a24.35,24.35,0,0,1-2.72,4.75c-.31.39-.62.75-.93,1.1q-6.45,7.41-16.65,3.2-10.55-4.29-11.4-13.55a16.57,16.57,0,0,1,0-3.15,23.91,23.91,0,0,1,5.85-4.75,24.84,24.84,0,0,0,4.5-2.8,12.38,12.38,0,0,0,3.3-3.7A32.91,32.91,0,0,0,117,240a10.69,10.69,0,0,1,5.4-8.5,15.35,15.35,0,0,1,9.9-2.15q5.25.66,7.85.7a11,11,0,0,0,8.8-4.9A8.38,8.38,0,0,1,150.85,223.21Zm131.53,11.28,2.22-6.18.1-.65-.05-.6-.1-.3-.25-.45-.15-.2-.9-.5-8.6-1.47a19.69,19.69,0,0,0,1.1-5.23q0-.75.5-6t.45-6a53.57,53.57,0,0,0-2.25-14.7c0-.11-.07-.23-.1-.35a130.46,130.46,0,0,0-5.8-15.15q-2.3-5.15-2.05-15.05.25-10.69-1.2-15.2a77.19,77.19,0,0,0-4.3-12.9,40.7,40.7,0,0,0,4.25,2.8c.87.54,1.72,1,2.55,1.45q7,3.75,11.15,3.75h.3l.1,0,7.55,1.32,3,.55.55-1.9.8-4.85c.33-.43.63-.85.9-1.25s.45-.71.65-1.05a7.62,7.62,0,0,0,.9-3.4,6.08,6.08,0,0,0-.4-1.95q10.6,13.26,10.9,33.65v.3a7.44,7.44,0,0,1,.1,1c0,.47.1,1.4.2,2.8s.22,3.15.45,5.25l-.05,0v2.45q0,3.56.15,6.9c.1,3.9.27,7.54.5,10.9a165.53,165.53,0,0,0,2.35,18.25c.1.6.22,1.22.35,1.85q2.1,12.1,1.1,15a7.09,7.09,0,0,1-3,3.95c-.24.18-.47.35-.7.5a31.48,31.48,0,0,1-4.5,2.85c-.53.27-1.07.52-1.6.75s-.85.31-1.28.43a11.81,11.81,0,0,1-3.07.42l-1.82-.22-4.38-.53C286.77,235.2,284.56,234.87,282.38,234.49ZM435.85,394.91l10.7,1.95-14.45,2.4-14.6-2.55,14.55-2.5Zm47.45-24.85-14.4,2.55-14.13-2.42-.47-.13,14.6-2.5ZM155.23,148.64l-2.25-1.2-1.33-.5c-.46-.14-.92-.27-1.4-.38a17.81,17.81,0,0,0-2.38-.37l-1.69-.05a15.77,15.77,0,0,0-1.68.1,19.35,19.35,0,0,0-5.45,1.42l-1.1-3.85-.62-2.15-.63-2.2a27.75,27.75,0,0,1,10.67-2.27,25.14,25.14,0,0,1,5.78.67,23.3,23.3,0,0,1,7.45,3.08,22.48,22.48,0,0,1,5.65,5.17c.33.44.64.88.93,1.33l.84,1.37a24.28,24.28,0,0,1,3.13,12.3v.15l-8.7,1.25a16.17,16.17,0,0,0-3.35-10.3l-.85-1A14.15,14.15,0,0,0,155.23,148.64Zm32.32,52.87c-.52,0-1,.08-1.55.13-1.18.12-2.37.29-3.55.52a19.62,19.62,0,0,0-10.3,5.45,18,18,0,0,1-3.6,2.9A18.22,18.22,0,0,1,162.1,213q-2.5.51-6.55-1.05l-2.4-1-3.1-1.35c0-.33.07-.7.1-1.1a19.13,19.13,0,0,1,3-7.7,12.15,12.15,0,0,1,5.7-4.75,65.33,65.33,0,0,1,8.5-2.55,26.92,26.92,0,0,1,8.3.6,22.21,22.21,0,0,1,7.75,3.35A20.66,20.66,0,0,1,187.55,201.51ZM395.1,267c-.17.44-1.05.79-2.65,1.05a37.17,37.17,0,0,1-7.25.5,50.73,50.73,0,0,1-7.7-.6c-2.17-.4-3.33-.85-3.5-1.35s.68-1,2.65-1.3a38.34,38.34,0,0,1,7.25-.5,46.89,46.89,0,0,1,7.65.65c2.2.37,3.38.82,3.55,1.35A.23.23,0,0,1,395.1,267Zm-14.4.35a25.46,25.46,0,0,0,4.15.3,22.47,22.47,0,0,0,4-.2c1-.2,1.52-.43,1.45-.7s-.78-.56-1.95-.8a25.46,25.46,0,0,0-4.15-.3,20.25,20.25,0,0,0-4,.25c-1,.17-1.52.4-1.45.7S379.53,267.13,380.7,267.36ZM71.3,163a60.55,60.55,0,0,1,4.4-6.75,21.62,21.62,0,0,1,5.55,5,21.08,21.08,0,0,1,3.35,6.7,25,25,0,0,1,1.15,9.9c-.13,1.2-.32,2.44-.55,3.7A31,31,0,0,1,79,194.66a34.33,34.33,0,0,1-9.6,8.35,29.51,29.51,0,0,1-11.4,3.8,22.34,22.34,0,0,1-9.1-.85,18.43,18.43,0,0,1-7.75-4.05,19.57,19.57,0,0,1-5.6-7.9,23.22,23.22,0,0,1-1.8-9.85,28.73,28.73,0,0,1,1.8-9.65,29.53,29.53,0,0,1,2.35-4.95l5.7,3.7a19.31,19.31,0,0,0-1.6,4,17.93,17.93,0,0,0-.65,9.6,17.71,17.71,0,0,0,2.1,5.5,15.82,15.82,0,0,0,4,4.2,14.3,14.3,0,0,0,8.75,2.8,18.48,18.48,0,0,0,9.75-2.45,22.41,22.41,0,0,0,8.55-7.6,23.17,23.17,0,0,0,3.9-9.8,7.48,7.48,0,0,0,.05-.85,17.1,17.1,0,0,0-1.4-9.2A14.69,14.69,0,0,0,71.3,163Z"></path><path class="cls-10" d="M171.4,72.26a52,52,0,0,1,9.1-12.55v54.5l-29.15,5.15V92Q163.16,87.81,171.4,72.26Zm-44.95,113.4,1.65-1.92,2.85-3.33a15.52,15.52,0,0,0,13.05,3.4,22.23,22.23,0,0,0,18.45-21.05v-.25l8.7-1.25v.4a30.85,30.85,0,0,1-8.1,20.35A30.49,30.49,0,0,1,144,192.71q-11.15,1.65-19.2-5.1Zm31.8-34.45c-.3-.32-.62-.64-.95-1a18.15,18.15,0,0,0-2.07-1.62A14.15,14.15,0,0,1,158.25,151.21Zm-10.88-14a22.43,22.43,0,0,1,13.23,3.75,23.3,23.3,0,0,0-7.45-3.08A25.14,25.14,0,0,0,147.37,137.19Zm-1.19,8.95q-.83,0-1.68.12v0A15.77,15.77,0,0,1,146.18,146.14ZM110.05,77.61l-8,1.4V71h0v0a6.51,6.51,0,0,1,5.65,1.4,6.59,6.59,0,0,1,2.35,5.25Zm-13.5,38.05,5.6-6.65v-.1l5.6,4.7,0,0a9.28,9.28,0,0,1-5.6,3.35A6.55,6.55,0,0,1,96.55,115.66Zm13.5,17.6v5l-18.2,3.2v-4.95Zm-50.3,20.35V161a20.67,20.67,0,0,0-6.85,2.5,26.57,26.57,0,0,0-5.85,4.75,20,20,0,0,0-3.5,5l-5.7-3.7a39,39,0,0,1,2.7-4,33,33,0,0,1,8.7-7.9A29,29,0,0,1,59.75,153.61Z"></path><path class="cls-11" d="M483.3,376.56V373l3.9-.7,14.5,2.6-14.45,2.4Zm-270-326.25a113.11,113.11,0,0,1,9.7,8.1,74,74,0,0,0,19.4,12.75v32.15l-29.1,5.1Zm-86.9,135.35-.3-.25q-7.31-6.39-7.3-16.8a27.76,27.76,0,0,1,7.3-18.75,29,29,0,0,1,11.18-8.2l.62,2.15a26.09,26.09,0,0,0-10.1,7.4,25.26,25.26,0,0,0-6.65,17q0,9.45,6.65,15.25l.25.23Zm50.05,77.5q.09,2.4.45,5.85c0,.15,0,.3.05.45,0,.32.06.68.1,1.08,0,.24.06.49.1.75.05.47.11,1,.17,1.55.1.86.2,1.82.33,2.87l0,.3a8.77,8.77,0,0,1-3.43,7.9,10.48,10.48,0,0,1-4.55,2.28,10.37,10.37,0,0,1-4.15,0,10.36,10.36,0,0,1-1,1.45,34.22,34.22,0,0,1-2.55,2.85q-3,3.26-4.05,4.5-4,5.4,1.3,9.25a72.89,72.89,0,0,1-8.7,5.85q-1.65-4.55-3.3-10.6,0-8.94,9.9-18.55,2.36-2.19,6.9-5.9,3.1-2.55,3.1-3.1,0-1.7-2.5-5.35a14,14,0,0,1-2.45-7.85q0-8.64,3.35-12.65,2.51-2.94,8.1-4.9l-1.9,2a.48.48,0,0,1-.2.2.32.32,0,0,0-.15.2l-3.5,4.75-.1.1s0,0,0,0a12.92,12.92,0,0,0-1.4,8.65q.9,4.2,3.85,5.6A10.79,10.79,0,0,0,176.5,263.16Zm-100.8-107A60.55,60.55,0,0,0,71.3,163a16.72,16.72,0,0,0-4.8-2,23.36,23.36,0,0,0-5.3-.3c0-.33.1-1.53.2-3.6.1-1.53.22-2.75.35-3.65l1.35-.25A22.45,22.45,0,0,1,75.7,156.21Zm323.4,260.9,14.55-2.65,3.85.7,10.65,1.95-14.55,2.4Z"></path><path class="cls-12" d="M520.05,382.26l-14.4,2.55-3.95-.65v-3.65l3.85-.65ZM63.1,153.21l-1.35.25c-.13.9-.25,2.12-.35,3.65-.1,2.07-.17,3.27-.2,3.6l-1.45.3v-7.4A16,16,0,0,1,63.1,153.21Z"></path><path class="cls-13" d="M468.9,372.61l14.4-2.55v63.55l-14.4,2.55Zm-36.8,70V399.26l14.45-2.4v43.2Zm-389-47.8,21.05-3.7v21.35l-21.05,3.7Zm112.43-173.2a9.44,9.44,0,0,1,4.37.8,12.38,12.38,0,0,1,6,6.48c.12.34.23.69.32,1.05s.13.62.18.95a10.65,10.65,0,0,1,.15,1.42c0,1.07,0,2.15-.15,3.25a8.21,8.21,0,0,1-.3,1,7.64,7.64,0,0,1-4.45,4.62q-3.8,1.56-9.45,8.45t-6.65,9.6a32.84,32.84,0,0,0-.7,5.15,26.48,26.48,0,0,1-1.5,7.3A22.52,22.52,0,0,1,133.15,283a24.78,24.78,0,0,1-5.92,2.43q-10.11,2.7-23.33-2.73a18,18,0,0,1-7.4-5.35c-.57-.7-1.1-1.33-1.6-1.9a16.74,16.74,0,0,1,1.2-8,42.71,42.71,0,0,1,5-7.3,16.57,16.57,0,0,0,0,3.15q.86,9.25,11.4,13.55,10.2,4.2,16.65-3.2c.31-.35.62-.71.93-1.1a24.35,24.35,0,0,0,2.72-4.75c.83-2.13,1.3-3.38,1.4-3.75a10.85,10.85,0,0,0,.4-3.95,9.67,9.67,0,0,0-.3-3,20.08,20.08,0,0,1,.55-2.45,16,16,0,0,1,4.25-6,32.16,32.16,0,0,1,5.25-3.5,31.84,31.84,0,0,0,5.4-3.4,15.26,15.26,0,0,0,3.73-5c.11-.23.22-.46.32-.7q1.39-3.45-1.6-9.9c-.53-1.13-1-2.11-1.35-2.95a7.73,7.73,0,0,1,1.88-1.05,8.11,8.11,0,0,1,1.87-.45C154.93,221.67,155.26,221.63,155.58,221.61Zm31-13.45a11.83,11.83,0,0,0-1.32.08c-.36,0-.72.1-1.08.17a22.87,22.87,0,0,0-9.4,4.75,21.84,21.84,0,0,1-9.2,4.65,19.33,19.33,0,0,1-7.65-.4c-1.77-.49-3.28-.9-4.53-1.22s-2.2-.6-2.92-.78c-.16-.82-.27-1.62-.35-2.4a21.67,21.67,0,0,1,0-3.5l3.1,1.35,2.4,1q4,1.56,6.55,1.05a18.22,18.22,0,0,0,6.45-2.45,18,18,0,0,0,3.6-2.9,19.62,19.62,0,0,1,10.3-5.45c1.18-.23,2.37-.4,3.55-.52.52,0,1-.1,1.55-.13A23.9,23.9,0,0,1,189,204a3,3,0,0,1,.15,2.13,3.18,3.18,0,0,1-.8,1.17l-.48-.67-.37-.53-.75,1.55C186.68,207.83,186.62,208,186.55,208.16ZM400.73,270a4.06,4.06,0,0,1,1.27,3.32v7.85q0,4.16-4.2,4.15h-2.7v-3.55h2.7a.53.53,0,0,0,.6-.6v-7.85c0-.36-.2-.55-.6-.55h-2.7v-3.6h2.7A4.64,4.64,0,0,1,400.73,270ZM83.85,75.86l-10,1.75v-3.2l10-1.75ZM120.4,95.31q6-4.89,11.55-3.35,9.56,2.81,17.55.6v27.1l-29.1,5.15Zm-36.7,8.8v3.2l-21.65,3.75v-3.2Zm-4.2,26.05v3.25l-9.8,1.7v-3.25ZM70.4,85.71v3.2L56.65,91.26v-3.2ZM69.7,99l-33.1,5.75v-3.2l33.1-5.75ZM36.75,132.46l12.65-2.2v3.2l-12.65,2.2Zm73.3,60.35v4.95L91.85,201v-5ZM366.7,406.11a4.55,4.55,0,0,0,.4-.45l3.15-2.7a16.92,16.92,0,0,0,2.7-2.9,34,34,0,0,1,2.53-3.57c.69-.89,1.46-1.81,2.32-2.78a11.46,11.46,0,0,1,1-2.4,9.87,9.87,0,0,1,2-3.95l-.05.45a44,44,0,0,1,5.4.55l.5.1c.8,0,1.58,0,2.35,0a46.16,46.16,0,0,1-2.25,6.2c-.56,1.27-1,2.37-1.4,3.3a28.63,28.63,0,0,0-1.15,3.15,9.77,9.77,0,0,1-.55,1.6,10.89,10.89,0,0,1-3.65,4,13,13,0,0,1-7.45,2.35,11.46,11.46,0,0,1-4-.5A2.83,2.83,0,0,1,366.7,406.11Zm-34.5-12.05c.33-.28.68-.55,1.05-.82a21.3,21.3,0,0,1,3.45-1.93q1.85-.84,5.6-2.45a16.28,16.28,0,0,0,4.7-3.25,24.75,24.75,0,0,1,3.9-4.35,3,3,0,0,1,.7-1,1.24,1.24,0,0,1,1.1-.4l1.4-2.3a9.12,9.12,0,0,0,.95-2.55,28.61,28.61,0,0,1,.25,2.9l3.4,1.7a3.33,3.33,0,0,1-.25.5,24.74,24.74,0,0,1-6.05,8,6.36,6.36,0,0,1-.85.8,27.22,27.22,0,0,1-7.28,4.8,17.76,17.76,0,0,1-7.17,1.55,11.35,11.35,0,0,1-4.7-1.1Zm-134.95,18q-1.25-3.45,1.45-7t6.25-2.3a16.8,16.8,0,0,1,2.82,2.35,34.49,34.49,0,0,1,4.78,6.25q4.69,7.61,6.6,9.6a35.12,35.12,0,0,0,5.3,2.4c1.13.44,3,1.09,5.5,1.95,1.3.54,1.73,1.59,1.3,3.15a3.09,3.09,0,0,1-2.7,2.55,25.25,25.25,0,0,0-3.4.05,21.39,21.39,0,0,1-3.65.15q-4.09-.15-5.1-3.4a36.9,36.9,0,0,0-4.8-7.82.35.35,0,0,0,0-.08,25.28,25.28,0,0,0-2.6-2.75,19.07,19.07,0,0,0-7.72-4.45A18.69,18.69,0,0,0,197.25,412.06Z"></path><path class="cls-14" d="M186.55,113.14a8.52,8.52,0,0,0-1.3,2.12l-65.8,11.6a.69.69,0,0,1-.65-.1.79.79,0,0,1-.3-.65V49.86a1.16,1.16,0,0,1,.3-.75,1.22,1.22,0,0,1,.65-.4.94.94,0,0,1,.65.15.82.82,0,0,1,.3.65v43.6q6.3-4.74,12.35-3,9.15,2.7,16.75.55V44.36a1.16,1.16,0,0,1,.3-.75,1,1,0,0,1,.6-.35,1,1,0,0,1,.7.15.88.88,0,0,1,.25.65V90q10.8-4,18.4-18.4A53.08,53.08,0,0,1,180.5,57.26V38.91a1.27,1.27,0,0,1,.25-.75,1.2,1.2,0,0,1,.7-.35.79.79,0,0,1,.65.1.82.82,0,0,1,.3.65v17a38.86,38.86,0,0,1,24.65-8.8,16.51,16.51,0,0,1,4.45.5V33.46a1.27,1.27,0,0,1,.25-.75,1.22,1.22,0,0,1,.65-.4.86.86,0,0,1,.65.15.82.82,0,0,1,.3.65v14.8q2.6,1.31,11.05,8.9a73.41,73.41,0,0,0,18,12.15V28a1.35,1.35,0,0,1,.3-.8,1.2,1.2,0,0,1,.65-.35.86.86,0,0,1,.65.15.82.82,0,0,1,.3.65v76.25a1.12,1.12,0,0,1-.3.75,1,1,0,0,1-.65.35l-32.22,5.7c-.11-.61-.22-1.21-.35-1.82l.67-.13V49.41a14.72,14.72,0,0,0-4.7-.65,37,37,0,0,0-24.4,9.15v56ZM171.4,72.26Q163.15,87.82,151.35,92v27.35l29.15-5.15V59.71A52,52,0,0,0,171.4,72.26Zm41.95-22v58.1l29.1-5.1V71.16a74,74,0,0,1-19.4-12.75A113.11,113.11,0,0,0,213.35,50.31Zm50.55,70q-3.3-1.29.05-2.15Zm20.9,4.5a5.64,5.64,0,0,0,2.08-.32,6.18,6.18,0,0,1,.47,2.17,16.1,16.1,0,0,1-2.25-1.55A2.83,2.83,0,0,1,284.8,124.76Zm2.1,18.15-7.55-1.32-.1,0,.1,0q2.32-.45,3.8-6.28c0-.07,0-.15.05-.22.14-.65.26-1.26.35-1.83a2.2,2.2,0,0,0,.4,1.1A19.41,19.41,0,0,0,285.3,136c.63.77,1.12,2.64,1.45,5.6Zm4.35-6.2-.8,4.85-2.45-5.7q-.5-1.29-.75-2.1v-.65Q289.46,135.27,291.25,136.71ZM157.9,162l-12.65,2.3v-3.5l12.65-2.35Zm0,6.25-3.4.65v-3l3.4-.55ZM192,275.44q1.72,1.72,3.13,3.27l.18.35L177.73,276l0-.3c-.13-1-.23-2-.33-2.87l.28.12Zm16,2.77,21.4,3.7.7-.05,33.5-5.87,8.75,1.52L229.5,285l-23.13-4a5.6,5.6,0,0,0,.78-.9A5.89,5.89,0,0,0,208.05,278.21Zm44.45-5.9.05.25-.65.1v0l2.4.4h.4l1.1-.2,0,.2-.6.15.1.05,2.3.35h.05l.05,0h.2l.05,0h.05l1.1-.15v.5l-1.1.15H258l-.05,0h-.2l-.05,0h-.05l-.4-.05v.15l-2.5.45h-.15l-.45,0v.15l-.15.1-2.25.35h-.3l-.5-.05v.2l-2.3.4h-.4l-.45-.1V276l-2.4.4h-.2l-3.6-.6v.15l-.8-.1h-.45l-1,.15-.1.05v.05l2.45.45h.3l1.15-.25h0v.45L242,277h-.3l-2.45-.45v-.15l-.35.05h-.4l-2.4-.4v-.2l-.4.05h-.3l-2.5-.45v-.2l-.55.1h-.45l-2.25-.4v-.25l-.8.1-3.15-.55h-.1V274l-.4.05-.1.05h-.3l-15.15-2.65-.05-.35-.6.15-2.85-.5c-.06-.12-.12-.25-.17-.37l2.67.42h.45l2.65-.45-3.15-.6h-.3l-2.43.43a1.24,1.24,0,0,0-.1-.2l1.93-.33-2.3-.45h0l-.1-.2.53.1h.4l2.25-.4-.25-.15-3.47-.6c0-.05-.07-.11-.11-.17l2.73.47h.4l2.3-.4-4.3-.8.05-.15,3.95.65h.3l2.28-.4h.07l-.35-.1-3.2-.55.05-.15,2.25.4h.4l2.3-.4-.1-.1-1.8-.3.1-.15v.05l2.35.4h.35l1.15-.2v.15l-.5.1-.1.1,2.45.4h.3l1.15-.2.05.2-.65.1v.05l2.5.45h.3l1-.2.1-.05v.25l-.55.1,2.35.45h.4l1.15-.2,0,.2-.65.15,0,.05,2.3.35h.1v.05h.2l.1-.05,1.15-.15.05.15-.6.2,2.4.4h.3l1.15-.2h.05l0,.2-.55.1-.05.1,2.4.4h.3l1.15-.2.05.15-.6.2,2.25.4H238l1.1-.15.1-.05.05.2-.6.15,2.35.45h.4l1.1-.2.05.2-.6.15h.1l2.3.45h.3l1.2-.2.05.2-.55,0-.1.05v.05l2.45.4h.3l1.15-.2,0,.2-.5.1h-.1v.05l2.4.45h.3l1.15-.2Zm-40.2-1.9-2.7.5v0l15.2,2.6h.4l2.65-.5-15.1-2.65Zm8.55-2.9-2.35.45V268l2.35.35h.35l2.3-.35V268l-2.3-.45Zm10,1.65h-.4l-2.25.45h0v.05l2.2.4h.4l2.3-.4h.1Zm-10.25.45h-.4l-2.3.45,2.3.4,2.7-.4Zm1.6,1.35h-.35l-2.3.45,2.3.4h.35l2.25-.4-.2-.1Zm6.3,1.1h-.1l-.1.05-2.35.45,2.35.35h.3l2.3-.35-.05-.15-2.25-.3h-.1Zm-.8-.1-.2-.1-2.15-.35h-.3l-2.35.45,2.35.45h.3Zm-.75-1.25v0h-.25l0,0h-.05l-2.3.45,2.3.4H227l2.35-.4-2.3-.45Zm1.45-.8-.1-.05-.15-.05-2-.35h-.4l-2.35.45,2.4.4h.3Zm8.55.4-2.25.35-.1.1,2.25.4h.45l2.3-.4v-.05l-.1,0-2.25-.35Zm6.6,4.15v.05l4.7.8h.4l2.3-.4-4.75-.9h-.3Zm-2.35-.2,0,.05h-.05l-2.3.45,6.35,1.1h.3l2.35-.4-6.4-1.15-.05-.05ZM211,267.91h-.4l-2.25.45,2.3.4h.05l0,.05,2.5-.45Zm-.3-.25,2.25.45h.4l2.3-.4-.3-.15-2.05-.35h-.32l-2.23.4Zm.85,1.25,2.3.4h.45l2.1-.4h.1l-2.3-.45h-.4Zm2.35-.65h.05l2.1.35h.2l.05.05h.1l.05-.05h.2l2.1-.35h.1l-.3-.1-2-.35h-.4Zm-1.45,1h-.15l-2.35.5,2.25.4h.45l2.3-.45Zm-.35-2.45v.05l2.35.4h.35l2.25-.4-2.25-.45h-.35l-2.25.4Zm-.4,2.35-2.3-.45H209l-2.3.45,2.3.45h.35Zm8.75-3.5,39.45,6.85-1.55.25h-.1l-39.3-6.85h0l.35-.1v-.15l.1-.1h0Zm-1,2.65-.05.05h0l-2.3.35v.1h.15l2.2.35h.05l0,0h.1l0,0h.05l2.25-.35h.1l-.3-.1-1.95-.35h-.1l-.05-.05Zm2.35.25,2.3.35h.3l2.35-.35-2.25-.5H224Zm.85.3,0,.05-2.35.45,2.35.4h.35l2.3-.4-.3-.1-2-.35-.05-.05Zm-3.95,2.4h.3l2.35-.4-.2-.1-2.15-.35h-.3l-2.3.45Zm-.6-.95-.2-.1-2.2-.35h-.1l-2.45.45,2.3.4h.4Zm-.7-1.3H217l-2.25.5,2.6.4,2.25-.4h.1Zm.45-2.05h-.15l-2.3.45,2.3.4h.3l2.35-.4Zm5.55,3.2-2.25.45h.1l2.1.35a.86.86,0,0,0,.6,0l2.1-.35h.05l-2.25-.45Zm6.55-1.05-2.25-.5h-.4l-2.25.5h.05l2.1.4h.45l2.25-.4Zm-4.2,4.6,3.15.55,3-.5,0-.05h-.05l-3.15-.55-2.95.55Zm8.15-4,0,.05h-.1l-2.25.4h-.1v0l2.35.4h.35l2.25-.4-2.25-.45H234v-.05Zm-4.9.3-2.3.45,2.35.4h.45l2.1-.35.1-.05-.1,0-.2-.08-2-.35Zm3.2.55-2.25.45,0,.05,2.1.35h.6l2.1-.35.1-.05-.25-.1-2-.35Zm1,1.05,2.15.35h.45l2.2-.35.1-.05-.05,0-.25-.08-2-.35h-.4l-2.25.45Zm-1.65,1.9h.3l2.3-.4-.2-.1-2.25-.4h-.15l-2.3.5Zm-1.75.85-.1.05,2.25.4h.45l2.6-.45-2.25-.45h-.35Zm.1-2.25h.3l2.35-.4-2.3-.45h-.4l-2.3.45Zm3.55-.3H233l-2.25.45,2.3.4h.3l2.3-.35,0-.05Zm.65,1.05,2.2.35h.35l2.3-.35-2.25-.5h-.45l-2.25.45Zm2.8,2.3v.15l-.75.2,2.4.4h.4l1.15-.25h.3l1.15-.2-2.35-.45-.05-.05h-.25l0,.05h-.05l-.7.1h-.15l-2.4-.45v-.2l-.45.1v.25l-.55-.1h-.45l-1.15.25,2.5.4h.3Zm-2-2h-.15l-2.35.45,2.35.4h.3l2.35-.4-.25-.1Zm4.1-1.55h-.4l-2.25.45,0,.05,2.1.4h.6l2.1-.4.1-.05-.57-.1Zm-1,2.95h.35l2.25-.4-.15-.1-2-.35h-.45l-2.3.45Zm4.9-3.3-.1-.05-2.25-.4h-.3l-2.35.45,2.35.45h.3Zm-.75.9h-.2v.05h0l-2.3.35-.05.05,2.4.45h.3l2.3-.4-.25-.1-2-.35Zm-2.6,1.55h.35l2.25-.35.1-.05-2.3-.45h-.4l-2.35.45Zm3.9-1.45h.3l2.35-.45-2.35-.45h-.3l-2.3.45Zm-2.9,1.65,2.1.4h.6l2.1-.4.05,0-2.25-.45h-.45l-2.25.45Zm11.35,0h-.4l-2.25.45,2.3.4h.3l2.35-.4Zm-4.35-1v0l2.3.45h.35l2.2-.4h.15l-2.3-.45h-.4Zm-2.35-.15-.1.05-2.3.4,2.3.45h.35l2.25-.4.1-.05-2.3-.4h-.05l0-.05Zm.85,1.05.05.05,2.25.35h.3l2.25-.35,0-.1-.2-.05-2.05-.35h-.4Zm1-1.85h-.35l-2.3.45,2.3.45h.35l2.3-.45Zm6.4,1.15H253l-2.25.45,3.85.65h.15l2.45-.35Zm172.9-84.6a9.84,9.84,0,0,1-.25-3.25,10.34,10.34,0,0,1,.15-1.2.16.16,0,0,1,.1.05c1.2.34,1.77,1,1.7,2a3.15,3.15,0,0,1-.5,1.35A4.13,4.13,0,0,1,426.2,188.51Zm-18.45,13.8.15,1.55c0,.2.07.4.1.6l-2.55-.4-.65-.85a15.68,15.68,0,0,1-1.8-7.45,12.43,12.43,0,0,1,1.75-6.3c.13-.23.33-.55.6-1a9.9,9.9,0,0,0,.35,1.8l.1.3a.5.5,0,0,1,.05.15,23.06,23.06,0,0,1,.75,4.8A25,25,0,0,0,407.75,202.31Zm4.65,11.5-5.3,4.65q0-.5.15-1.05c.17-.86.32-1.75.45-2.65a49.66,49.66,0,0,0,.55-5,1.38,1.38,0,0,0,.35-.4,5.14,5.14,0,0,0,.85-1.55Q411,210.91,412.4,213.81Zm-12.4-.45q.5-.9,3.95-8.25c0,.27.07.55.1.85a12.36,12.36,0,0,0,1.3,3.95,4.09,4.09,0,0,0-.1,1.1c-.07.77-.17,1.55-.3,2.35-.2,1-.38,2.09-.55,3.15s-.28,2.07-.45,3ZM71.6,74.81V78L59.1,80.16V77Zm48.8,20.5v29.5l29.1-5.15V92.56q-8,2.2-17.55-.6Q126.36,90.42,120.4,95.31Zm-36.55-12v3.2l-9.4,1.65V85Zm-.15-2.3-12.25,2.1V79.91l12.25-2.1ZM75.55,94.81l8.15-1.4v3.2L75.55,98Zm8.15,14.4v3.2l-9.8,1.7v-3.2Zm.15-20.75v3.2L71.6,93.81v-3.2ZM83.7,98.51v3.25L71.05,104v-3.25Zm-7.9,19.7v-2.75l8-1.4v2.75Zm-2.45,2.35,10.5-1.85V122l-10.5,1.85Zm-.1,5.6,10.35-1.8v3.2l-10.35,1.8Zm10.6,3.25v3.25l-2.3.4v-3.25Zm44.2,34.5,11-2v3.5l-11,1.95Zm6.5,5.4,14.1-2.4c.07.87.1,1.85.1,3l-14.2,2.5Zm18.15-3.15v3l-2.2.35v-2.95Zm-11.9-4.65,2.65-.5v3.55l-2.65.45ZM70.5,83.31,60.7,85V81.76l9.8-1.7Zm-13,2.3L49.55,87V83.71l7.9-1.35ZM57.3,96.26v-3.2l9.8-1.7v3.2Zm-2.85-2.7v3.2l-10.2,1.75v-3.2ZM48.6,78.76l8.3-1.4v3.2L48.6,82Zm-4,3.9-8,1.4v-3.2l8-1.4Zm3.25,4.6-6.65,1.15V85.16L47.9,84Zm-7.6-2v3.25l-3.7.65V86Zm-3.7,9.45v-3.2l10.1-1.75V93Zm0,5.1v-3.2l5.45-1v3.2Zm0,6.8L56,103.31v3.25L36.6,109.91Zm4.9,9.85v3.2l-4.9.85v-3.2Zm-4.75,5.7,11.7-2V123l-11.7,2Zm5.7-2.7v-3.2l16.35-2.8v3.2Zm9.4,4.75v3.25L36.6,130.16v-3.25Zm20-13v3.2l-11.55,2v-3.2Zm-35.25,4.2v-3.2l16.2-2.8v3.2ZM58,103l11.55-2v3.25l-11.55,2Zm-4.35,16.35,17.25-3v2.75l-17.25,3Zm4,4,12.25-2.1v3.25l-12.25,2.1Zm-5.45,11.65v3.25l-15.4,2.65v-3.25Zm15.65-7.8v3.2L52.15,133v-3.2Zm-2.2,5.45v3.25L53.35,138v-3.25Z"></path><path class="cls-15" d="M505.65,429.66V384.81l14.4-2.55v44.8ZM210.83,108.89a41.27,41.27,0,0,0-1.38-4.93,57.77,57.77,0,0,0-7.9-14.9q-2.25,2.35-.55,6.5c.43.77,1,1.94,1.8,3.5a10.63,10.63,0,0,1,.85,3.45c-1.1.33-2.11.67-3,1A62.27,62.27,0,0,0,195,94q-2.25,2.35-.55,6.5c.43.77,1,1.94,1.8,3.5.18.46.34.91.48,1.33-.14.07-.26.15-.38.22a11.2,11.2,0,0,0-3.78,3.5,17.39,17.39,0,0,0-2.82,1.45,12.6,12.6,0,0,0-2.72,2.15l-.43.48-4.15.72V57.91a37,37,0,0,1,24.4-9.15,14.72,14.72,0,0,1,4.7.65v59.35Zm20.72,115.67.8-1.4L243.6,225l-.75,1.4Zm35.25,6.3.75-1.35,11.3,1.85-.8,1.4Zm-10.5-1.5a1,1,0,0,1,.85-.2c.33.07.53.19.6.35a.77.77,0,0,1,0,.75,1.44,1.44,0,0,1-.7.65,1.07,1.07,0,0,1-.85.15.77.77,0,0,1-.65-.4.91.91,0,0,1,.1-.7A1.7,1.7,0,0,1,256.3,229.36Zm3.55,5.15,1-1.75,1.9.3-.95,1.8Zm-4.5-.75-2-.2,1-1.8,2,.2Zm-8.5-1.3,1-1.8,2,.3-1,1.8Z"></path><path class="cls-16" d="M213.65,166.71a5.18,5.18,0,0,0,.35.75q5.85,6.9,15.25,2.75a30.83,30.83,0,0,0,3.33-1.7,37.24,37.24,0,0,1-9.93,6.65q-9.41,4.16-15.25-2.75a5.18,5.18,0,0,1-.35-.75,65.72,65.72,0,0,1-4.3-13.4q-2.59-11.3-3.7-14.5l-2.1-10a21.75,21.75,0,0,1,1.7-4.45,12.56,12.56,0,0,1-3.3-.95,3.79,3.79,0,0,1-.9-.45,7.57,7.57,0,0,1-1.75-1.7,4.66,4.66,0,0,1-.45-.4,23.87,23.87,0,0,1-2.85-3.35c-.13-.13-.28-.3-.45-.5q-.94-1.44-4.1-5.45a8.67,8.67,0,0,1,.4-1.25,8.52,8.52,0,0,1,1.3-2.12l.43-.48,4.64-.87q3,3.81,3.93,5.22c.17.2.32.37.45.5a23.87,23.87,0,0,0,2.85,3.35,4.66,4.66,0,0,0,.45.4,7.57,7.57,0,0,0,1.75,1.7,3.79,3.79,0,0,0,.9.45,12,12,0,0,0,3,.85l0,.4v0l0,.2a25,25,0,0,0-1.38,3.9l2.1,10q1.09,3.21,3.7,14.5A65.72,65.72,0,0,0,213.65,166.71Zm19.22-29.92a27.49,27.49,0,0,0-1.77,2.42,41.48,41.48,0,0,0-2.8,4.9q-2.15,4.11-2.6,4.9a25.87,25.87,0,0,1-2.12-3.4c.31-.53.62-1,.92-1.45a18.19,18.19,0,0,1,8.3-7.35ZM256,126.56a7.37,7.37,0,0,1-2.65,1.55l-1.5.38.45-.78a33.43,33.43,0,0,1,1.9-3.2,5.48,5.48,0,0,1,3.25-2.25v-5.5l-.3-.2-.65-.65a4.68,4.68,0,0,1-1.35-1.9,21.29,21.29,0,0,1-3.15-12.5v-.7c.1-1,.22-2,.35-3a23.55,23.55,0,0,1,1.9-5.45v-.1a22.57,22.57,0,0,1,3.05-4.15,11.06,11.06,0,0,0,1.15-1.1,17.85,17.85,0,0,0,1.9-1.4,12.69,12.69,0,0,1,2.75-1.52,21.69,21.69,0,0,0-2.25,3.22v.1a23.55,23.55,0,0,0-1.9,5.45c-.13,1-.25,2-.35,3v.7a21.29,21.29,0,0,0,3.15,12.5,4.68,4.68,0,0,0,1.35,1.9l.65.65.3.2v5.5a5.48,5.48,0,0,0-3.25,2.25,33.43,33.43,0,0,0-1.9,3.2A15,15,0,0,1,256,126.56Zm2.7,67.9-7.28,1c0-.11-.06-.23-.1-.35s-.15-.53-.25-.8a17.27,17.27,0,0,0-.72-1.85,145.33,145.33,0,0,1-7.5-13.65Q240,173,236.87,165.51a56.42,56.42,0,0,0,6.23-5.85q3.3,8.06,6.3,14.25a145.33,145.33,0,0,0,7.5,13.65A20.61,20.61,0,0,1,258.65,194.46Z"></path><path class="cls-17" d="M501.7,429v-44.8l3.95.65v44.85ZM191.62,111.79l-4.64.87a12.6,12.6,0,0,1,2.72-2.15,17.39,17.39,0,0,1,2.82-1.45,8,8,0,0,0-1.07,2.5Zm9-8.28a22.37,22.37,0,0,0-3.94,1.83c-.14-.42-.3-.87-.48-1.33-.77-1.56-1.37-2.73-1.8-3.5q-1.69-4.14.55-6.5A62.27,62.27,0,0,1,200.62,103.51Z"></path><path class="cls-18" d="M102,79l-7.9,1.45v0a9.54,9.54,0,0,1,2.35-6.1,9.33,9.33,0,0,1,5.6-3.35h0V79H102Zm5.75,34.6-5.6-4.7v-8h-.05v0a6.45,6.45,0,0,1,5.6,1.35,6.67,6.67,0,0,1,2.35,5.35A9.19,9.19,0,0,1,107.75,113.61Z"></path><path class="cls-19" d="M501.7,384.16v46.1l-14.45,2.6v-55.6l14.45-2.4v9.3Zm-73.55,32.95v25.95l-14.4,2.55-.15-26.1ZM102.05,79h0l8-1.4a10.12,10.12,0,0,1-8,9.45Z"></path><path class="cls-20" d="M240.15,244.06c3.2.1,5.63,1,7.3,2.8l-6.25,16.25-9.4-1.65,6.6-17.3A7.81,7.81,0,0,1,240.15,244.06ZM94.1,80.41v0L102,79v8a6.48,6.48,0,0,1-8-6.65Zm8.05,28.5v.1l-5.6,6.65,0,0a6.59,6.59,0,0,1-2.3-5.3,9.5,9.5,0,0,1,2.3-6.15,9.24,9.24,0,0,1,5.6-3.35h.05Z"></path><path class="cls-21" d="M264,111.81l-.3-.2-.65-.65a4.68,4.68,0,0,1-1.35-1.9,15.76,15.76,0,0,1-.9-4.75,5.4,5.4,0,0,1,0-2,8.61,8.61,0,0,1,.5-1.7,1.68,1.68,0,0,1,1-1c2.1-.36,3.4.7,3.9,3.2.15,1.07.29,2,.42,2.83a23.79,23.79,0,0,0,.73,3.32v.8l1.55-.15a.23.23,0,0,1,0-.2l0,.1a13.76,13.76,0,0,1,.35-3.45c0-.21.09-.43.15-.65.93-.86,1.95-1.83,3-2.9,2.83-2.53,4.82-3.76,6-3.7a7,7,0,0,1,1,.1c.81.11,2.09.31,3.85.6l1.85.3c3.67.7,6,.79,7,.25l2.5-.85A46.1,46.1,0,0,1,292,112.86c-.5,1.54-1.08,3.1-1.75,4.7l.15-.3c-.2.54-.38,1.07-.55,1.6a.61.61,0,0,0-.15.3c-.2.54-.42,1.07-.65,1.6-.27.74-.53,1.4-.8,2-.2.37-.37.67-.5.9l-.15.23a2.09,2.09,0,0,1-.2.22,2.9,2.9,0,0,1-.52.33,5.64,5.64,0,0,1-2.08.32h-.7a29.27,29.27,0,0,1-11.25-5.6,15.4,15.4,0,0,1-4.4-5c-.13-.3-.27-.58-.4-.85C267.07,113.39,265.72,112.91,264,111.81Zm92.85,28.35c.17-.26.32-.48.45-.65q3-4.74,5.35-7.65a77.93,77.93,0,0,1,7.85-8.25c.93.5,1.32,1.09,1.15,1.75A9.28,9.28,0,0,1,369.9,128c-.7.94-1.45,1.87-2.25,2.8-.5.57-.68,1.62-.55,3.15a9.4,9.4,0,0,1-1,5,6.39,6.39,0,0,1-1.25,1.65,10.83,10.83,0,0,0-1.9,1.8c-.13.14-.27.27-.4.4l.15.05a.92.92,0,0,1,.25-.05,18.47,18.47,0,0,0,6.65-7,4.16,4.16,0,0,0,.45-3.32,54,54,0,0,0,6-3.08q5.55-3.39,8.35-5a2.74,2.74,0,0,1,2.4-.4,2,2,0,0,1,1.15,1.35,24,24,0,0,1-4.75,9,30.13,30.13,0,0,1-9.6,7.4c-1.33.6-3.52,1.44-6.55,2.5l-3.6,1.4c-.17-.43-.27-.7-.3-.8a16.07,16.07,0,0,1-1-1.85C361.43,141.8,359.68,140.86,356.85,140.16ZM346,254.84l-4.22-.18a3.13,3.13,0,0,1-1.15,1.1,37.9,37.9,0,0,1-6.25,2.4,12.5,12.5,0,0,0-2.95,2.7c-1.43,1.64-2.48,2.5-3.15,2.6-1.27.17-2-.33-2.15-1.5q-.19-1.4,2.1-4.1a23.28,23.28,0,0,1,3.6-3.47l-.92,0q-3.81-.08-7.7-.12a3.22,3.22,0,0,1,0-.43q0-2.25,3.55-4.15a20.28,20.28,0,0,1,7.85-2.3,14.55,14.55,0,0,1,6.4.65l.55.23a9.59,9.59,0,0,1,.9.47A7.07,7.07,0,0,1,346,254.84Zm59.28-66.53-.57.08-.18,0-3.45-.15c-.87-.23-1.37-.46-1.5-.7a1.41,1.41,0,0,0-.25-.42,2.81,2.81,0,0,0-.35-.33q-.4-.34-.45-7.65a91.2,91.2,0,0,1,.8-12.8,47.88,47.88,0,0,1,1.65-7.65,1.83,1.83,0,0,1,.4,0,36.78,36.78,0,0,1,17.25,4.35l.28.18a2.52,2.52,0,0,0,0,1.82,2.78,2.78,0,0,0,.7,1.1,7,7,0,0,0,.45,2.95c.37,1,.78,2.17,1.25,3.4s1.92.39,4.55-2.65q3.15,1.6,1.5,4.85a10.39,10.39,0,0,1-4.47,4.5,3.7,3.7,0,0,1-2.43-.5q-.86,5-6.1,7.35a29.81,29.81,0,0,1-7.6,2,5.37,5.37,0,0,1-.8.05ZM195.55,117q-.92-1.41-3.93-5.22l-.17-.23a8,8,0,0,1,1.07-2.5,11.2,11.2,0,0,1,3.78-3.5c.12-.07.24-.15.38-.22a22.37,22.37,0,0,1,3.94-1.83c.92-.33,1.93-.67,3-1a10.63,10.63,0,0,0-.85-3.45c-.77-1.56-1.37-2.73-1.8-3.5q-1.69-4.14.55-6.5a57.77,57.77,0,0,1,7.9,14.9,41.27,41.27,0,0,1,1.38,4.93c.13.61.24,1.21.35,1.82a36.24,36.24,0,0,1,.32,9v.05a4,4,0,0,0-2.9-.35,10.56,10.56,0,0,0-3.58,1.15l-.27.15a6.66,6.66,0,0,1-2.3.9,4,4,0,0,1-.8-.25,8,8,0,0,0,1.2-.4,8.55,8.55,0,0,0,2.15-1.32l.2-.18c.33-.26.65-.53,1-.8a13.25,13.25,0,0,0,2.15-3.85,5.19,5.19,0,0,0,.4-2,8.57,8.57,0,0,0-.22-1.57c-.11-.52-.26-1.12-.46-1.8l-.12-.43a4.25,4.25,0,0,1-.65-1.5c-.2-1.1-.68-1.6-1.45-1.5,0,.1.22,1.22.55,3.35,0,.12,0,.24.05.35.09.72.15,1.33.18,1.85a4.92,4.92,0,0,1-.13,1.6c-.24.68-1,1-2.15,1-.27,0-.57,0-.9,0-1.47-.16-2.23.34-2.3,1.5-.1.07-1.25.35-3.45.85C196.75,116.73,196.05,116.91,195.55,117Zm-13.78,99a1.22,1.22,0,0,1,.33,1.07c-.07.74-.18,2.14-.35,4.2a8.17,8.17,0,0,0,2.2-3.75l.05-.42a3,3,0,0,0,1,.17,9.46,9.46,0,0,0,3.75-.7c-.07,2-.23,4.34-.5,6.9a27.78,27.78,0,0,1-3.6,3.6A9.69,9.69,0,0,0,182.9,229a18.28,18.28,0,0,1-1.4-1.95c-.37-.6-.7-1.18-1-1.75-.6.5-1.33.25-2.2-.75a3.4,3.4,0,0,1-.68-1.3c0-.26,0-.51,0-.75a37.38,37.38,0,0,1,.2-4l.35-1q2.76-2,3.6-1.5v0Zm6.63-7v.2a2,2,0,0,0-.15-.57l.05,0C188.33,208.76,188.37,208.88,188.4,209Zm6.75,69.7q-1.41-1.54-3.13-3.27c-.61-.62-1.26-1.27-1.94-1.93-1.45-1.39-3-2.85-4.73-4.4-.77-.69-1.57-1.4-2.4-2.12q-1.94-1.74-4.1-3.58a8.62,8.62,0,0,0-2.35-.25,10.79,10.79,0,0,1-6.25-.5q-3-1.4-3.85-5.6a12.92,12.92,0,0,1,1.4-8.65s0,0,0,0l.1-.1,3.5-4.75a.32.32,0,0,1,.15-.2.48.48,0,0,0,.2-.2l1.9-2,3.7.45a19,19,0,0,1,5.25,3.3q2.35,2.61,9.8,12.15,2.72,3.54,5.15,6.3,1.52,1.72,2.92,3.15c.3.3.59.58.88.85,0,.06.1.1.15.15.35.35.7.67,1,1,.08.08.17.16.25.25l.1.07a6.17,6.17,0,0,1,.55.43l.2.17a5.49,5.49,0,0,1,.48.6,4.37,4.37,0,0,1,.32.55l.08.18a4.22,4.22,0,0,1,.32,1.4v.42a6.5,6.5,0,0,1-.82,3l-.13.25a9.42,9.42,0,0,1-.65.95,6.44,6.44,0,0,1-.47.55,7.2,7.2,0,0,1-3.28,2.15,6.37,6.37,0,0,1-.82.18,4.69,4.69,0,0,1-2.9-.5A5.52,5.52,0,0,1,195.15,278.71Zm236-13.95,1.1.65.32-.1.33-.1a1.1,1.1,0,0,0,0,.18,8.41,8.41,0,0,0-.08,1.32,6.29,6.29,0,0,0,.35,2c.33,1,.52,1.64.55,1.8q-3.85,0-5.1,1.5a3.54,3.54,0,0,0-.6,2.3c0,.1.05.72.15,1.85a2.35,2.35,0,0,0,.3.7,2.77,2.77,0,0,0-.45.6,62.3,62.3,0,0,1-6-2.3q-3.3-1.55-3.9-4.25c-1.67.14-2.77-.08-3.3-.65s-.43-1.08.1-1.85a5.08,5.08,0,0,1,2.25-1.8,5.39,5.39,0,0,1,3.35-.4,5.16,5.16,0,0,1,2.88-2.92,5.83,5.83,0,0,1,2.52-.28A14.12,14.12,0,0,1,431.15,264.76Zm5.25.8a4.79,4.79,0,0,1,2.08,1.38,5,5,0,0,1,1.07,2.22.25.25,0,0,1,.05.15,6,6,0,0,1,0,2.15,12.74,12.74,0,0,0-2.4-4.9C437,266.23,436.69,265.9,436.4,265.56ZM217.9,411.11q-2.29-2.75-6.05-6.75l-.62-.65a47,47,0,0,1-7-9.8c-.18-1.27-.4-2.57-.65-3.9-.13-.72-.27-1.44-.43-2.17l-.27-1.23q-2.4-9.35-3.7-14.6a50.37,50.37,0,0,1,.28-20.12l4.47-.78q6.79-1.25,7.35-2.85a1.69,1.69,0,0,0,0-.55V341q.56-1.54-5.45-2.65l-.53-.1a50.3,50.3,0,0,1,4.18-5.45,1.83,1.83,0,0,0,.5-1.25,7.16,7.16,0,0,0-.8.05q-1.54-.09-3.15-.15a27.59,27.59,0,0,1-8.9-2.7,32.22,32.22,0,0,0-2.8-12.3c.33.07.68.15,1,.25q9.41,2.65,14.9,8.45,3.94,4,3.9,12.05,0,2.25-.2,6.75,0,3.9,0,7.85t0,9.3q0,5.35.2,19.3a97,97,0,0,0,2.4,21.65c.14.6.29,1.18.45,1.75Q217.45,406.07,217.9,411.11Z"></path><path class="cls-22" d="M187.73,385.16c.06,1.66.17,3.39.32,5.2.06.67.12,1.44.2,2.3.18,2.12.42,4.84.7,8.15.07,1,.12,2,.15,2.9a52.08,52.08,0,0,0-6.15-8.95l-.87-1q-2.1-2.4-5.08-5.63c-.1-1.13-.23-2.33-.4-3.6,0-.33-.1-.77-.17-1.32q-.54-3.35-2.18-12c-.27-1.63-.53-3.18-.8-4.65a43.54,43.54,0,0,1,6.88-11.25l10.42-1.85-.15,1.25q-1.09,9.55-2.1,14.85A69.35,69.35,0,0,0,187.73,385.16Zm106.82-286-2.5.85c-1,.54-3.33.45-7-.25l-1.85-.3c-1.76-.29-3-.49-3.85-.6a7,7,0,0,0-1-.1c-1.13-.06-3.12,1.17-6,3.7-1.1,1.07-2.12,2-3,2.9a4.81,4.81,0,0,1,.65-1.55,1.25,1.25,0,0,1,.3-.65,12.16,12.16,0,0,1,1.35-1.75,8.6,8.6,0,0,1,.75-.85c1-1.16,1.82-2,2.35-2.5a17,17,0,0,0,2.45-3.75l.05,0a1.62,1.62,0,0,0,.85.2l1,.25.15.1a0,0,0,0,0,.05,0,7.77,7.77,0,0,1,1.9.55l1.95.45c.95.21,1.79.38,2.5.5q5.06.51,8.05-2.1l.15-.1c.13-.06.2-.13.2-.2.07.64.15,1.3.25,2a15.06,15.06,0,0,1,.1,3A.17.17,0,0,1,294.55,99.11Zm73.1,31.7c-.63,1-.67,1.87-.1,2.5l.5-.15q.65-.24,1.35-.45l.2-.05.45-.2v0a4.16,4.16,0,0,1-.45,3.32,18.47,18.47,0,0,1-6.65,7,.92.92,0,0,0-.25.05l-.15-.05c.13-.13.27-.26.4-.4a10.83,10.83,0,0,1,1.9-1.8A6.39,6.39,0,0,0,366.1,139a9.4,9.4,0,0,0,1-5C367,132.43,367.15,131.38,367.65,130.81Zm-10.8,9.35c2.83.7,4.58,1.64,5.25,2.8a16.07,16.07,0,0,0,1,1.85c0,.1.13.37.3.8l-2.5.93a11.86,11.86,0,0,0-5.63-4.2,5.24,5.24,0,0,1,.23-.48l1.2-1.55A1,1,0,0,1,356.85,140.16Zm63.35,18.35h-.05a2.47,2.47,0,0,0,.35.1l.55.25a12.67,12.67,0,0,1-1.85,3.75,5.33,5.33,0,0,0-.27.68l-.28-.18a36.78,36.78,0,0,0-17.25-4.35,1.83,1.83,0,0,0-.4,0q.25-.79.45-1.5a10.12,10.12,0,0,1,1.55-2.7q.36.45.75.9a23.09,23.09,0,0,1,8.85.45A65.49,65.49,0,0,1,420.2,158.51ZM211.5,120.84a5.89,5.89,0,0,1-1.15,2.47,5.73,5.73,0,0,1-1.15.8q-.1,0-.15,0a.36.36,0,0,0-.3,0,7.51,7.51,0,0,1-1.3.25,11,11,0,0,1-2.22-.1l-.3,0a12,12,0,0,1-3-.85,3.79,3.79,0,0,1-.9-.45,7.57,7.57,0,0,1-1.75-1.7,4.66,4.66,0,0,1-.45-.4,23.87,23.87,0,0,1-2.85-3.35c-.13-.13-.28-.3-.45-.5.5-.1,1.2-.28,2.1-.55,2.2-.5,3.35-.78,3.45-.85.07-1.16.83-1.66,2.3-1.5.33,0,.63,0,.9,0,1.19,0,1.91-.37,2.15-1a4.92,4.92,0,0,0,.13-1.6c0-.52-.09-1.13-.18-1.85,0-.11,0-.23-.05-.35-.33-2.13-.52-3.25-.55-3.35.77-.1,1.25.4,1.45,1.5a4.25,4.25,0,0,0,.65,1.5l.12.43c.2.68.35,1.28.46,1.8a8.57,8.57,0,0,1,.22,1.57,5.19,5.19,0,0,1-.4,2,13.25,13.25,0,0,1-2.15,3.85c-.3.27-.62.54-1,.8l-.2.18a8.55,8.55,0,0,1-2.15,1.32,8,8,0,0,1-1.2.4,4,4,0,0,0,.8.25,6.66,6.66,0,0,0,2.3-.9l.27-.15a10.56,10.56,0,0,1,3.58-1.15,4,4,0,0,1,2.9.35A3.91,3.91,0,0,1,211.5,120.84Zm-23.63,85.8c.25,1,.42,1.74.53,2.37,0-.13-.07-.25-.1-.35l-.05,0a2,2,0,0,1,.15.57c0,.14,0,.29,0,.45l.2,1.5a2,2,0,0,0,0,.45v.2a43.18,43.18,0,0,1,.05,4.75,9.46,9.46,0,0,1-3.75.7,3,3,0,0,1-1-.17l.3-3c.3-1.36.55-2.43.75-3.2a22.19,22.19,0,0,0,1.5-2.7c.07-.16.13-.33.2-.5l.75-1.55ZM181.75,216l0,0,0,0Zm13.8,12.7a24.26,24.26,0,0,0-6.3,2.25q-6.19,3.06-6.2,5.2a2.28,2.28,0,0,0,1.85,2.35,14.49,14.49,0,0,0,2.25.35q1.69,3,10.95,17.75,2,3.13,3.6,6,1,1.77,2,3.42l.5.93.1.17c.13.23.26.45.37.68,0,.06.07.12.11.17l.54,1,.1.2c.14.26.27.52.4.78a1.24,1.24,0,0,1,.1.2c0,.06.07.13.11.2s.11.25.17.37.11.22.18.33c.12.27.25.54.37.8.55,1.12,1.05,2.19,1.5,3.22a7.55,7.55,0,0,1,.1,1.23v.42a6.53,6.53,0,0,1-.25,1.5,5.89,5.89,0,0,1-.9,1.85,5.6,5.6,0,0,1-.78.9,6.33,6.33,0,0,1-2.92,1.55,7.39,7.39,0,0,1-4.65-.3,7.22,7.22,0,0,1-3.47-3.15l-.18-.35a5.52,5.52,0,0,0,.68.43,4.69,4.69,0,0,0,2.9.5,6.37,6.37,0,0,0,.82-.18,7.2,7.2,0,0,0,3.28-2.15,6.44,6.44,0,0,0,.47-.55,9.42,9.42,0,0,0,.65-.95l.13-.25a6.5,6.5,0,0,0,.82-3v-.42a4.22,4.22,0,0,0-.32-1.4l-.08-.18a4.37,4.37,0,0,0-.32-.55,5.49,5.49,0,0,0-.48-.6l-.2-.17a6.17,6.17,0,0,0-.55-.43l-.1-.07c-.08-.09-.17-.17-.25-.25-.35-.31-.7-.63-1-1-.05-.05-.1-.09-.15-.15-.29-.27-.58-.55-.88-.85q-1.41-1.42-2.92-3.15-2.43-2.76-5.15-6.3-7.45-9.54-9.8-12.15a14.54,14.54,0,0,1-2.4-6.85,11.09,11.09,0,0,1,1.8-6.85,5.48,5.48,0,0,1,.85-2.2,9.69,9.69,0,0,1,1.75-1.95,27.78,27.78,0,0,0,3.6-3.6,12.47,12.47,0,0,1,4.15,2A12.74,12.74,0,0,1,195.55,228.66Zm240.85,36.9c.29.34.55.67.8,1a12.74,12.74,0,0,1,2.4,4.9q-.41,2.61-3.55,4.05a2.82,2.82,0,0,1-3,.55,3.8,3.8,0,0,0-2.85-.4,3.31,3.31,0,0,0-1.75,1.15,2.35,2.35,0,0,1-.3-.7c-.1-1.13-.15-1.75-.15-1.85a3.54,3.54,0,0,1,.6-2.3q1.25-1.5,5.1-1.5c0-.16-.22-.76-.55-1.8a6.29,6.29,0,0,1-.35-2,8.41,8.41,0,0,1,.08-1.32,1.1,1.1,0,0,1,0-.18l.28,0a5.72,5.72,0,0,1,2.62.2A1.77,1.77,0,0,1,436.4,265.56ZM197.1,328.71a27.59,27.59,0,0,0,8.9,2.7q1.6.06,3.15.15a7.16,7.16,0,0,1,.8-.05,1.83,1.83,0,0,1-.5,1.25,50.3,50.3,0,0,0-4.18,5.45l-9.4-1.62a17.9,17.9,0,0,0,1.28-6.4v-.28C197.15,329.51,197.13,329.11,197.1,328.71Zm7.1,65.2a47,47,0,0,0,7,9.8l.62.65q3.75,4,6.05,6.75c0,.4.07.84.1,1.3a61.56,61.56,0,0,0,1.15,8.55q-1.91-2-6.6-9.6a34.49,34.49,0,0,0-4.78-6.25,16.8,16.8,0,0,0-2.82-2.35v-.3a3.86,3.86,0,0,0,0-.55,59,59,0,0,0-.55-7Q204.26,394.44,204.2,393.91Zm-4.77-42a50.37,50.37,0,0,0-.28,20.12c-.1-.5-.2-1-.3-1.4a97.85,97.85,0,0,1-2.65-16.05c0-.7-.08-1.4-.1-2.1Z"></path><path class="cls-23" d="M39.65,57.46,49,55.91v8.25l-9.35,1.6Zm26.7,4.25V52l6.8-1.15q.19,4.26,0,9.85Zm35.4-16.5L101.5,52q-5.35.9-10.6,1.9l-1.25.2-.1-6.9Z"></path><path class="cls-24" d="M39.65,57.46v8.3L49,64.16V55.91ZM37,67.76a50.53,50.53,0,0,1,0-11.4q7.39-1.55,14.85-2.45a44.25,44.25,0,0,1,0,11.15A88.59,88.59,0,0,1,37,67.76Z"></path><path class="cls-25" d="M65.45,49.41l9-1.65a131.32,131.32,0,0,1,0,15.4l-9.3,1.7A67.3,67.3,0,0,1,65.45,49.41Zm.9,12.3,6.8-1q.19-5.6,0-9.85L66.35,52Z"></path><path class="cls-26" d="M103.3,45.21a69.8,69.8,0,0,1-.25,9.45L97.8,55.71l.6,2.65L93,59.46l.45-3-5.35.7c-.13-2.4-.2-4.2-.2-5.4a25.67,25.67,0,0,1,.3-4,4.79,4.79,0,0,1,.25-1.55c.73-.23,1.55-.46,2.45-.7,1.5-.36,3.13-.7,4.9-1q4.8-.65,7.4-1.2A18.22,18.22,0,0,1,103.3,45.21Zm-1.55,0-12.2,2,.1,6.9,1.25-.2q5.25-1,10.6-1.9Z"></path><path class="cls-27" d="M189.1,403.71a71.2,71.2,0,0,1,.1,7.5,25.28,25.28,0,0,0-4-8.75A10.74,10.74,0,0,0,177,398c.12-1.08.2-2.2.23-3.37a53.84,53.84,0,0,0-.23-6.48q3,3.22,5.08,5.63l.87,1A52.08,52.08,0,0,1,189.1,403.71Zm-8.77-48.45a43.54,43.54,0,0,0-6.88,11.25,85.82,85.82,0,0,1-.9-8.7c0-.4,0-.79-.05-1.17Zm246-171.45a1.82,1.82,0,0,0-.2.25,10.34,10.34,0,0,0-.15,1.2,9.84,9.84,0,0,0,.25,3.25q-1.9,1.31-9,7.35a40.71,40.71,0,0,1-9.45,6.45,25,25,0,0,1-1.15-6.75,23.06,23.06,0,0,0-.75-4.8.5.5,0,0,0-.05-.15l-.1-.3a9.9,9.9,0,0,1-.35-1.8l-.05-.2.7-.1a5.37,5.37,0,0,0,.8-.05,29.81,29.81,0,0,0,7.6-2q5.25-2.4,6.1-7.35a3.7,3.7,0,0,0,2.43.5l-.38.2a11.54,11.54,0,0,0,5.52-.77A38.17,38.17,0,0,0,426.3,183.81Zm-141.5-59a2.83,2.83,0,0,0,.3.3,16.1,16.1,0,0,0,2.25,1.55,17.07,17.07,0,0,1-.55,2.35c-.13.54-.37,1.3-.7,2.3a3.32,3.32,0,0,0-1.1.1,6,6,0,0,0-1.2.35v-.05c0-.86,0-1.41-.05-1.65a1.11,1.11,0,0,0-.55-.72,1.45,1.45,0,0,0-.65-.18,27,27,0,0,1-3.2-1,44,44,0,0,1-4.4-1.85l-3.05-1.65c-.33-.16-.7-.36-1.1-.6-.83-.43-1.77-.93-2.8-1.5l-.25-.15a28.06,28.06,0,0,1-3.85-2.15l.05-2.15.05-.8v-5.5c1.72,1.1,3.07,1.58,4.05,1.45.13.27.27.55.4.85a15.4,15.4,0,0,0,4.4,5,29.27,29.27,0,0,0,11.25,5.6ZM182.9,229a5.48,5.48,0,0,0-.85,2.2c-1.63.9-2.85,1.62-3.65,2.15a40.49,40.49,0,0,1-3.7,5.7l-.3-1a0,0,0,0,0-.05-.05v0a0,0,0,0,0,0-.05v-.1h-.05a11.19,11.19,0,0,0-1.5-2.7,2.21,2.21,0,0,1-.25-.3,12.79,12.79,0,0,0-2.85-2.45,11.48,11.48,0,0,0-3.2-1.47c0-.33-.11-.64-.18-.95a38.31,38.31,0,0,0,4.58-.18,8.81,8.81,0,0,0,6.85-5.65c0-.29-.06-.58-.08-.85a3.4,3.4,0,0,0,.68,1.3c.87,1,1.6,1.25,2.2.75.3.57.63,1.15,1,1.75A18.28,18.28,0,0,0,182.9,229Zm4.25,9.8a14.49,14.49,0,0,1-2.25-.35,2.28,2.28,0,0,1-1.85-2.35q0-2.15,6.2-5.2a24.26,24.26,0,0,1,6.3-2.25l.1.1q-.1,2.76-3.7,5.35c-1.27.9-2.2,1.59-2.8,2a7.72,7.72,0,0,0-2.15,2.35A1.05,1.05,0,0,1,187.15,238.81Z"></path><path class="cls-28" d="M291.25,136.71q-1.8-1.44-4-3.6a5.86,5.86,0,0,1-1.15-1.85c.33-1,.57-1.76.7-2.3a17.07,17.07,0,0,0,.55-2.35,6.18,6.18,0,0,0-.47-2.17,2.9,2.9,0,0,0,.52-.33,2.09,2.09,0,0,0,.2-.22l.55,1.12q2,3.7,5,4a.6.6,0,0,0,.2.05,6.08,6.08,0,0,1,.4,1.95,7.62,7.62,0,0,1-.9,3.4c-.2.34-.42.69-.65,1.05S291.58,136.28,291.25,136.71Zm60.5,118.38c-1.89-.09-3.8-.18-5.73-.25a7.07,7.07,0,0,0-3.57-6.13,9.59,9.59,0,0,0-.9-.47l.15-.28a17.26,17.26,0,0,1,5.1-2.45l.13-.07.12-.08a4.79,4.79,0,0,1,.45-.25,12.69,12.69,0,0,1,1.9,1.65,9,9,0,0,1,2.05,3.6v0a6.3,6.3,0,0,1,.3,1.05,7.61,7.61,0,0,1,.15,1.52A14.34,14.34,0,0,1,351.75,255.09ZM223.58,145.61a25.87,25.87,0,0,0,2.12,3.4q.45-.8,2.6-4.9a41.48,41.48,0,0,1,2.8-4.9,27.49,27.49,0,0,1,1.77-2.42,16.68,16.68,0,0,1,6.53-4.93q7.72-2.18,12.4-3.37l1.5-.38a13.61,13.61,0,0,1,5.55,5,15.71,15.71,0,0,1,2.15,5.5,55.46,55.46,0,0,0-10.5,4.45,46.21,46.21,0,0,0-10.55,7.6q-3.9,4.26-6.25,6.55a23.39,23.39,0,0,1-7.5,5.4q-3.8,1.5-12.55,4.1a65.72,65.72,0,0,1-4.3-13.4q-2.59-11.3-3.7-14.5l-2.1-10a25,25,0,0,1,1.38-3.9q.13-.3.3-.6a11,11,0,0,0,2.22.1,7.51,7.51,0,0,0,1.3-.25.36.36,0,0,1,.3,0s.08,0,.15,0a5.73,5.73,0,0,0,1.15-.8,5.89,5.89,0,0,0,1.15-2.47,7.64,7.64,0,0,1,1.4.57q2.81,4.05,6.25,13.85A70.55,70.55,0,0,0,223.58,145.61Zm60.22-13.9v0l-.25,1.45c-.09.57-.21,1.18-.35,1.83,0,.07,0,.15-.05.22q-1.47,5.84-3.8,6.28l-.1,0H279q-4.15,0-11.15-3.75c-.83-.43-1.68-.91-2.55-1.45a40.7,40.7,0,0,1-4.25-2.8,20.72,20.72,0,0,1-4.35-4.45q-.25-.39-.45-.75c-.2-.4-.38-.78-.55-1.15a.25.25,0,0,0-.05-.15.37.37,0,0,1,0-.15,3.13,3.13,0,0,0,.4-.35,15,15,0,0,0,2.9-3.8,33.43,33.43,0,0,1,1.9-3.2,5.48,5.48,0,0,1,3.25-2.25l-.05.8q-3.34.86-.05,2.15a28.06,28.06,0,0,0,3.85,2.15l.25.15c1,.57,2,1.07,2.8,1.5.4.24.77.44,1.1.6l3.05,1.65a44,44,0,0,0,4.4,1.85,27,27,0,0,0,3.2,1,1.45,1.45,0,0,1,.65.18,1.11,1.11,0,0,1,.55.72c0,.24.05.79.05,1.65Zm-23.95,140.8h0l6.15,1.1.15.1v.15l-.15.1-.2.05L259,275.16l-29.27,5-2.3-.1-19.15-3.35v-.42l3.6.62h.15l0,0v0l.1,0v0h.2v0l.1,0v0l.1,0h.15l11.95-2.1.1-.05-.05-.05h-.05l-16.95-2.95h-.65l-.4.08c-.12-.26-.25-.53-.37-.8l35,6.07h1.2l18.8-3.3.15-.05-.2-.2-47.4-8.2h-1l-8.7,1.53-.5-.93,7.6-1.3a6.06,6.06,0,0,1,2.3-.15l6.85,1.15-1-.1h0l-.1.1v.15l-.35.1h0l39.3,6.85h.1Zm-69.77,1-12.88-2.22c0-.26-.07-.51-.1-.75l8.25-1.43C187.06,270.66,188.63,272.12,190.08,273.51Zm249.52-2.05a6,6,0,0,0,0-2.15.25.25,0,0,0-.05-.15,5,5,0,0,0-1.07-2.22,4.79,4.79,0,0,0-2.08-1.38,1.77,1.77,0,0,0-.6-.2,5.72,5.72,0,0,0-2.62-.2l-.28,0-.33.1-.32.1-1.1-.65a18.44,18.44,0,0,1,2-1.05,16.66,16.66,0,0,1,4.15-1.3l1.1-.2a9.51,9.51,0,0,1,3.55,2.4l1.5,2.75a10.33,10.33,0,0,1,.35,1.33,11.68,11.68,0,0,1,.15,1.92l-.75,4.05a4.26,4.26,0,0,1-.5,1,54.26,54.26,0,0,1-6.6-.2Q439.2,274.07,439.6,271.46Zm-65.6,1-39.5-6.95,32.8-5.8,46.05,8.1L400.73,270a4.64,4.64,0,0,0-2.93-.83h-2.7V267a.23.23,0,0,0,0-.2c-.17-.53-1.35-1-3.55-1.35a46.89,46.89,0,0,0-7.65-.65,38.34,38.34,0,0,0-7.25.5c-2,.34-2.85.77-2.65,1.3Z"></path><path class="cls-29" d="M190.5,425.51c-1.87-.56-3.18-2.35-3.95-5.35l0-.12q-.53-2.42-.87-3.63a10.17,10.17,0,0,0-1.5-3.3,8.22,8.22,0,0,0-5.05-3.7,38.35,38.35,0,0,0-6.4-1,13.54,13.54,0,0,1,.35-6.25c.77-2.46,2.08-3.86,3.95-4.2a10.74,10.74,0,0,1,8.15,4.5,25.28,25.28,0,0,1,4,8.75,13.37,13.37,0,0,0,2.4,4.5,36.86,36.86,0,0,0,3.55,3.7l.15.33a4,4,0,0,1-.65,4.07A4.09,4.09,0,0,1,190.5,425.51ZM22.15,391.11l21,3.7v21.35l-21-3.7V391.11ZM166.33,236.64a22,22,0,0,1-4.18,9.92A21.85,21.85,0,0,0,158.3,257a59.3,59.3,0,0,1-6,20.6A38.67,38.67,0,0,1,137.4,294a25.43,25.43,0,0,1-13.38,3.9,24.8,24.8,0,0,1-7.32-1.2,30.9,30.9,0,0,1-5.55-1.85A34,34,0,0,1,99,285.66a16.71,16.71,0,0,1-4-9.9v-.3c.5.57,1,1.2,1.6,1.9a18,18,0,0,0,7.4,5.35q13.23,5.43,23.33,2.73a24.78,24.78,0,0,0,5.92-2.43,22.52,22.52,0,0,0,10.25-11.3,26.48,26.48,0,0,0,1.5-7.3,32.84,32.84,0,0,1,.7-5.15q1.1-2.75,6.65-9.6t9.45-8.45a7.64,7.64,0,0,0,4.45-4.62,8.21,8.21,0,0,0,.3-1C166.42,235.92,166.37,236.28,166.33,236.64Zm-15.88-21.23c.72.18,1.7.44,2.92.78s2.76.73,4.53,1.22a19.33,19.33,0,0,0,7.65.4,21.84,21.84,0,0,0,9.2-4.65,22.87,22.87,0,0,1,9.4-4.75c.36-.07.72-.13,1.08-.17a11.83,11.83,0,0,1,1.32-.08,22.19,22.19,0,0,1-1.5,2.7c-.2.77-.45,1.84-.75,3.2l-.3,3-.05.42a8.17,8.17,0,0,1-2.2,3.75c.17-2.06.28-3.46.35-4.2a1.22,1.22,0,0,0-.33-1.07l0,0q-.84-.54-3.6,1.5l-.35,1a37.38,37.38,0,0,0-.2,4c0,.24,0,.49,0,.75s0,.56.08.85a8.81,8.81,0,0,1-6.85,5.65,38.31,38.31,0,0,1-4.58.18c-.09-.36-.2-.71-.32-1.05a1.62,1.62,0,0,1,.1-.18A5.93,5.93,0,0,0,167,224a6.2,6.2,0,0,0-2.75-4,6.07,6.07,0,0,0-4.75-.9,5.92,5.92,0,0,0-3.87,2.55c-.32,0-.65.06-1,.1a8.11,8.11,0,0,0-1.87.45,24.1,24.1,0,0,1-2.28-6.5v0a.46.46,0,0,1,0-.2ZM392.57,399.19q-.44,3-1.17,7.87c-.2.1-1.57.94-4.1,2.5q-3.35,5.2-11,5.75a22,22,0,0,1-12.65-2.7q-.15-3.35,3.05-6.5a2.83,2.83,0,0,0,1.85,2.45,11.46,11.46,0,0,0,4,.5,13,13,0,0,0,7.45-2.35,10.89,10.89,0,0,0,3.65-4,9.77,9.77,0,0,0,.55-1.6,28.63,28.63,0,0,1,1.15-3.15c.38-.93.84-2,1.4-3.3a46.16,46.16,0,0,0,2.25-6.2,38.63,38.63,0,0,0,4.65-.35,76.93,76.93,0,0,1-.85,9.55C392.73,398.08,392.66,398.61,392.57,399.19Zm39.53,43.42-4-.7v-24.8l-10.65-1.95V396.71l14.6,2.55Zm36.8-70v63.55l-4-.7V382.11l-10.65-1.9V370.06l.52.13Zm-178.45-231-.55,1.9-3-.55-.15-1.35c-.33-3-.82-4.83-1.45-5.6a19.41,19.41,0,0,1-1.35-1.65,2.2,2.2,0,0,1-.4-1.1l.25-1.45v0a6,6,0,0,1,1.2-.35,3.32,3.32,0,0,1,1.1-.1,5.86,5.86,0,0,0,1.15,1.85v.65q.25.81.75,2.1ZM253.3,128.11a7.37,7.37,0,0,0,2.65-1.55,3.13,3.13,0,0,1-.4.35.37.37,0,0,0,0,.15.25.25,0,0,1,.05.15c.17.37.35.75.55,1.15q.19.36.45.75a20.72,20.72,0,0,0,4.35,4.45,77.19,77.19,0,0,1,4.3,12.9q1.45,4.5,1.2,15.2-.25,9.9,2.05,15.05a130.46,130.46,0,0,1,5.8,15.15c0,.12.07.24.1.35a53.57,53.57,0,0,1,2.25,14.7q0,.75-.45,6t-.5,6a19.69,19.69,0,0,1-1.1,5.23l-21.57-3.75a49.42,49.42,0,0,0,1.47-5,109.88,109.88,0,0,0,3.8-13.85,29.36,29.36,0,0,0,.3-7,20.61,20.61,0,0,0-1.75-6.9,145.33,145.33,0,0,1-7.5-13.65q-3-6.19-6.3-14.25a17,17,0,0,1,5.5-4.25,52.89,52.89,0,0,1,6.55-2.45,11.22,11.22,0,0,0,4.15-3.75,14.39,14.39,0,0,0,.9-1.7,13.72,13.72,0,0,0,1.05-7.3,9,9,0,0,0-.25-1.6,15.71,15.71,0,0,0-2.15-5.5A13.61,13.61,0,0,0,253.3,128.11Zm141.8,144.7v15.55c.17.5-.72.94-2.65,1.3a40.18,40.18,0,0,1-7.25.45,50.73,50.73,0,0,1-7.7-.6c-2.17-.4-3.33-.85-3.5-1.35a.36.36,0,0,1,0-.25v-21.3c.17.5,1.33.95,3.5,1.35a50.73,50.73,0,0,0,7.7.6,37.17,37.17,0,0,0,7.25-.5c1.6-.26,2.48-.61,2.65-1.05v5.8Zm-14.4-5.45q-1.76-.35-1.95-.75c-.07-.3.42-.53,1.45-.7a20.25,20.25,0,0,1,4-.25,25.46,25.46,0,0,1,4.15.3c1.17.24,1.82.5,1.95.8s-.42.5-1.45.7a22.47,22.47,0,0,1-4,.2A25.46,25.46,0,0,1,380.7,267.36Zm-9.2,127.5a11.12,11.12,0,0,1-1.52.95,16.66,16.66,0,0,1-6.28,1.6q-5.59.15-8.3.45a29.79,29.79,0,0,1-13,3.4,33.12,33.12,0,0,1-13.25-2.35,8.69,8.69,0,0,1,3.05-4.85l.2.1a11.35,11.35,0,0,0,4.7,1.1,17.76,17.76,0,0,0,7.17-1.55,27.22,27.22,0,0,0,7.28-4.8,6.36,6.36,0,0,0,.85-.8,24.74,24.74,0,0,0,6.05-8l.8-.25c.43.07.87.12,1.3.15a7.73,7.73,0,0,0,4.05-.95,5.71,5.71,0,0,0,2.9-4.5c.3-1.23.65-1.26,1.05-.1.13.5.35,1.45.65,2.85.07,1,.63,3.9,1.7,8.7A22.25,22.25,0,0,1,371.5,394.86Z"></path><path class="cls-30" d="M305,172q-.34-3.15-.45-5.25c-.1-1.4-.17-2.33-.2-2.8a7.44,7.44,0,0,0-.1-1v-.3q-.3-20.4-10.9-33.65a19,19,0,0,1,7.4,3.25q4.6,7.26,6.25,18.15a59.29,59.29,0,0,1,.85,6.65,13.84,13.84,0,0,0,2.35,6.55q2.06,2.66,8,6.8,7.84,5.5,13,5.5,4.84,0,21.3-17,3.75-3.84,10-10.35c.07.14.15.29.25.45q-1,1.6-4.2,6.35t-9.1,12l-1.85,2.35a2.21,2.21,0,0,0-.25.3,0,0,0,0,0-.05,0l-9,11.15a16.3,16.3,0,0,1-5.5,3.8,7.46,7.46,0,0,1-6.55-.1,31,31,0,0,1-8.9-4.4c-.67-.46-1.35-1-2.05-1.45A104.66,104.66,0,0,0,305,172Zm-68.08-6.5a39,39,0,0,1-4.29,3,30.83,30.83,0,0,1-3.33,1.7q-9.41,4.15-15.25-2.75a5.18,5.18,0,0,1-.35-.75q8.74-2.6,12.55-4.1a23.39,23.39,0,0,0,7.5-5.4q2.36-2.29,6.25-6.55a46.21,46.21,0,0,1,10.55-7.6,55.46,55.46,0,0,1,10.5-4.45,9,9,0,0,1,.25,1.6,13.72,13.72,0,0,1-1.05,7.3,14.39,14.39,0,0,1-.9,1.7,11.22,11.22,0,0,1-4.15,3.75,52.89,52.89,0,0,0-6.55,2.45,17,17,0,0,0-5.5,4.25A56.42,56.42,0,0,1,236.87,165.51Z"></path><path class="cls-31" d="M355.32,142.34a11.86,11.86,0,0,1,5.63,4.2,22.41,22.41,0,0,1,1.45,2.12q-6.25,6.51-10,10.35-16.45,17-21.3,17-5.14,0-13-5.5-5.89-4.14-8-6.8a13.84,13.84,0,0,1-2.35-6.55,59.29,59.29,0,0,0-.85-6.65q-1.65-10.89-6.25-18.15a22.87,22.87,0,0,1,2.7,2.3,29.75,29.75,0,0,1,6.5,9.9l5.4,8.2,1.1,1.2q.94,1,2,2,3.4,3.25,10.45,9.65,11.2-9.45,16.15-14c1.57-1.56,3-3,4.25-4.45S352,144,354,142A9.8,9.8,0,0,1,355.32,142.34Z"></path><path class="cls-32" d="M295.4,89.21a20.91,20.91,0,0,1-3.75,1,35.33,35.33,0,0,1-8.45.08c-1.24-.12-2.52-.3-3.85-.53s-3-.56-4.5-.95a12.54,12.54,0,0,1-7.75-5.2,3.7,3.7,0,0,1-.17-.4,3.79,3.79,0,0,1,0-2.45q5.36-3.9,14.2-1.95,1.06.26,2.1.6a23.32,23.32,0,0,1,5.65,3,18,18,0,0,1,6,6A4.18,4.18,0,0,0,295.4,89.21Zm-31.55-6c.07.19.13.37.2.55.23.65.47,1.28.7,1.9q1.69,2.16,7.15,5.6a39,39,0,0,0,5.3,3A17,17,0,0,1,274.75,98c-.53.5-1.32,1.34-2.35,2.5l-.15-.05q-6.94-3-11-11.9a2.73,2.73,0,0,1-.45-1.1v-.1a21.69,21.69,0,0,1,2.25-3.22C263.3,83.82,263.57,83.52,263.85,83.21ZM396.07,307.79q3.76-.48,7.41-1a31,31,0,0,0-7.1,15.2,36.91,36.91,0,0,0-.53,5c0,.7-.06,1.41-.1,2.13a261.12,261.12,0,0,1-3.95,31.72q-3.49,20.1-5.65,27.5a44,44,0,0,0-5.4-.55l.05-.45a72.1,72.1,0,0,0,4.2-18.15q1-12.45,1.6-18.65a89.52,89.52,0,0,1,2.55-12,36.52,36.52,0,0,0,1.33-10.35c0-.61-.1-1.19-.18-1.75a22.23,22.23,0,0,1,.13-5.52,24.47,24.47,0,0,1,.72-3.48,29.19,29.19,0,0,1,3.75-8.25l.6-.45ZM358.7,379.61l-3.4-1.7a28.61,28.61,0,0,0-.25-2.9q-.26-4.8-1.2-11.8-1.1-7.84-1.6-11.7-1.69-14.19-.25-23.6a35.17,35.17,0,0,0,.3-5c-.07-2.23-.1-3.91-.1-5.05a24.69,24.69,0,0,1,.73-6.37l5.57-.3a31.61,31.61,0,0,0-1.45,9.77q0,8.31,1.95,27.8t1.95,26.3a34.83,34.83,0,0,1-.4,4.95c-.43,0-.87-.08-1.3-.15Z"></path><path class="cls-33" d="M277.25,94.26a4.13,4.13,0,0,1,2.05.6l-.15-.1-1-.25-.25-.05a5.82,5.82,0,0,1-.6-.2v0l-.05,0Z"></path><path class="cls-34" d="M437.1,165a13.88,13.88,0,0,0-3.2-2.12l-.55-.28A49.72,49.72,0,0,0,423,159c-1-.2-1.88-.36-2.75-.5a65.49,65.49,0,0,0-7.6-2.65,23.09,23.09,0,0,0-8.85-.45q-.39-.45-.75-.9a20.15,20.15,0,0,1-3.25-5.2,5.56,5.56,0,0,1,.65-5.5q-.19,1.71,2.8,4.05a13.17,13.17,0,0,0,6.3,2.08,39.32,39.32,0,0,0,4.6.27,79,79,0,0,1,12.53.9l.52.1a20.06,20.06,0,0,1,8.75,3.9,1.49,1.49,0,0,1-.15-.4,17.73,17.73,0,0,1,1.5,7.9C437.22,163.41,437.17,164.2,437.1,165Zm-9,13.73a11.54,11.54,0,0,1-5.52.77l.38-.2a10.39,10.39,0,0,0,4.47-4.5q1.65-3.24-1.5-4.85-3.94,4.56-4.55,2.65c-.47-1.23-.88-2.36-1.25-3.4a7,7,0,0,1-.45-2.95,2.78,2.78,0,0,1-.7-1.1c.6.07,1.23.15,1.9.25l1.65.15q5.87.5,8.55.75c1.15.14,2.16.28,3,.43a21.33,21.33,0,0,1,2.56.52A21.11,21.11,0,0,1,435.4,171a15.61,15.61,0,0,1-5,6.45A11.72,11.72,0,0,1,428.07,178.69ZM277.25,94.26a5.82,5.82,0,0,0,.6.2l.25.05a1.62,1.62,0,0,1-.85-.2Z"></path><path class="cls-35" d="M172.7,408.41a38.35,38.35,0,0,1,6.4,1,8.22,8.22,0,0,1,5.05,3.7,10.17,10.17,0,0,1,1.5,3.3q.34,1.21.87,3.63l0,.12c.77,3,2.08,4.79,3.95,5.35a17.44,17.44,0,0,1-5.8-.2c-3-.53-5-.81-5.8-.85a11.07,11.07,0,0,0,0,3.45q0,1.95-2,1.5-.37-4.47-1.08-8.52A72,72,0,0,0,172.7,408.41ZM207,419.81a6.84,6.84,0,0,0-.85-1.2,9,9,0,0,0-.73,1.15A14.47,14.47,0,0,0,204,426c-.1,1.8-.12,4.49-.05,8.05-1.23.24-1.92-.5-2-2.2a15.87,15.87,0,0,0-.35-4.2,23.05,23.05,0,0,0-1.87-7.9c0-.11-.08-.23-.13-.35-1.47-3.8-2.23-6.23-2.3-7.3a18.69,18.69,0,0,1,4,.65,19.07,19.07,0,0,1,7.72,4.45,25.28,25.28,0,0,1,2.6,2.75.35.35,0,0,1,0,.08,36.9,36.9,0,0,1,4.8,7.82q1,3.26,5.1,3.4a21.39,21.39,0,0,0,3.65-.15,25.25,25.25,0,0,1,3.4-.05,27.3,27.3,0,0,1-8.85,1,31.26,31.26,0,0,1-8.8-1.75,28.66,28.66,0,0,1-2.25-6.05A19.36,19.36,0,0,0,207,419.81Z"></path><path class="cls-36" d="M407.93,330.84q.29-3.61.45-7.25,3.45.2,7.52.12a90.69,90.69,0,0,0,15.9-1.3l33.3-5.85q6.79-1.2,7.35-2.85v6.75a1.69,1.69,0,0,1,0,.55q-.56,1.61-7.35,2.85l-33.3,5.85a98,98,0,0,1-15.9,1.3C413,331,410.35,331,407.93,330.84Zm-32.38-12.53,14.88,2.63a22.23,22.23,0,0,0-.13,5.52c.08.56.14,1.14.18,1.75l-19.18-3.35c-.92-.17-1.73-.34-2.42-.52l-.13-.33a9.77,9.77,0,0,1-.55-1.6C370.92,320.87,373.37,319.51,375.55,318.31Z"></path><path class="cls-37" d="M538.45,395.31,524,397.86h0l-3.9-.7v-3.65l3.9-.7ZM399.35,187.14a1.41,1.41,0,0,1,.25.42c.13.24.63.47,1.5.7l3.45.15.18,0-.18.22a61.53,61.53,0,0,0-4.5,9.25,30.35,30.35,0,0,0-2.35,10.3,10.23,10.23,0,0,0,.25,2.4,18.11,18.11,0,0,0,1.2,2.85,4.82,4.82,0,0,0,.8.05l.05-.1,3.95,6.15.8,1,2.35-2,5.3-4.65,1.15.2a142.54,142.54,0,0,0,11.85-13.55q4.39-6.15,5.05-11.4A88.35,88.35,0,0,1,440.5,197a22.66,22.66,0,0,0-6,3.1,37.09,37.09,0,0,0-8.5,8q-3.9,5.16-3.9,9.4a52.06,52.06,0,0,0,1.75,13.25q1,4,3.8,11.4a115.06,115.06,0,0,1,3.8,11.35,53.52,53.52,0,0,1,1.65,10.15,18.44,18.44,0,0,0-2,1.05,14.12,14.12,0,0,0-5.25-1.8,5.83,5.83,0,0,0-2.52.28c-2.91-.59-6-1.16-9.28-1.73q-10.62-1.83-22.33-3.22l.93-2.23a27.84,27.84,0,0,0,1.65-6.1,36.64,36.64,0,0,0-3.8-22.85q-2.81-7.65-2.7-13a63.63,63.63,0,0,1,2.4-14.1q2.4-8.79,3.2-11.35a1.52,1.52,0,0,1-.55.2,3.82,3.82,0,0,0,.6-.25,41.49,41.49,0,0,1,4.65-1.15ZM450.5,384.56h-.05L435.85,382l14.6-2.5,3.8.7,10.65,1.9ZM230.2,237.46v.25l-4.6,11.9a36.77,36.77,0,0,0,7.55-3.4,39.79,39.79,0,0,1,4.8-2.5l1.65-4.3a.8.8,0,0,1,.15-.2.92.92,0,0,1,.25-.05,1.3,1.3,0,0,1,.2.15.23.23,0,0,1,0,.2l-1.55,4.05c.53-.06,1.07-.11,1.6-.15,3.23.14,5.72,1.05,7.45,2.75l1.9-4.95q0-.15.15-.15a.54.54,0,0,1,.25-.1.36.36,0,0,1,.2.15.25.25,0,0,1,.05.25l-2.05,5.35a9.21,9.21,0,0,1,2.05,4.2c.67,2.8,2.08,4.64,4.25,5.5l5.15-13.4q0-.09.15-.15a.27.27,0,0,1,.25-.05q.1,0,.15.15a.25.25,0,0,1,.05.15l-5.2,13.5a11.33,11.33,0,0,0,4.7.15.12.12,0,0,0,.1-.05,21.31,21.31,0,0,0,6-2.2l3.7-9.7a.62.62,0,0,1,.2-.2c.1,0,.17,0,.2,0s.22,0,.25.1a.36.36,0,0,1,0,.25l-8.5,22.2a.29.29,0,0,1-.2.15.21.21,0,0,1-.25.05l-40.05-7.2a.65.65,0,0,1-.2-.15s0-.1,0-.2l8.5-22.2a.62.62,0,0,1,.2-.2.2.2,0,0,1,.25,0A.3.3,0,0,1,230.2,237.46Zm3.25,9.25a40.19,40.19,0,0,1-8.1,3.55l-3.6,9.4,9.45,1.7,6.5-17Q236.5,245,233.45,246.71Zm-1.9-9.25,5.75,1-.8,2-5.7-1Zm36-4.05.75-1.4,9.3,1.5-.75,1.4Zm-9,.9-1.95-.3,1-1.8,1.95.35Zm-2.15,10.05-5.7-1.05.8-2,5.65,1.05Zm-3.75-16.05a.77.77,0,0,1,0,.75,1.83,1.83,0,0,1-.7.65,1.47,1.47,0,0,1-.85.15.84.84,0,0,1-.65-.4.77.77,0,0,1,.05-.7,1.54,1.54,0,0,1,.7-.65,1.16,1.16,0,0,1,.85-.15A.71.71,0,0,1,252.65,228.31Zm-11.45,1-.8,1.4-6.25-1.05.75-1.35Zm.25,10,5.7,1.05-.75,1.95-5.7-1Zm-1.3,4.75a7.81,7.81,0,0,0-1.75.1l-6.6,17.3,9.4,1.65,6.25-16.25C245.78,245.1,243.35,244.16,240.15,244.06ZM254.25,257c-2.37-.9-3.9-2.86-4.6-5.9a9.16,9.16,0,0,0-1.75-3.7l-6.1,15.85,9.4,1.7Zm5.5.3a.49.49,0,0,1-.25.05,11.5,11.5,0,0,1-4.65-.2l-3,7.9,9.4,1.7,4.45-11.6a31.17,31.17,0,0,1-3,1.35A22.38,22.38,0,0,1,259.75,257.31Z"></path><path class="cls-38" d="M341.7,248l-.15.28L341,248C341.24,248,341.47,248,341.7,248Z"></path><path class="cls-39" d="M404,219.51q.26-1.39.45-3c.17-1.06.35-2.11.55-3.15.13-.8.23-1.58.3-2.35a4.09,4.09,0,0,1,.1-1.1,12.36,12.36,0,0,1-1.3-3.95c0-.3-.07-.58-.1-.85l.5-1.2,1,.15,2.55.4,1.45,3.3a5.14,5.14,0,0,1-.85,1.55,1.38,1.38,0,0,1-.35.4,49.66,49.66,0,0,1-.55,5c-.13.9-.28,1.79-.45,2.65q-.11.56-.15,1.05l-2.35,2Z"></path><path class="cls-40" d="M358.45,380.11a3.33,3.33,0,0,0,.25-.5l.55.25Z"></path><path class="cls-41" d="M363.65,412.61a22,22,0,0,0,12.65,2.7q7.65-.54,11-5.75c2.53-1.56,3.9-2.4,4.1-2.5.53.9.47,2.14-.2,3.7a3.4,3.4,0,0,1-3.5,2.4,18.94,18.94,0,0,1-10.7,4.25,29.67,29.67,0,0,1-11.7-1.3,1.78,1.78,0,0,1-1.5-1.35A7.52,7.52,0,0,1,363.65,412.61ZM371.7,396q.32,3.75-3.7,5.05a21,21,0,0,1-8.35.45,5.59,5.59,0,0,0-5.45-1q-.45.11-5.4,2.35-8.81,2.06-18.9-1.4c-.63-.13-1-.46-1-1a8.89,8.89,0,0,1,.25-1.55,33.12,33.12,0,0,0,13.25,2.35,29.79,29.79,0,0,0,13-3.4q2.7-.3,8.3-.45a16.66,16.66,0,0,0,6.28-1.6,11.12,11.12,0,0,0,1.52-.95A10.71,10.71,0,0,1,371.7,396Z"></path><path class="cls-42" d="M435.75,154.71a1.49,1.49,0,0,0,.15.4,20.06,20.06,0,0,0-8.75-3.9l-.52-.1a79,79,0,0,0-12.53-.9,39.32,39.32,0,0,1-4.6-.27,13.17,13.17,0,0,1-6.3-2.08q-3-2.34-2.8-4.05a5.74,5.74,0,0,1,.85-.95c2.23.94,3.5,1.44,3.8,1.5a8,8,0,0,0,4,.35,34.31,34.31,0,0,1,14.85,1.4,21.37,21.37,0,0,1,11.8,8.5A.19.19,0,0,1,435.75,154.71Zm.88,12.5a21.33,21.33,0,0,0-2.56-.52c-.86-.15-1.87-.29-3-.43q-2.69-.25-8.55-.75l-1.65-.15c-.67-.1-1.3-.18-1.9-.25a2.52,2.52,0,0,1,0-1.82,5.33,5.33,0,0,1,.27-.68,12.67,12.67,0,0,0,1.85-3.75l-.55-.25a2.47,2.47,0,0,1-.35-.1h.05c.87.14,1.78.3,2.75.5a49.72,49.72,0,0,1,10.4,3.55l.55.28a13.88,13.88,0,0,1,3.2,2.12,4.15,4.15,0,0,1-.15.7.3.3,0,0,1-.05.2l0,.33c-.06.33-.12.67-.2,1Z"></path><path class="cls-43" d="M255.2,310.66q-26.2-1.83-47.85-5.55-42.14-7.29-42.75-17.5a10.36,10.36,0,0,0,1-1.45,10.37,10.37,0,0,0,4.15,0q9.7,6.09,37.6,10.92a487,487,0,0,0,49.7,5.68q6.49.43,13.25.77,4.14.19,8.38.35c2,.08,4.05.14,6.09.2q6.38.18,13,.28c2.65,0,5.32.06,8,.07h5q24.58,0,46.25-1.2,3-.15,5.9-.35,20.3-1.31,37.92-3.75l.41-.05c3.87-.54,7.66-1.12,11.34-1.75l1.53-.25a197.1,197.1,0,0,0,26.38-6.05q11.17-3.6,14.75-7.75a6.11,6.11,0,0,1,1.67,4q0,7.26-20.65,13-9.08,2.52-22.15,4.77-5.19.9-10.62,1.68-3.64.52-7.41,1-17.51,2.23-37.57,3.4l-5.57.3q-19.89,1-42.18,1l-6.12,0q-4.39,0-8.68-.1-6.72-.1-13.2-.3l-6.5-.23q-4.14-.17-8.17-.37Q261.5,311.11,255.2,310.66Z"></path><path class="cls-44" d="M231.55,224.56l11.3,1.8.75-1.4-11.25-1.8Zm-1.35,12.9a.3.3,0,0,0-.2-.05.2.2,0,0,0-.25,0,.62.62,0,0,0-.2.2l-8.5,22.2c0,.1,0,.17,0,.2a.65.65,0,0,0,.2.15l40.05,7.2a.21.21,0,0,0,.25-.05.29.29,0,0,0,.2-.15l8.5-22.2a.36.36,0,0,0,0-.25c0-.06-.12-.1-.25-.1s-.1,0-.2,0a.62.62,0,0,0-.2.2l-3.7,9.7a21.31,21.31,0,0,1-6,2.2.12.12,0,0,1-.1.05,11.33,11.33,0,0,1-4.7-.15l5.2-13.5a.25.25,0,0,0-.05-.15q0-.15-.15-.15a.27.27,0,0,0-.25.05q-.15.06-.15.15l-5.15,13.4c-2.17-.86-3.58-2.7-4.25-5.5a9.21,9.21,0,0,0-2.05-4.2l2.05-5.35a.25.25,0,0,0-.05-.25.36.36,0,0,0-.2-.15.54.54,0,0,0-.25.1q-.1,0-.15.15l-1.9,4.95c-1.73-1.7-4.22-2.61-7.45-2.75-.53,0-1.07.09-1.6.15l1.55-4.05a.23.23,0,0,0,0-.2,1.3,1.3,0,0,0-.2-.15.92.92,0,0,0-.25.05.8.8,0,0,0-.15.2l-1.65,4.3a39.79,39.79,0,0,0-4.8,2.5,36.77,36.77,0,0,1-7.55,3.4l4.6-11.9Zm1.35,0-.75,2,5.7,1,.8-2ZM232.3,227l9.35,1.5.75-1.35-9.3-1.55Zm-15.2,34.35L232,220.11l49.65,8.6L266.75,270Zm52.25-25.3,6.3,1.05.75-1.4-6.3-1.05Zm-1.8-2.65,9.3,1.5.75-1.4-9.3-1.5Zm-.75-2.55,11.25,1.9.8-1.4-11.3-1.85Zm-5.1.7a1.8,1.8,0,0,0,.85-.2,1.51,1.51,0,0,0,.75-.6.77.77,0,0,0,0-.75.71.71,0,0,0-.6-.35,1.32,1.32,0,0,0-.9.15,1.7,1.7,0,0,0-.65.6,1,1,0,0,0-.1.75A1,1,0,0,0,261.7,231.56Zm-5.4-2.2a1.7,1.7,0,0,0-.65.6.91.91,0,0,0-.1.7.77.77,0,0,0,.65.4,1.07,1.07,0,0,0,.85-.15,1.44,1.44,0,0,0,.7-.65.77.77,0,0,0,0-.75c-.07-.16-.27-.28-.6-.35A1,1,0,0,0,256.3,229.36Zm2.25,4.95,1-1.75-1.95-.35-1,1.8Zm-3.2-.55,1-1.8-2-.2-1,1.8Zm4.5.75,1.95.35.95-1.8-1.9-.3Zm-3.45,9.85.75-2-5.65-1.05-.8,2Zm-3.75-16.05a.71.71,0,0,0-.6-.35,1.16,1.16,0,0,0-.85.15,1.54,1.54,0,0,0-.7.65.77.77,0,0,0-.05.7.84.84,0,0,0,.65.4,1.47,1.47,0,0,0,.85-.15,1.83,1.83,0,0,0,.7-.65A.77.77,0,0,0,252.65,228.31Zm.4,3.15-1.9-.3-1,1.8,1.9.3Zm-7.5.75,1-1.8-2-.35-.95,1.75Zm1.3.25,2,.3,1-1.8-2-.3Zm-5.65-3.15-6.3-1-.75,1.35,6.25,1.05Zm.25,10-.75,2,5.7,1,.75-1.95Z"></path><polygon class="cls-45" points="266.2 275.11 266.25 275.06 266.25 275.11 266.2 275.11"></polygon><path class="cls-46" d="M233.45,246.71q3-1.74,4.25-2.3l-6.5,17-9.45-1.7,3.6-9.4A40.19,40.19,0,0,0,233.45,246.71Zm20.8,10.3L251.2,265l-9.4-1.7,6.1-15.85a9.16,9.16,0,0,1,1.75,3.7C250.35,254.15,251.88,256.11,254.25,257Z"></path><path class="cls-47" d="M245.55,232.21l-1.9-.4.95-1.75,2,.35Zm14.2,25.1a22.38,22.38,0,0,0,2.9-.8,31.17,31.17,0,0,0,3-1.35l-4.45,11.6-9.4-1.7,3-7.9a11.5,11.5,0,0,0,4.65.2A.49.49,0,0,0,259.75,257.31Z"></path><path class="cls-48" d="M232.3,227l.8-1.4,9.3,1.55-.75,1.35Zm37.05,9.05.75-1.4,6.3,1.05-.75,1.4Zm-7.65-4.5a1,1,0,0,1-.65-.4,1,1,0,0,1,.1-.75,1.7,1.7,0,0,1,.65-.6,1.32,1.32,0,0,1,.9-.15.71.71,0,0,1,.6.35.77.77,0,0,1,0,.75,1.51,1.51,0,0,1-.75.6A1.8,1.8,0,0,1,261.7,231.56Zm-8.65-.1-1,1.8-1.9-.3,1-1.8Z"></path><path class="cls-49" d="M180.33,355.26l-7.83,1.38-1.9.32a98,98,0,0,1-15.9,1.3,80.6,80.6,0,0,1-15.1-1l-29.5-5.15q-5.7-1-5.5-2.5v-7.1c.13.9,2,1.67,5.5,2.3l29.5,5.2a78.61,78.61,0,0,0,15.1.95,90.69,90.69,0,0,0,15.9-1.3l33.3-5.85q6.79-1.2,7.35-2.85v6.75a1.69,1.69,0,0,1,0,.55q-.56,1.61-7.35,2.85l-4.47.78-3.33.57-5.35,1Z"></path><path class="cls-50" d="M413.6,419.51l.15,26.1-14.65-2.35V417.11Zm-263-109.45q-2.29,1.2-4.4,2.15a32,32,0,0,1-14.95,2.55,30.76,30.76,0,0,1-5.35-2.25,17.62,17.62,0,0,1-4.55-3.45q.89-4.23,2.67-11.2A25.43,25.43,0,0,0,137.4,294a38.67,38.67,0,0,0,14.9-16.35,59.3,59.3,0,0,0,6-20.6,21.85,21.85,0,0,1,3.85-10.45,22,22,0,0,0,4.18-9.92,13.08,13.08,0,0,1,4.42,2.22c1.5,1.22,2.49,2,2.95,2.3q-5.59,2-8.1,4.9-3.34,4-3.35,12.65a14,14,0,0,0,2.45,7.85q2.51,3.66,2.5,5.35,0,.55-3.1,3.1-4.54,3.71-6.9,5.9-9.9,9.6-9.9,18.55Q149,305.52,150.6,310.06Zm336.65,67.2v55.6l-3.95-.7v-55.6Z"></path></g></g></svg> 