<svg xmlns="http://www.w3.org/2000/svg" width="180.599" height="150.15" viewBox="0 0 82.599 54.15">
                        <g id="Group_30" data-name="Group 30" transform="translate(-841.401 -1844.891)">
                          <path id="instagram" d="M9.562,36.305a4.72,4.72,0,1,0,0,9.43,4.72,4.72,0,1,0,0-9.43Zm0,7.781a3.069,3.069,0,1,1,0-6.131,3.069,3.069,0,1,1,0,6.131Zm6.294-7.974a1.153,1.153,0,1,1-1.152-1.1A1.124,1.124,0,0,1,15.856,36.112Zm3.271,1.116a5.308,5.308,0,0,0-1.556-3.853,5.894,5.894,0,0,0-4.037-1.486c-1.591-.086-6.358-.086-7.949,0a5.886,5.886,0,0,0-4.037,1.481A5.325,5.325,0,0,0-.007,37.224c-.09,1.518-.09,6.069,0,7.588a5.308,5.308,0,0,0,1.556,3.853,5.9,5.9,0,0,0,4.037,1.486c1.591.086,6.358.086,7.949,0a5.855,5.855,0,0,0,4.037-1.486,5.343,5.343,0,0,0,1.556-3.853C19.217,43.294,19.217,38.747,19.127,37.229Zm-2.055,9.213a3.181,3.181,0,0,1-1.831,1.748c-1.268.48-4.277.369-5.679.369s-4.415.107-5.679-.369a3.181,3.181,0,0,1-1.831-1.748c-.5-1.211-.387-4.083-.387-5.421s-.112-4.215.387-5.421a3.181,3.181,0,0,1,1.831-1.748c1.268-.48,4.277-.369,5.679-.369s4.415-.107,5.679.369A3.181,3.181,0,0,1,17.072,35.6c.5,1.211.387,4.083.387,5.421S17.575,45.235,17.072,46.441Z" transform="translate(883.5 1813.087)" fill="#fff"/>
                          <path id="twitter" d="M16.637,51.721c.012.16.012.319.012.479A10.567,10.567,0,0,1,5.836,62.682,10.987,10.987,0,0,1,0,61.029a8.107,8.107,0,0,0,.918.046A7.765,7.765,0,0,0,5.636,59.5a3.794,3.794,0,0,1-3.553-2.555A4.94,4.94,0,0,0,2.8,57a4.139,4.139,0,0,0,1-.125A3.715,3.715,0,0,1,.753,53.261v-.046a3.919,3.919,0,0,0,1.718.468A3.654,3.654,0,0,1,.777,50.614a3.572,3.572,0,0,1,.518-1.859A10.918,10.918,0,0,0,9.13,52.61a4.037,4.037,0,0,1-.094-.844,3.742,3.742,0,0,1,3.8-3.684,3.848,3.848,0,0,1,2.777,1.163,7.627,7.627,0,0,0,2.412-.89,3.7,3.7,0,0,1-1.671,2.03,7.808,7.808,0,0,0,2.188-.57,8.038,8.038,0,0,1-1.906,1.9Z" transform="translate(841.401 1815.509)" fill="#fff"/>
                          <path id="linkedin" d="M15.6,32H1.2A1.222,1.222,0,0,0,0,33.243V48a1.222,1.222,0,0,0,1.2,1.243H15.6A1.225,1.225,0,0,0,16.8,48V33.243A1.225,1.225,0,0,0,15.6,32ZM5.078,46.78H2.588V38.551H5.082V46.78ZM3.833,37.427a1.482,1.482,0,0,1,0-2.964,1.482,1.482,0,0,1,0,2.964Zm10.58,9.353h-2.49v-4c0-.955-.019-2.182-1.294-2.182-1.3,0-1.5,1.039-1.5,2.113V46.78H6.642V38.551H9.031v1.124h.034a2.612,2.612,0,0,1,2.359-1.328c2.52,0,2.989,1.705,2.989,3.922Z" transform="translate(907.198 1828.948)" fill="#fff"/>
                          <path id="facebook" d="M25.655,16.6A8.715,8.715,0,0,0,16.828,8,8.715,8.715,0,0,0,8,16.6a8.676,8.676,0,0,0,7.448,8.5v-6.01H13.206V16.6h2.243V14.706a3.074,3.074,0,0,1,3.334-3.346,13.934,13.934,0,0,1,1.976.168v2.115H19.645a1.259,1.259,0,0,0-1.438,1.343V16.6h2.448l-.392,2.486H18.207V25.1A8.676,8.676,0,0,0,25.655,16.6Z" transform="translate(851.67 1836.891)" fill="#fff"/>
                          <g id="online-ads-icon" transform="translate(856.074 1858.973)">
                            <path id="Path_21" data-name="Path 21" d="M20.766,10.418a1.688,1.688,0,0,0,.062.854,2.642,2.642,0,0,0,.155.389,2.429,2.429,0,0,0,.226.385,2.683,2.683,0,0,0,.279.35,2.3,2.3,0,0,0,.31.283l0,0a1.649,1.649,0,0,0,.85.367,2.484,2.484,0,0,0,1.288-.5l.075-.049.009,0c.133-.088.265-.168.394-.252a.339.339,0,0,1,.243-.04.319.319,0,0,1,.195.133.133.133,0,0,1,.027.049l.128.23,0,0c.168.305.332.6.509.894a8.708,8.708,0,0,0,.509.774l0,0,.018.027c.018.027.044.062.075.1l0,0c.106.142.212.292.323.425a1.921,1.921,0,0,0,.319.314h0a.273.273,0,0,0,.217.058.527.527,0,0,0,.27-.226l.066-.106.066-.1,0,0a2.457,2.457,0,0,0,.181-.31.746.746,0,0,0,.071-.239,1.113,1.113,0,0,0-.137-.022h0c-.354-.044-.7-.084-.814-.766v0h0l-.013-.084h0c-.013-.088-.022-.155-.031-.195a.278.278,0,0,0-.013-.058v.009h0c-.031-.018-.066-.035-.111-.058l-.04-.018h0A.732.732,0,0,1,26.2,12.8a1.048,1.048,0,0,1-.168-.363h0a2.146,2.146,0,0,1-.066-.416,2.588,2.588,0,0,1,.013-.46v0a.345.345,0,0,1,.058-.15l0-.009a.338.338,0,0,1,.124-.1s.009,0,.013,0a9.48,9.48,0,0,1,4.146-.907A11.815,11.815,0,0,1,27.5,7.56,12.549,12.549,0,0,1,25.6,3.922a10.95,10.95,0,0,1-1.1,2.341c-.637,1-3.571,3.438-3.735,4.155ZM10.124,25.688H44.249v8.367H10.124V25.688Zm13.394,5.673H21.965l-.221.73h-1.4l1.668-4.434h1.5l1.664,4.434H23.744l-.226-.73Zm-.288-.96-.482-1.593L22.261,30.4Zm2.305-2.748h2.035a2.411,2.411,0,0,1,.973.164,1.62,1.62,0,0,1,.615.469,1.951,1.951,0,0,1,.35.712,3.192,3.192,0,0,1,.111.858,2.918,2.918,0,0,1-.164,1.1,1.771,1.771,0,0,1-.451.655,1.492,1.492,0,0,1-.619.354,3.209,3.209,0,0,1-.819.119H25.531V27.653Zm1.367,1v2.42h.336a1.471,1.471,0,0,0,.615-.093.629.629,0,0,0,.283-.332,2.054,2.054,0,0,0,.1-.77,1.484,1.484,0,0,0-.23-.965.981.981,0,0,0-.765-.261H26.9ZM30,30.622l1.3-.08a.951.951,0,0,0,.173.482.731.731,0,0,0,.606.27.663.663,0,0,0,.451-.137.415.415,0,0,0,.159-.319.408.408,0,0,0-.15-.31,1.693,1.693,0,0,0-.7-.257,2.918,2.918,0,0,1-1.283-.54,1.084,1.084,0,0,1-.389-.854,1.167,1.167,0,0,1,.2-.646,1.309,1.309,0,0,1,.6-.478,2.8,2.8,0,0,1,1.089-.173,2.216,2.216,0,0,1,1.3.319,1.372,1.372,0,0,1,.531,1.009l-1.288.075a.7.7,0,0,0-.217-.438.684.684,0,0,0-.456-.137.55.55,0,0,0-.358.1.312.312,0,0,0-.119.248.245.245,0,0,0,.1.19,1.155,1.155,0,0,0,.456.164,5.6,5.6,0,0,1,1.283.394A1.363,1.363,0,0,1,33.85,30a1.233,1.233,0,0,1,.177.655,1.439,1.439,0,0,1-.235.788,1.485,1.485,0,0,1-.659.544,2.664,2.664,0,0,1-1.066.186,2.218,2.218,0,0,1-1.566-.434,1.756,1.756,0,0,1-.5-1.115ZM10.124,17.812H29.147v.907H10.124v-.907Zm0,2.628H44.249v.907H10.124V20.44Zm0,2.624H44.249v.907H10.124v-.907Zm-9,14.757H6.695a.968.968,0,0,1-.721-.929V9.825a.965.965,0,0,1,.96-.96H17.943l.319,1.9H8.009V36.228H46.253V10.763H36.341l.487-1.9H47.187a.962.962,0,0,1,.96.96V36.888a.959.959,0,0,1-.721.929h5.823a1.124,1.124,0,1,1,0,2.248H1.124a1.122,1.122,0,1,1,0-2.243Zm24.483.42h3.159a.54.54,0,1,1,0,1.08H25.607a.54.54,0,1,1,0-1.08ZM29.217,1.316a.34.34,0,1,1,.341-.589,11.826,11.826,0,0,1,3.031,2.912A10.65,10.65,0,0,1,34.47,7.188a.342.342,0,1,1-.664.168,10.011,10.011,0,0,0-1.761-3.305,11.1,11.1,0,0,0-2.827-2.735Zm5.9-.748a.338.338,0,0,1,.022-.482.338.338,0,0,1,.482.022c.257.279.509.571.757.881s.469.611.69.929a.341.341,0,1,1-.562.385c-.217-.305-.438-.606-.668-.894S35.363.834,35.12.568ZM32.248.9A.339.339,0,0,1,32.7.387a14.849,14.849,0,0,1,1.832,1.982,13.916,13.916,0,0,1,1.42,2.221.339.339,0,0,1-.606.305,13.438,13.438,0,0,0-1.35-2.111A14.307,14.307,0,0,0,32.248.9ZM27.213,6a2,2,0,0,1,.973-.155A1.585,1.585,0,0,1,29.66,7.573a2.993,2.993,0,0,1-.372,1.15c.181.177.376.354.589.531a7.2,7.2,0,0,0,.907.677,4.5,4.5,0,0,0,.827.412.374.374,0,0,0,.075-.018.353.353,0,0,0,.071-.035.281.281,0,0,0,.058-.049.934.934,0,0,0,.088-.314,1.839,1.839,0,0,0-.009-.438h0A5.677,5.677,0,0,0,31.319,7.8a14.28,14.28,0,0,0-1.3-2.093,15.9,15.9,0,0,0-1.593-1.858,7.64,7.64,0,0,0-1.473-1.186h0a2.2,2.2,0,0,0-.456-.2l-.009,0a.745.745,0,0,0-.314-.035h0c-.022,0-.035,0-.049.009l0,0h0c-.009.018-.022.035-.031.053s-.013.022-.022.04l-.013.027v.013A2.648,2.648,0,0,0,26.155,3.6a8.593,8.593,0,0,0,.571,1.465c.164.336.327.646.487.938Zm-.58,7.111Zm3.96-2.066h-.009a9.228,9.228,0,0,0-3.987.779c0,.066,0,.137,0,.208a.961.961,0,0,0,.04.235h0a.627.627,0,0,0,.058.133.143.143,0,0,0,.058.058l.035.018h0l.009,0h0a.766.766,0,0,1,.381.288v0a1.2,1.2,0,0,1,.128.465h0l0,.022v0h0l.013.084v0a.232.232,0,0,0,.248.221h0c.531.062.721.31.717.637a1.909,1.909,0,0,1-.372.938h0c-.022.035-.044.071-.062.1s-.04.062-.058.088l-.009.013s0,.009-.009.013a1.152,1.152,0,0,1-.7.535.925.925,0,0,1-.7-.19,3.766,3.766,0,0,1-.761-.836l-.035-.049-.035-.049h0l-.062-.084,0-.009a9.261,9.261,0,0,1-.531-.814c-.164-.274-.332-.575-.5-.885l0,0c-.035.022-.071.044-.093.062h0l-.124.084-.009,0a2.391,2.391,0,0,1-1.655.571A2.276,2.276,0,0,1,21.39,13.2,2.934,2.934,0,0,1,21,12.838a3.977,3.977,0,0,1-.341-.425,4.087,4.087,0,0,1-.27-.465,4.134,4.134,0,0,1-.195-.487v0a2.333,2.333,0,0,1-.071-1.2c.367-1.562,3.81-3.23,5.04-7.155v0c.058-.186.111-.354.168-.513h0a2.746,2.746,0,0,1,.173-.407l0,0a.988.988,0,0,1,.088-.142.636.636,0,0,1,.124-.119.684.684,0,0,1,.159-.084,1.107,1.107,0,0,1,.19-.04h0a1.437,1.437,0,0,1,.571.053,2.891,2.891,0,0,1,.624.274l0,0a8.284,8.284,0,0,1,1.589,1.266,16.7,16.7,0,0,1,1.673,1.951,15.179,15.179,0,0,1,1.376,2.226,6.16,6.16,0,0,1,.624,1.858,2.435,2.435,0,0,1,0,.646,1.374,1.374,0,0,1-.177.527l0,0c-.261.46-1.093.451-1.6.447Z" transform="translate(0 0.005)" fill="#fff" fill-rule="evenodd"/>
                          </g>
                        </g>
                      </svg>