<svg id="iot-icon" xmlns="http://www.w3.org/2000/svg" width="85.38" height="87.154" viewBox="0 0 85.38 87.154">
  <path id="Path_369" data-name="Path 369" d="M77.263,4.333a14.8,14.8,0,0,1-16.358,24.03l-1.37,2.587a17.131,17.131,0,0,1,2.038,26.916l1.412,1.808A14.791,14.791,0,1,1,60.133,61.9c.083-.083.167-.16.25-.243L59.006,59.8a17.142,17.142,0,0,1-23.452-5.446l-8.242,4.277a14.714,14.714,0,1,1-2.066-2.608l.021.028,8.826-4.583a17.169,17.169,0,0,1,1.238-15.051l-5.613-4.361c-.139.153-.285.306-.431.452a14.711,14.711,0,1,1,2.344-3.039l5.606,4.354A17.152,17.152,0,0,1,56.7,29.413l1.412-2.657a14.468,14.468,0,0,1-1.753-1.5,14.786,14.786,0,1,1,20.9-20.921ZM52.128,49.409a2.477,2.477,0,1,1-1.753-.73,2.475,2.475,0,0,1,1.753.73Zm3.046-10.822A17,17,0,0,1,59.66,41.7a1.179,1.179,0,0,1,.369.814,1.193,1.193,0,0,1-.313.835l-.028.028a1.149,1.149,0,0,1-.786.334,1.165,1.165,0,0,1-.828-.313l-.021-.021a14.7,14.7,0,0,0-3.79-2.65,9.086,9.086,0,0,0-7.727-.125,14.486,14.486,0,0,0-3.86,2.518.272.272,0,0,1-.07.056,1.159,1.159,0,0,1-1.572-.118.272.272,0,0,1-.056-.07,1.136,1.136,0,0,1-.25-.8,1.188,1.188,0,0,1,.389-.8,16.761,16.761,0,0,1,4.576-2.963,11.393,11.393,0,0,1,9.48.16Zm-1.892,4.855a9.912,9.912,0,0,1,2.712,1.607l.028.021a1.165,1.165,0,0,1,.16,1.607l-.028.035a1.161,1.161,0,0,1-1.627.153,7.713,7.713,0,0,0-2.066-1.238,5.6,5.6,0,0,0-2.093-.4,5.662,5.662,0,0,0-2.1.424A8.064,8.064,0,0,0,46.174,46.9a1.167,1.167,0,0,1-1.9-1.022v-.021a1.16,1.16,0,0,1,.417-.765,10.318,10.318,0,0,1,2.747-1.627,8.037,8.037,0,0,1,2.914-.563,7.888,7.888,0,0,1,2.928.542Zm-1.155,9.48ZM13.235,20.2h1.078V18.709a4.419,4.419,0,0,1,1.315-3.151h0a4.464,4.464,0,0,1,3.158-1.315,4.419,4.419,0,0,1,3.151,1.315h0a4.46,4.46,0,0,1,1.315,3.151V20.2h.855a.353.353,0,0,1,.348.348V27.9a.353.353,0,0,1-.348.348H13.228a.353.353,0,0,1-.348-.348V20.545a.35.35,0,0,1,.355-.348Zm2.81,0H21.5V18.681a2.718,2.718,0,0,0-.8-1.927h0a2.726,2.726,0,0,0-4.653,1.927V20.2ZM14.786,58.86,6.767,66.72l1.954,1.029,6.016-6.308,6.113,6.308,1.954-1.029L14.786,58.86Zm-5.634,9.7h0L14.8,62.915l5.627,5.647h0V74.1H9.153V68.563Zm5.07,1.815-.744,1.947h2.608L15.4,70.35a1.358,1.358,0,1,0-1.975-1.21,1.408,1.408,0,0,0,.8,1.238Zm60.982.139c-.132.063-.264.139-.4.216a9.381,9.381,0,0,0-1.189.842l-.855-.974a7.143,7.143,0,0,1,.953-.744,6.625,6.625,0,0,1,.842-.466c.118-.056.23-.111.348-.16a5.183,5.183,0,0,0-2.288-2.149,5.632,5.632,0,0,0-2.935-.515,5.365,5.365,0,0,0-2.754,1.078,5.2,5.2,0,0,0-1.892,3.192l-.083.445-.438.077a6.168,6.168,0,0,0-1.155.313,4.028,4.028,0,0,0-.876.466,2.762,2.762,0,0,0-.529.494,2.973,2.973,0,0,0-.675,1.954,3.528,3.528,0,0,0,.668,2.031,3.246,3.246,0,0,0,.556.6,2.755,2.755,0,0,0,.73.438,3.761,3.761,0,0,0,.9.236H76.909a6.615,6.615,0,0,0,1.634-.612,3.541,3.541,0,0,0,1.127-.953,3.9,3.9,0,0,0,.668-2.267,4.47,4.47,0,0,0-.633-2.441,3.661,3.661,0,0,0-.4-.508,3.06,3.06,0,0,0-2.281-.988,4.313,4.313,0,0,0-1.822.4ZM61.726,14.223a6.1,6.1,0,0,1-.612-2.643,6.144,6.144,0,0,1,.744-2.824c0-.007.007-.014.007-.021h0A5.354,5.354,0,0,1,64.48,6.447,5.779,5.779,0,0,1,67.2,6.058a6.325,6.325,0,0,1,2.6.835,5.387,5.387,0,0,1,2.267,2.573,5.7,5.7,0,0,1,.431,2,5.777,5.777,0,0,1-.438,2.344l-2.5,3.895-5.223.751a6.893,6.893,0,0,0-1.2-2.226,7.959,7.959,0,0,1-1.412-2Zm3.13,7.477a16.18,16.18,0,0,1-.431-2l5.488-.814c-.209.974-.021,1.474-.167,2.24-.452,2.413-4.055,2.8-4.889.57ZM79.392,63.541a12.459,12.459,0,1,0,3.644,8.805,12.4,12.4,0,0,0-3.644-8.805ZM75.615,5.981a12.459,12.459,0,1,0,3.644,8.805,12.4,12.4,0,0,0-3.644-8.805ZM27.632,13.235a12.459,12.459,0,1,0,3.644,8.805,12.4,12.4,0,0,0-3.644-8.805ZM23.591,57.678a12.459,12.459,0,1,0,3.644,8.805,12.416,12.416,0,0,0-3.644-8.805Z" fill="#fff" fill-rule="evenodd"/>
</svg>
