<svg id="cross-platform-icon" xmlns="http://www.w3.org/2000/svg" width="144.62" height="131.477" viewBox="0 0 44.62 31.477">
                        <path id="Path_18" data-name="Path 18" d="M19.607,26.869H28.83a4.735,4.735,0,0,0,2.463,4.15H17.147a5.008,5.008,0,0,0,2.46-4.15ZM14.931,11.057V30.35a.671.671,0,0,1-.668.669H.669A.671.671,0,0,1,0,30.35V11.057a.671.671,0,0,1,.669-.668H14.261a.671.671,0,0,1,.67.668ZM7.465,28.8a.766.766,0,1,1-.766.766.766.766,0,0,1,.766-.766Zm6.56-17.215V28.117H1V11.582Zm23.21,4.474h5.789a1.6,1.6,0,0,1,1.6,1.6V29.88a1.6,1.6,0,0,1-1.6,1.6H37.234a1.6,1.6,0,0,1-1.6-1.6V17.651a1.594,1.594,0,0,1,1.6-1.6Zm-1.047,13.2h7.88V17.8h-7.88V29.259Zm3.939.5a.657.657,0,1,1-.657.657.655.655,0,0,1,.657-.657ZM6.355,0H41.727a1.019,1.019,0,0,1,1.017,1.017V12.539H41.3V2.276a.9.9,0,0,0-.9-.9H7.678a.9.9,0,0,0-.9.9V8.151H5.338V1.017A1.019,1.019,0,0,1,6.355,0ZM17.078,21.939H33.592v3.527H17.078V21.939Z" transform="translate(0)" fill="#fff" fill-rule="evenodd"/>
                      </svg>