<svg xmlns="http://www.w3.org/2000/svg" width="159.834" height="152.11" viewBox="0 0 59.834 52.11">
                        <path id="web-page-icon" d="M4.052,0H55.782a4.06,4.06,0,0,1,4.052,4.052V48.059a4.064,4.064,0,0,1-4.052,4.052H4.052A4.062,4.062,0,0,1,0,48.059V4.052A4.061,4.061,0,0,1,4.052,0ZM8.138,13.528H51.7a2.009,2.009,0,0,1,2,2V36.8a2.013,2.013,0,0,1-2,2H8.138a2.012,2.012,0,0,1-2-2V15.53A2.009,2.009,0,0,1,8.138,13.528Zm21.777,3.209a9.428,9.428,0,1,1-9.427,9.429,9.428,9.428,0,0,1,9.427-9.429Zm-.529,4.247V18.547a18.952,18.952,0,0,0-2.327,2.437Zm7.81,9.3a8.173,8.173,0,0,0,1.062-3.591H35.952a8.349,8.349,0,0,1-1.063,3.59Zm-.7,1.065H34.23a16.943,16.943,0,0,1-2.807,3.042A8.391,8.391,0,0,0,36.5,31.347Zm-8.081,3.04a16.841,16.841,0,0,1-2.806-3.04H23.349a8.348,8.348,0,0,0,5.065,3.04Zm-5.778-4.1h2.308A8.381,8.381,0,0,1,23.881,26.7H21.575A8.2,8.2,0,0,0,22.636,30.287Zm-1.063-4.651H23.9a8.971,8.971,0,0,1,1.172-3.591H22.636A8.194,8.194,0,0,0,21.573,25.636Zm1.766-4.652h2.409a19,19,0,0,1,2.75-3.061A8.39,8.39,0,0,0,23.339,20.984Zm8.005-3.054a18.479,18.479,0,0,1,2.742,3.054h2.4A8.378,8.378,0,0,0,31.344,17.93ZM37.2,22.045H34.757a8.989,8.989,0,0,1,1.172,3.591h2.328A8.164,8.164,0,0,0,37.2,22.045Zm-6.749-3.5v2.437h2.327A18.873,18.873,0,0,0,30.446,18.547Zm0,3.5v3.591h4.421a8.369,8.369,0,0,0-1.343-3.591H30.446Zm0,4.651v3.591h3.217A7.612,7.612,0,0,0,34.891,26.7Zm0,4.651v2.482a17.725,17.725,0,0,0,2.463-2.482Zm-1.06,2.482V31.347H26.922A17.241,17.241,0,0,0,29.386,33.829Zm0-3.542V26.7H24.942a7.659,7.659,0,0,0,1.227,3.591Zm0-4.651V22.045H26.307a8.368,8.368,0,0,0-1.342,3.591ZM57.443,9.787H2.576V48.454a1.114,1.114,0,0,0,1.12,1.12H56.3a1.118,1.118,0,0,0,1.121-1.121V9.787ZM51.926,3.515a2,2,0,1,1-2,2,2,2,0,0,1,2-2Zm-13.556,0a2,2,0,1,1-2,2,2,2,0,0,1,2-2Zm6.778,0a2,2,0,1,1-2,2,2,2,0,0,1,2-2ZM32.562,45.686a1.71,1.71,0,0,1,0-3.408H51.867a1.71,1.71,0,0,1,0,3.408Zm-25.277,0a1.711,1.711,0,0,1,0-3.408h17.9a1.711,1.711,0,0,1,0,3.408Z" fill="#fff" fill-rule="evenodd"/>
                      </svg>