<svg xmlns="http://www.w3.org/2000/svg" width="103.501" height="82.801" viewBox="0 0 103.501 82.801">
                    <path id="robot" d="M1.516,37.746A5.162,5.162,0,0,0,0,41.4V62.1a5.178,5.178,0,0,0,5.175,5.175H10.35V36.226H5.175A5.177,5.177,0,0,0,1.516,37.746Zm73.522-22.22H56.926V5.175a5.175,5.175,0,0,0-10.35,0v10.35H28.463A12.934,12.934,0,0,0,15.525,28.463V72.451A10.343,10.343,0,0,0,25.875,82.8H77.626a10.343,10.343,0,0,0,10.35-10.35V28.463A12.924,12.924,0,0,0,75.039,15.525ZM41.4,67.276H31.05V62.1H41.4ZM36.226,47.869A6.469,6.469,0,1,1,42.694,41.4,6.467,6.467,0,0,1,36.226,47.869Zm20.7,19.407H46.576V62.1h10.35Zm15.525,0H62.1V62.1h10.35ZM67.276,47.869A6.469,6.469,0,1,1,73.745,41.4,6.463,6.463,0,0,1,67.276,47.869Zm34.705-10.124a5.166,5.166,0,0,0-3.655-1.52H93.151v31.05h5.175A5.178,5.178,0,0,0,103.5,62.1V41.4A5.166,5.166,0,0,0,101.981,37.746Z" fill="#fff"/>
                  </svg>