<svg id="Group_66" data-name="Group 66" xmlns="http://www.w3.org/2000/svg" width="60" height="58" viewBox="0 0 60 58">
  <path id="Path_353" data-name="Path 353" d="M30,26a1.006,1.006,0,0,1-.426-.095l-17-8a1,1,0,0,1,0-1.81l17-8a1,1,0,0,1,.852,0l17,8a1,1,0,0,1,0,1.81l-17,8A1.006,1.006,0,0,1,30,26ZM15.349,17,30,23.9,44.651,17,30,10.1Z" fill="#fff"/>
  <path id="Path_354" data-name="Path 354" d="M30,34a1,1,0,0,1-.447-.1l-12-6A1,1,0,0,1,17,27V19.353a1,1,0,0,1,1.425-.905L30,23.9l11.574-5.447A1,1,0,0,1,43,19.353V27a1,1,0,0,1-.553.9l-12,6A1,1,0,0,1,30,34ZM19,26.382l11,5.5,11-5.5V20.929L30.426,25.905a1,1,0,0,1-.852,0L19,20.929Z" fill="#fff"/>
  <path id="Path_355" data-name="Path 355" d="M47,18H30a1,1,0,0,1,0-2H47a1,1,0,0,1,0,2Z" fill="#fff"/>
  <path id="Path_356" data-name="Path 356" d="M47,27a1,1,0,0,1-1-1V17a1,1,0,0,1,2,0v9A1,1,0,0,1,47,27Z" fill="#fff"/>
  <path id="Path_357" data-name="Path 357" d="M30,20a1,1,0,0,1-1-1V15a1,1,0,0,1,2,0v4A1,1,0,0,1,30,20Z" fill="#fff"/>
  <path id="Path_358" data-name="Path 358" d="M45,30a1,1,0,0,1-.831-1.555l2-3a1,1,0,0,1,1.664,1.11l-2,3A1,1,0,0,1,45,30Z" fill="#fff"/>
  <path id="Path_359" data-name="Path 359" d="M49,30a1,1,0,0,1-.833-.445l-2-3a1,1,0,0,1,1.664-1.11l2,3A1,1,0,0,1,49,30Z" fill="#fff"/>
  <path id="Path_360" data-name="Path 360" d="M30,29a1,1,0,0,1-1-1V25a1,1,0,0,1,2,0v3A1,1,0,0,1,30,29Z" fill="#fff"/>
  <path id="Path_361" data-name="Path 361" d="M59,38H1a1,1,0,0,1-1-1V4A4.006,4.006,0,0,1,4,0H56a4.006,4.006,0,0,1,4,4V37A1,1,0,0,1,59,38ZM2,36H58V4a2,2,0,0,0-2-2H4A2,2,0,0,0,2,4Z" fill="#fff"/>
  <path id="Path_362" data-name="Path 362" d="M56,46H4a4.006,4.006,0,0,1-4-4V37a1,1,0,0,1,1-1H59a1,1,0,0,1,1,1v5A4.006,4.006,0,0,1,56,46ZM2,38v4a2,2,0,0,0,2,2H56a2,2,0,0,0,2-2V38Z" fill="#fff"/>
  <path id="Path_363" data-name="Path 363" d="M33,42H27a1,1,0,0,1,0-2h6a1,1,0,0,1,0,2Z" fill="#fff"/>
  <path id="Path_364" data-name="Path 364" d="M55,38H5a1,1,0,0,1-1-1V5A1,1,0,0,1,5,4H55a1,1,0,0,1,1,1V37A1,1,0,0,1,55,38ZM6,36H54V6H6Z" fill="#fff"/>
  <path id="Path_365" data-name="Path 365" d="M43,58H17a3,3,0,0,1,0-6H43a3,3,0,0,1,0,6ZM17,54a1,1,0,0,0,0,2H43a1,1,0,0,0,0-2Z" fill="#fff"/>
  <path id="Path_366" data-name="Path 366" d="M41,54H19a1,1,0,0,1,0-2c3.318,0,5-2.355,5-7a1,1,0,0,1,1-1H35a1,1,0,0,1,1,1c0,4.645,1.682,7,5,7a1,1,0,0,1,0,2ZM23.871,52H36.13a9.569,9.569,0,0,1-2.1-6H25.973A9.575,9.575,0,0,1,23.871,52Z" fill="#fff"/>
</svg>
